EBGaramond12-Regular.ufo
<glyph name="exclam" format="2">
  <advance width="250"/>
  <unicode hex="0021"/>
  <note>
exclam
</note>
  <outline>
    <contour>
      <point x="123" y="205" type="curve" smooth="yes"/>
      <point x="133" y="205"/>
      <point x="139" y="222"/>
      <point x="141" y="244" type="curve" smooth="yes"/>
      <point x="153" y="357"/>
      <point x="171" y="531"/>
      <point x="171" y="594" type="curve" smooth="yes"/>
      <point x="171" y="623"/>
      <point x="153" y="649"/>
      <point x="126" y="649" type="curve" smooth="yes"/>
      <point x="99" y="649"/>
      <point x="79" y="623"/>
      <point x="79" y="594" type="curve" smooth="yes"/>
      <point x="79" y="531"/>
      <point x="93" y="358"/>
      <point x="105" y="244" type="curve" smooth="yes"/>
      <point x="108" y="215"/>
      <point x="113" y="205"/>
    </contour>
    <contour>
      <point x="125" y="-14" type="curve" smooth="yes"/>
      <point x="158" y="-14"/>
      <point x="185" y="13"/>
      <point x="185" y="46" type="curve" smooth="yes"/>
      <point x="185" y="79"/>
      <point x="158" y="106"/>
      <point x="125" y="106" type="curve" smooth="yes"/>
      <point x="92" y="106"/>
      <point x="65" y="79"/>
      <point x="65" y="46" type="curve" smooth="yes"/>
      <point x="65" y="13"/>
      <point x="92" y="-14"/>
    </contour>
  </outline>
</glyph>
<glyph name="numbersign" format="2">
  <advance width="468"/>
  <unicode hex="0023"/>
  <note>
numbersign
</note>
  <outline>
    <contour>
      <point x="60" y="-79" type="curve" smooth="yes"/>
      <point x="73" y="-79"/>
      <point x="87" y="-77"/>
      <point x="90" y="-64" type="curve" smooth="yes"/>
      <point x="134" y="115" type="line"/>
      <point x="248" y="121" type="line"/>
      <point x="205" y="-53" type="line"/>
      <point x="205" y="-56" type="line" smooth="yes"/>
      <point x="205" y="-62"/>
      <point x="209" y="-68"/>
      <point x="215" y="-68" type="curve" smooth="yes"/>
      <point x="228" y="-68"/>
      <point x="242" y="-66"/>
      <point x="245" y="-53" type="curve" smooth="yes"/>
      <point x="288" y="123" type="line"/>
      <point x="346" y="126" type="line" smooth="yes"/>
      <point x="368" y="127"/>
      <point x="377" y="164"/>
      <point x="377" y="174" type="curve" smooth="yes"/>
      <point x="377" y="181"/>
      <point x="371" y="186"/>
      <point x="364" y="186" type="curve"/>
      <point x="303" y="183" type="line"/>
      <point x="337" y="321" type="line"/>
      <point x="393" y="324" type="line" smooth="yes"/>
      <point x="415" y="325"/>
      <point x="424" y="363"/>
      <point x="424" y="373" type="curve" smooth="yes"/>
      <point x="424" y="380"/>
      <point x="418" y="384"/>
      <point x="411" y="384" type="curve"/>
      <point x="352" y="381" type="line"/>
      <point x="394" y="553" type="line"/>
      <point x="394" y="555"/>
      <point x="395" y="556"/>
      <point x="395" y="558" type="curve" smooth="yes"/>
      <point x="395" y="564"/>
      <point x="392" y="570"/>
      <point x="387" y="570" type="curve" smooth="yes"/>
      <point x="373" y="570"/>
      <point x="357" y="567"/>
      <point x="354" y="553" type="curve" smooth="yes"/>
      <point x="311" y="379" type="line"/>
      <point x="198" y="373" type="line"/>
      <point x="239" y="542" type="line"/>
      <point x="239" y="544"/>
      <point x="240" y="545"/>
      <point x="240" y="547" type="curve" smooth="yes"/>
      <point x="240" y="553"/>
      <point x="237" y="559"/>
      <point x="232" y="559" type="curve" smooth="yes"/>
      <point x="218" y="559"/>
      <point x="202" y="556"/>
      <point x="199" y="542" type="curve" smooth="yes"/>
      <point x="157" y="371" type="line"/>
      <point x="88" y="368" type="line" smooth="yes"/>
      <point x="67" y="367"/>
      <point x="64" y="330"/>
      <point x="64" y="320" type="curve" smooth="yes"/>
      <point x="64" y="313"/>
      <point x="71" y="308"/>
      <point x="78" y="308" type="curve"/>
      <point x="142" y="311" type="line"/>
      <point x="108" y="173" type="line"/>
      <point x="41" y="170" type="line" smooth="yes"/>
      <point x="20" y="169"/>
      <point x="17" y="132"/>
      <point x="17" y="122" type="curve" smooth="yes"/>
      <point x="17" y="115"/>
      <point x="24" y="110"/>
      <point x="31" y="110" type="curve"/>
      <point x="94" y="113" type="line"/>
      <point x="50" y="-64" type="line"/>
      <point x="50" y="-67" type="line" smooth="yes"/>
      <point x="50" y="-73"/>
      <point x="54" y="-79"/>
    </contour>
    <contour>
      <point x="149" y="175" type="line"/>
      <point x="183" y="313" type="line"/>
      <point x="296" y="319" type="line"/>
      <point x="263" y="181" type="line"/>
    </contour>
  </outline>
</glyph>
<glyph name="dollar" format="2">
  <advance width="441"/>
  <unicode hex="0024"/>
  <note>
dollar
</note>
  <outline>
    <contour>
      <point x="171" y="-82" type="curve" smooth="yes"/>
      <point x="182" y="-82"/>
      <point x="195" y="-78"/>
      <point x="196" y="-67" type="curve" smooth="yes"/>
      <point x="205" y="9" type="line" smooth="yes"/>
      <point x="206" y="14"/>
      <point x="209" y="16"/>
      <point x="214" y="16" type="curve" smooth="yes"/>
      <point x="326" y="23"/>
      <point x="398" y="93"/>
      <point x="398" y="194" type="curve" smooth="yes"/>
      <point x="398" y="284"/>
      <point x="329" y="329"/>
      <point x="263" y="367" type="curve"/>
      <point x="249" y="377"/>
      <point x="250" y="377"/>
      <point x="251" y="385" type="curve" smooth="yes"/>
      <point x="275" y="583" type="line"/>
      <point x="275" y="585"/>
      <point x="277" y="588"/>
      <point x="279" y="588" type="curve" smooth="yes"/>
      <point x="310" y="575"/>
      <point x="332" y="546"/>
      <point x="351" y="501" type="curve" smooth="yes"/>
      <point x="354" y="494"/>
      <point x="366" y="489"/>
      <point x="378" y="489" type="curve" smooth="yes"/>
      <point x="385" y="489"/>
      <point x="392" y="491"/>
      <point x="392" y="499" type="curve" smooth="yes"/>
      <point x="392" y="527"/>
      <point x="380" y="562"/>
      <point x="373" y="588" type="curve" smooth="yes"/>
      <point x="370" y="597"/>
      <point x="363" y="607"/>
      <point x="353" y="610" type="curve" smooth="yes"/>
      <point x="338" y="616"/>
      <point x="317" y="625"/>
      <point x="290" y="630" type="curve" smooth="yes"/>
      <point x="285" y="631"/>
      <point x="284" y="634"/>
      <point x="284" y="637" type="curve" smooth="yes"/>
      <point x="285" y="646"/>
      <point x="290" y="687"/>
      <point x="291" y="697" type="curve"/>
      <point x="291" y="704"/>
      <point x="285" y="712"/>
      <point x="278" y="712" type="curve" smooth="yes"/>
      <point x="265" y="712"/>
      <point x="251" y="708"/>
      <point x="249" y="695" type="curve" smooth="yes"/>
      <point x="242" y="638" type="line" smooth="yes"/>
      <point x="242" y="635"/>
      <point x="238" y="632"/>
      <point x="232" y="632" type="curve" smooth="yes"/>
      <point x="115" y="625"/>
      <point x="56" y="552"/>
      <point x="56" y="466" type="curve" smooth="yes"/>
      <point x="56" y="390"/>
      <point x="120" y="346"/>
      <point x="185" y="308" type="curve" smooth="yes"/>
      <point x="197" y="301"/>
      <point x="198" y="296"/>
      <point x="197" y="291" type="curve" smooth="yes"/>
      <point x="170" y="62" type="line" smooth="yes"/>
      <point x="170" y="58"/>
      <point x="165" y="58"/>
      <point x="161" y="60" type="curve"/>
      <point x="124" y="75"/>
      <point x="91" y="110"/>
      <point x="73" y="176" type="curve" smooth="yes"/>
      <point x="72" y="184"/>
      <point x="65" y="186"/>
      <point x="58" y="186" type="curve" smooth="yes"/>
      <point x="48" y="186"/>
      <point x="40" y="182"/>
      <point x="40" y="174" type="curve"/>
      <point x="42" y="149"/>
      <point x="42" y="104"/>
      <point x="49" y="79" type="curve" smooth="yes"/>
      <point x="51" y="72"/>
      <point x="57" y="66"/>
      <point x="61" y="61" type="curve" smooth="yes"/>
      <point x="88" y="40"/>
      <point x="121" y="24"/>
      <point x="158" y="18" type="curve" smooth="yes"/>
      <point x="161" y="18"/>
      <point x="166" y="15"/>
      <point x="165" y="9" type="curve"/>
      <point x="156" y="-62" type="line" smooth="yes"/>
      <point x="154" y="-75"/>
      <point x="163" y="-82"/>
    </contour>
    <contour>
      <point x="219" y="53" type="curve"/>
      <point x="213" y="53"/>
      <point x="211" y="55"/>
      <point x="211" y="63" type="curve"/>
      <point x="236" y="269" type="line" smooth="yes"/>
      <point x="236" y="273"/>
      <point x="239" y="276"/>
      <point x="243" y="274" type="curve"/>
      <point x="290" y="245"/>
      <point x="319" y="219"/>
      <point x="319" y="158" type="curve" smooth="yes"/>
      <point x="319" y="95"/>
      <point x="278" y="57"/>
    </contour>
    <contour>
      <point x="203" y="404" type="curve"/>
      <point x="162" y="432"/>
      <point x="134" y="460"/>
      <point x="134" y="497" type="curve" smooth="yes"/>
      <point x="134" y="567"/>
      <point x="175" y="591"/>
      <point x="227" y="595" type="curve"/>
      <point x="232" y="595"/>
      <point x="234" y="592"/>
      <point x="234" y="587" type="curve"/>
      <point x="212" y="405" type="line"/>
      <point x="212" y="403"/>
      <point x="211" y="400"/>
    </contour>
  </outline>
</glyph>
<glyph name="ampersand" format="2">
  <advance width="756"/>
  <unicode hex="0026"/>
  <note>
ampersand
</note>
  <outline>
    <contour>
      <point x="212" y="-15" type="curve" smooth="yes"/>
      <point x="305" y="-15"/>
      <point x="350" y="48"/>
      <point x="413" y="116" type="curve"/>
      <point x="419" y="122" type="line"/>
      <point x="432" y="101" type="line" smooth="yes"/>
      <point x="483" y="21"/>
      <point x="511" y="-15"/>
      <point x="586" y="-15" type="curve" smooth="yes"/>
      <point x="641" y="-15"/>
      <point x="715" y="34"/>
      <point x="715" y="51" type="curve" smooth="yes"/>
      <point x="715" y="60"/>
      <point x="712" y="63"/>
      <point x="703" y="63" type="curve" smooth="yes"/>
      <point x="697" y="63"/>
      <point x="691" y="61"/>
      <point x="686" y="58" type="curve" smooth="yes"/>
      <point x="662" y="44"/>
      <point x="636" y="40"/>
      <point x="608" y="40" type="curve" smooth="yes"/>
      <point x="557" y="40"/>
      <point x="518" y="80"/>
      <point x="476" y="141" type="curve" smooth="yes"/>
      <point x="459" y="165" type="line"/>
      <point x="459" y="165"/>
      <point x="625" y="342"/>
      <point x="638" y="353" type="curve" smooth="yes"/>
      <point x="654" y="367"/>
      <point x="680" y="382"/>
      <point x="711" y="384" type="curve"/>
      <point x="720" y="385"/>
      <point x="736" y="395"/>
      <point x="736" y="403" type="curve" smooth="yes"/>
      <point x="736" y="407"/>
      <point x="727" y="412"/>
      <point x="724" y="412" type="curve" smooth="yes"/>
      <point x="700" y="412"/>
      <point x="658" y="397"/>
      <point x="628" y="397" type="curve" smooth="yes"/>
      <point x="613" y="397"/>
      <point x="563" y="402"/>
      <point x="557" y="402" type="curve" smooth="yes"/>
      <point x="553" y="402"/>
      <point x="535" y="401"/>
      <point x="535" y="391" type="curve" smooth="yes"/>
      <point x="535" y="388"/>
      <point x="544" y="381"/>
      <point x="547" y="380" type="curve"/>
      <point x="564" y="377"/>
      <point x="575" y="360"/>
      <point x="575" y="352" type="curve" smooth="yes"/>
      <point x="575" y="337"/>
      <point x="513" y="253"/>
      <point x="465" y="202" type="curve" smooth="yes"/>
      <point x="447" y="183" type="line"/>
      <point x="435" y="201" type="line" smooth="yes"/>
      <point x="395" y="259"/>
      <point x="356" y="291"/>
      <point x="305" y="346" type="curve" smooth="yes"/>
      <point x="292" y="360" type="line"/>
      <point x="306" y="365" type="line" smooth="yes"/>
      <point x="372" y="389"/>
      <point x="412" y="426"/>
      <point x="411" y="477" type="curve" smooth="yes"/>
      <point x="411" y="529"/>
      <point x="370" y="599"/>
      <point x="284" y="599" type="curve" smooth="yes"/>
      <point x="215" y="599"/>
      <point x="145" y="554"/>
      <point x="145" y="484" type="curve" smooth="yes"/>
      <point x="145" y="425"/>
      <point x="191" y="389"/>
      <point x="210" y="367" type="curve"/>
      <point x="225" y="351" type="line"/>
      <point x="205" y="342" type="line" smooth="yes"/>
      <point x="109" y="298"/>
      <point x="38" y="233"/>
      <point x="38" y="127" type="curve" smooth="yes"/>
      <point x="38" y="45"/>
      <point x="109" y="-15"/>
    </contour>
    <contour>
      <point x="238" y="50" type="curve" smooth="yes"/>
      <point x="165" y="50"/>
      <point x="115" y="99"/>
      <point x="115" y="160" type="curve" smooth="yes"/>
      <point x="115" y="219"/>
      <point x="126" y="290"/>
      <point x="219" y="326" type="curve" smooth="yes"/>
      <point x="240" y="334" type="line"/>
      <point x="252" y="321" type="line" smooth="yes"/>
      <point x="309" y="259"/>
      <point x="362" y="210"/>
      <point x="395" y="159" type="curve" smooth="yes"/>
      <point x="407" y="140" type="line"/>
      <point x="398" y="131" type="line" smooth="yes"/>
      <point x="349" y="79"/>
      <point x="304" y="50"/>
    </contour>
    <contour>
      <point x="279" y="376" type="line"/>
      <point x="263" y="393" type="line" smooth="yes"/>
      <point x="211" y="448"/>
      <point x="203" y="469"/>
      <point x="203" y="509" type="curve" smooth="yes"/>
      <point x="203" y="545"/>
      <point x="239" y="573"/>
      <point x="279" y="573" type="curve" smooth="yes"/>
      <point x="325" y="573"/>
      <point x="347" y="528"/>
      <point x="347" y="482" type="curve" smooth="yes"/>
      <point x="347" y="442"/>
      <point x="329" y="399"/>
      <point x="292" y="382" type="curve" smooth="yes"/>
    </contour>
  </outline>
</glyph>
<glyph name="quotesingle" format="2">
  <advance width="200"/>
  <unicode hex="0027"/>
  <note>
quotesingle
</note>
  <outline>
    <contour>
      <point x="72" y="444" type="curve" smooth="yes"/>
      <point x="77" y="444"/>
      <point x="86" y="457"/>
      <point x="91" y="469" type="curve" smooth="yes"/>
      <point x="106" y="505"/>
      <point x="138" y="592"/>
      <point x="138" y="644" type="curve" smooth="yes"/>
      <point x="138" y="661"/>
      <point x="134" y="676"/>
      <point x="124" y="676" type="curve" smooth="yes"/>
      <point x="108" y="676"/>
      <point x="97" y="668"/>
      <point x="81" y="655" type="curve"/>
      <point x="73" y="648"/>
      <point x="62" y="634"/>
      <point x="62" y="620" type="curve" smooth="yes"/>
      <point x="62" y="619"/>
      <point x="66" y="560"/>
      <point x="66" y="524" type="curve" smooth="yes"/>
      <point x="66" y="506"/>
      <point x="66" y="488"/>
      <point x="65" y="467" type="curve"/>
      <point x="65" y="458"/>
      <point x="67" y="444"/>
    </contour>
  </outline>
</glyph>
<glyph name="parenleft" format="2">
  <advance width="315"/>
  <unicode hex="0028"/>
  <note>
parenleft
</note>
  <outline>
    <contour>
      <point x="237" y="-214" type="curve" smooth="yes"/>
      <point x="250" y="-214"/>
      <point x="264" y="-206"/>
      <point x="264" y="-192" type="curve" smooth="yes"/>
      <point x="264" y="-190"/>
      <point x="250" y="-175"/>
      <point x="249" y="-173" type="curve" smooth="yes"/>
      <point x="188" y="-102"/>
      <point x="123" y="111"/>
      <point x="123" y="281" type="curve" smooth="yes"/>
      <point x="123" y="451"/>
      <point x="191" y="599"/>
      <point x="252" y="670" type="curve" smooth="yes"/>
      <point x="254" y="672"/>
      <point x="265" y="687"/>
      <point x="265" y="689" type="curve" smooth="yes"/>
      <point x="265" y="698"/>
      <point x="250" y="705"/>
      <point x="243" y="705" type="curve" smooth="yes"/>
      <point x="233" y="705"/>
      <point x="222" y="700"/>
      <point x="216" y="694" type="curve" smooth="yes"/>
      <point x="145" y="623"/>
      <point x="40" y="439"/>
      <point x="40" y="269" type="curve" smooth="yes"/>
      <point x="40" y="99"/>
      <point x="149" y="-136"/>
      <point x="220" y="-207" type="curve" smooth="yes"/>
      <point x="225" y="-212"/>
      <point x="231" y="-214"/>
    </contour>
  </outline>
</glyph>
<glyph name="asterisk" format="2">
  <advance width="340"/>
  <unicode hex="002A"/>
  <note>
asterisk
</note>
  <outline>
    <contour>
      <point x="184" y="372" type="curve" smooth="yes"/>
      <point x="196" y="372"/>
      <point x="201" y="383"/>
      <point x="201" y="394" type="curve"/>
      <point x="200" y="429"/>
      <point x="198" y="459"/>
      <point x="195" y="487" type="curve"/>
      <point x="221" y="476"/>
      <point x="250" y="466"/>
      <point x="282" y="452" type="curve" smooth="yes"/>
      <point x="290" y="449"/>
      <point x="307" y="451"/>
      <point x="307" y="465" type="curve" smooth="yes"/>
      <point x="307" y="472"/>
      <point x="302" y="480"/>
      <point x="295" y="483" type="curve"/>
      <point x="264" y="501"/>
      <point x="239" y="513"/>
      <point x="213" y="525" type="curve"/>
      <point x="286" y="583" type="line"/>
      <point x="291" y="588"/>
      <point x="295" y="594"/>
      <point x="295" y="600" type="curve" smooth="yes"/>
      <point x="295" y="610"/>
      <point x="285" y="614"/>
      <point x="277" y="614" type="curve" smooth="yes"/>
      <point x="273" y="614"/>
      <point x="269" y="613"/>
      <point x="266" y="610" type="curve"/>
      <point x="236" y="592"/>
      <point x="210" y="576"/>
      <point x="187" y="560" type="curve"/>
      <point x="174" y="652" type="line" smooth="yes"/>
      <point x="173" y="661"/>
      <point x="166" y="670"/>
      <point x="157" y="670" type="curve" smooth="yes"/>
      <point x="145" y="670"/>
      <point x="140" y="659"/>
      <point x="140" y="648" type="curve" smooth="yes"/>
      <point x="141" y="613"/>
      <point x="143" y="583"/>
      <point x="146" y="555" type="curve"/>
      <point x="120" y="566"/>
      <point x="91" y="576"/>
      <point x="59" y="590" type="curve"/>
      <point x="51" y="593"/>
      <point x="34" y="591"/>
      <point x="34" y="577" type="curve" smooth="yes"/>
      <point x="34" y="570"/>
      <point x="39" y="562"/>
      <point x="46" y="559" type="curve"/>
      <point x="77" y="541"/>
      <point x="102" y="529"/>
      <point x="128" y="517" type="curve"/>
      <point x="55" y="459" type="line"/>
      <point x="50" y="454"/>
      <point x="46" y="448"/>
      <point x="46" y="442" type="curve" smooth="yes"/>
      <point x="46" y="432"/>
      <point x="56" y="428"/>
      <point x="64" y="428" type="curve" smooth="yes"/>
      <point x="68" y="428"/>
      <point x="72" y="429"/>
      <point x="75" y="432" type="curve"/>
      <point x="105" y="450"/>
      <point x="131" y="466"/>
      <point x="154" y="482" type="curve"/>
      <point x="167" y="390" type="line" smooth="yes"/>
      <point x="168" y="381"/>
      <point x="175" y="372"/>
    </contour>
  </outline>
</glyph>
<glyph name="plus" format="2">
  <advance width="590"/>
  <unicode hex="002B"/>
  <note>
plus
</note>
  <outline>
    <contour>
      <point x="282" y="-8" type="curve" smooth="yes"/>
      <point x="291" y="-8"/>
      <point x="330" y="-5"/>
      <point x="330" y="16" type="curve" smooth="yes"/>
      <point x="330" y="218" type="line" smooth="yes"/>
      <point x="330" y="221"/>
      <point x="331" y="222"/>
      <point x="334" y="222" type="curve" smooth="yes"/>
      <point x="519" y="222" type="line" smooth="yes"/>
      <point x="538" y="222"/>
      <point x="550" y="245"/>
      <point x="550" y="262" type="curve" smooth="yes"/>
      <point x="550" y="268"/>
      <point x="544" y="272"/>
      <point x="537" y="272" type="curve" smooth="yes"/>
      <point x="332" y="272" type="line" smooth="yes"/>
      <point x="330" y="272"/>
      <point x="330" y="273"/>
      <point x="330" y="278" type="curve" smooth="yes"/>
      <point x="330" y="469" type="line" smooth="yes"/>
      <point x="330" y="476"/>
      <point x="323" y="482"/>
      <point x="316" y="482" type="curve" smooth="yes"/>
      <point x="310" y="482"/>
      <point x="270" y="473"/>
      <point x="270" y="451" type="curve" smooth="yes"/>
      <point x="270" y="280" type="line" smooth="yes"/>
      <point x="270" y="274"/>
      <point x="269" y="272"/>
      <point x="263" y="272" type="curve" smooth="yes"/>
      <point x="74" y="272" type="line" smooth="yes"/>
      <point x="56" y="272"/>
      <point x="50" y="243"/>
      <point x="50" y="234" type="curve" smooth="yes"/>
      <point x="50" y="228"/>
      <point x="57" y="222"/>
      <point x="64" y="222" type="curve" smooth="yes"/>
      <point x="266" y="222" type="line" smooth="yes"/>
      <point x="269" y="222"/>
      <point x="270" y="220"/>
      <point x="270" y="217" type="curve" smooth="yes"/>
      <point x="270" y="6" type="line" smooth="yes"/>
      <point x="270" y="-1"/>
      <point x="276" y="-8"/>
    </contour>
  </outline>
</glyph>
<glyph name="comma" format="2">
  <advance width="230"/>
  <unicode hex="002C"/>
  <note>
comma
</note>
  <outline>
    <contour>
      <point x="38" y="-147" type="curve" smooth="yes"/>
      <point x="89" y="-147"/>
      <point x="182" y="-81"/>
      <point x="182" y="20" type="curve" smooth="yes"/>
      <point x="182" y="76"/>
      <point x="147" y="117"/>
      <point x="99" y="117" type="curve" smooth="yes"/>
      <point x="70" y="117"/>
      <point x="44" y="98"/>
      <point x="44" y="71" type="curve" smooth="yes"/>
      <point x="44" y="49"/>
      <point x="62" y="32"/>
      <point x="91" y="29" type="curve" smooth="yes"/>
      <point x="113" y="27"/>
      <point x="130" y="1"/>
      <point x="130" y="-15" type="curve" smooth="yes"/>
      <point x="130" y="-85"/>
      <point x="77" y="-115"/>
      <point x="34" y="-124" type="curve" smooth="yes"/>
      <point x="25" y="-126"/>
      <point x="20" y="-131"/>
      <point x="20" y="-136" type="curve" smooth="yes"/>
      <point x="20" y="-142"/>
      <point x="26" y="-147"/>
    </contour>
  </outline>
</glyph>
<glyph name="one" format="2">
  <advance width="480"/>
  <unicode hex="0031"/>
  <note>
one.tablining
</note>
  <outline>
    <contour>
      <point x="107" y="-3" type="curve" smooth="yes"/>
      <point x="161" y="-3"/>
      <point x="203" y="2"/>
      <point x="257" y="2" type="curve" smooth="yes"/>
      <point x="310" y="2"/>
      <point x="347" y="-3"/>
      <point x="404" y="-3" type="curve" smooth="yes"/>
      <point x="412" y="-3"/>
      <point x="418" y="2"/>
      <point x="418" y="8" type="curve" smooth="yes"/>
      <point x="418" y="14"/>
      <point x="409" y="19"/>
      <point x="401" y="21" type="curve" smooth="yes"/>
      <point x="319" y="41"/>
      <point x="295" y="46"/>
      <point x="295" y="97" type="curve" smooth="yes"/>
      <point x="295" y="557" type="line" smooth="yes"/>
      <point x="295" y="585"/>
      <point x="296" y="608"/>
      <point x="299" y="628" type="curve"/>
      <point x="300" y="633"/>
      <point x="293" y="637"/>
      <point x="287" y="637" type="curve" smooth="yes"/>
      <point x="285" y="637"/>
      <point x="283" y="637"/>
      <point x="282" y="636" type="curve" smooth="yes"/>
      <point x="237" y="591"/>
      <point x="192" y="583"/>
      <point x="132" y="574" type="curve" smooth="yes"/>
      <point x="118" y="572"/>
      <point x="107" y="565"/>
      <point x="107" y="556" type="curve" smooth="yes"/>
      <point x="107" y="545"/>
      <point x="120" y="540"/>
      <point x="133" y="539" type="curve" smooth="yes"/>
      <point x="176" y="536"/>
      <point x="217" y="529"/>
      <point x="217" y="491" type="curve" smooth="yes"/>
      <point x="217" y="109" type="line" smooth="yes"/>
      <point x="217" y="50"/>
      <point x="183" y="41"/>
      <point x="107" y="22" type="curve" smooth="yes"/>
      <point x="99" y="20"/>
      <point x="92" y="14"/>
      <point x="92" y="9" type="curve" smooth="yes"/>
      <point x="92" y="3"/>
      <point x="97" y="-3"/>
    </contour>
  </outline>
</glyph>
<glyph name="less" format="2">
  <advance width="560"/>
  <unicode hex="003C"/>
  <note>
less
</note>
  <outline>
    <contour>
      <point x="487" y="-2" type="line" smooth="yes"/>
      <point x="494" y="-5"/>
      <point x="507" y="-6"/>
      <point x="507" y="7" type="curve" smooth="yes"/>
      <point x="507" y="16"/>
      <point x="502" y="46"/>
      <point x="483" y="55" type="curve" smooth="yes"/>
      <point x="133" y="229" type="line"/>
      <point x="130" y="230"/>
      <point x="129" y="233"/>
      <point x="132" y="234" type="curve"/>
      <point x="475" y="408" type="line" smooth="yes"/>
      <point x="495" y="418"/>
      <point x="506" y="447"/>
      <point x="506" y="459" type="curve" smooth="yes"/>
      <point x="506" y="465"/>
      <point x="503" y="469"/>
      <point x="497" y="469" type="curve" smooth="yes"/>
      <point x="496" y="469"/>
      <point x="492" y="468"/>
      <point x="489" y="466" type="curve" smooth="yes"/>
      <point x="86" y="268" type="line" smooth="yes"/>
      <point x="66" y="258"/>
      <point x="53" y="231"/>
      <point x="53" y="222" type="curve" smooth="yes"/>
      <point x="53" y="216"/>
      <point x="77" y="203"/>
      <point x="94" y="195" type="curve" smooth="yes"/>
    </contour>
  </outline>
</glyph>
<glyph name="equal" format="2">
  <advance width="566"/>
  <unicode hex="003D"/>
  <note>
equal
</note>
  <outline>
    <contour>
      <point x="64" y="314" type="curve" smooth="yes"/>
      <point x="484" y="314" type="line" smooth="yes"/>
      <point x="500" y="314"/>
      <point x="516" y="339"/>
      <point x="516" y="353" type="curve" smooth="yes"/>
      <point x="516" y="359"/>
      <point x="508" y="364"/>
      <point x="502" y="364" type="curve" smooth="yes"/>
      <point x="74" y="364" type="line" smooth="yes"/>
      <point x="56" y="364"/>
      <point x="50" y="335"/>
      <point x="50" y="326" type="curve" smooth="yes"/>
      <point x="50" y="320"/>
      <point x="57" y="314"/>
    </contour>
    <contour>
      <point x="64" y="143" type="curve" smooth="yes"/>
      <point x="484" y="143" type="line" smooth="yes"/>
      <point x="500" y="143"/>
      <point x="516" y="164"/>
      <point x="516" y="182" type="curve" smooth="yes"/>
      <point x="516" y="188"/>
      <point x="508" y="193"/>
      <point x="502" y="193" type="curve" smooth="yes"/>
      <point x="74" y="193" type="line" smooth="yes"/>
      <point x="56" y="193"/>
      <point x="50" y="164"/>
      <point x="50" y="155" type="curve" smooth="yes"/>
      <point x="50" y="149"/>
      <point x="57" y="143"/>
    </contour>
  </outline>
</glyph>
<glyph name="question" format="2">
  <advance width="376"/>
  <unicode hex="003F"/>
  <note>
question
</note>
  <outline>
    <contour>
      <point x="136" y="181" type="curve" smooth="yes"/>
      <point x="146" y="181"/>
      <point x="151" y="194"/>
      <point x="151" y="204" type="curve" smooth="yes"/>
      <point x="152" y="236"/>
      <point x="155" y="265"/>
      <point x="183" y="283" type="curve" smooth="yes"/>
      <point x="215" y="304"/>
      <point x="225" y="310"/>
      <point x="269" y="334" type="curve" smooth="yes"/>
      <point x="289" y="345"/>
      <point x="311" y="369"/>
      <point x="311" y="418" type="curve" smooth="yes"/>
      <point x="311" y="469"/>
      <point x="274" y="555"/>
      <point x="218" y="611" type="curve" smooth="yes"/>
      <point x="185" y="644"/>
      <point x="143" y="661"/>
      <point x="110" y="661" type="curve" smooth="yes"/>
      <point x="93" y="661"/>
      <point x="70" y="644"/>
      <point x="70" y="625" type="curve" smooth="yes"/>
      <point x="70" y="598"/>
      <point x="91" y="569"/>
      <point x="112" y="569" type="curve" smooth="yes"/>
      <point x="122" y="569"/>
      <point x="129" y="570"/>
      <point x="136" y="571" type="curve" smooth="yes"/>
      <point x="143" y="572"/>
      <point x="150" y="573"/>
      <point x="159" y="573" type="curve" smooth="yes"/>
      <point x="227" y="572"/>
      <point x="260" y="524"/>
      <point x="260" y="458" type="curve" smooth="yes"/>
      <point x="260" y="429"/>
      <point x="227" y="401"/>
      <point x="199" y="387" type="curve" smooth="yes"/>
      <point x="136" y="355"/>
      <point x="98" y="331"/>
      <point x="98" y="297" type="curve" smooth="yes"/>
      <point x="98" y="252"/>
      <point x="108" y="231"/>
      <point x="114" y="210" type="curve" smooth="yes"/>
      <point x="118" y="194"/>
      <point x="129" y="181"/>
    </contour>
    <contour>
      <point x="150" y="-14" type="curve" smooth="yes"/>
      <point x="183" y="-14"/>
      <point x="210" y="13"/>
      <point x="210" y="46" type="curve" smooth="yes"/>
      <point x="210" y="79"/>
      <point x="183" y="106"/>
      <point x="150" y="106" type="curve" smooth="yes"/>
      <point x="117" y="106"/>
      <point x="90" y="79"/>
      <point x="90" y="46" type="curve" smooth="yes"/>
      <point x="90" y="13"/>
      <point x="117" y="-14"/>
    </contour>
  </outline>
</glyph>
<glyph name="A" format="2">
  <advance width="692"/>
  <unicode hex="0041"/>
  <note>
A
</note>
  <anchor x="335" y="-30" name="bottom.cap"/>
  <anchor x="363" y="675" name="top.cap"/>
  <outline>
    <contour>
      <point x="27" y="-5" type="curve" smooth="yes"/>
      <point x="60" y="-5"/>
      <point x="103" y="1"/>
      <point x="147" y="1" type="curve" smooth="yes"/>
      <point x="184" y="1"/>
      <point x="220" y="-1"/>
      <point x="238" y="-1" type="curve" smooth="yes"/>
      <point x="255" y="-1"/>
      <point x="267" y="2"/>
      <point x="267" y="10" type="curve" smooth="yes"/>
      <point x="267" y="19"/>
      <point x="257" y="24"/>
      <point x="234" y="30" type="curve" smooth="yes"/>
      <point x="202" y="38"/>
      <point x="176" y="58"/>
      <point x="176" y="87" type="curve" smooth="yes"/>
      <point x="176" y="100"/>
      <point x="208" y="205"/>
      <point x="217" y="231" type="curve" smooth="yes"/>
      <point x="222" y="245"/>
      <point x="228" y="249"/>
      <point x="234" y="249" type="curve" smooth="yes"/>
      <point x="423" y="249" type="line" smooth="yes"/>
      <point x="441" y="249"/>
      <point x="447" y="248"/>
      <point x="450" y="238" type="curve" smooth="yes"/>
      <point x="465" y="188"/>
      <point x="489" y="105"/>
      <point x="489" y="76" type="curve" smooth="yes"/>
      <point x="489" y="54"/>
      <point x="472" y="38"/>
      <point x="428" y="31" type="curve" smooth="yes"/>
      <point x="410" y="28"/>
      <point x="395" y="21"/>
      <point x="395" y="12" type="curve" smooth="yes"/>
      <point x="395" y="4"/>
      <point x="407" y="0"/>
      <point x="424" y="0" type="curve" smooth="yes"/>
      <point x="448" y="0"/>
      <point x="490" y="1"/>
      <point x="529" y="1" type="curve" smooth="yes"/>
      <point x="574" y="1"/>
      <point x="640" y="-5"/>
      <point x="668" y="-5" type="curve" smooth="yes"/>
      <point x="685" y="-5"/>
      <point x="697" y="-3"/>
      <point x="697" y="5" type="curve" smooth="yes"/>
      <point x="697" y="14"/>
      <point x="687" y="24"/>
      <point x="664" y="28" type="curve" smooth="yes"/>
      <point x="624" y="35"/>
      <point x="591" y="48"/>
      <point x="563" y="128" type="curve" smooth="yes"/>
      <point x="530" y="223"/>
      <point x="449" y="459"/>
      <point x="385" y="662" type="curve" smooth="yes"/>
      <point x="382" y="670"/>
      <point x="381" y="678"/>
      <point x="378" y="684" type="curve"/>
      <point x="377" y="686"/>
      <point x="374" y="686"/>
      <point x="373" y="685" type="curve"/>
      <point x="369" y="679"/>
      <point x="366" y="659"/>
      <point x="354" y="651" type="curve" smooth="yes"/>
      <point x="342" y="643"/>
      <point x="330" y="640"/>
      <point x="318" y="636" type="curve"/>
      <point x="316" y="615"/>
      <point x="311" y="597"/>
      <point x="304" y="578" type="curve" smooth="yes"/>
      <point x="236" y="393"/>
      <point x="192" y="279"/>
      <point x="117" y="108" type="curve" smooth="yes"/>
      <point x="95" y="58"/>
      <point x="65" y="41"/>
      <point x="31" y="31" type="curve" smooth="yes"/>
      <point x="9" y="24"/>
      <point x="-2" y="17"/>
      <point x="-2" y="8" type="curve" smooth="yes"/>
      <point x="-2" y="0"/>
      <point x="10" y="-5"/>
    </contour>
    <contour>
      <point x="261" y="282" type="line" smooth="yes"/>
      <point x="248" y="282"/>
      <point x="240" y="282"/>
      <point x="240" y="289" type="curve" smooth="yes"/>
      <point x="240" y="291"/>
      <point x="241" y="294"/>
      <point x="242" y="297" type="curve"/>
      <point x="333" y="542" type="line" smooth="yes"/>
      <point x="337" y="553"/>
      <point x="339" y="559"/>
      <point x="341" y="559" type="curve" smooth="yes"/>
      <point x="344" y="559"/>
      <point x="346" y="553"/>
      <point x="350" y="541" type="curve" smooth="yes"/>
      <point x="428" y="297" type="line"/>
      <point x="429" y="293"/>
      <point x="430" y="289"/>
      <point x="430" y="287" type="curve" smooth="yes"/>
      <point x="430" y="282"/>
      <point x="426" y="282"/>
      <point x="416" y="282" type="curve" smooth="yes"/>
    </contour>
  </outline>
</glyph>
<glyph name="B" format="2">
  <advance width="587"/>
  <unicode hex="0042"/>
  <note>
B
</note>
  <anchor x="266" y="-30" name="bottom.cap"/>
  <anchor x="258" y="675" name="top.cap"/>
  <outline>
    <contour>
      <point x="48" y="-5" type="curve" smooth="yes"/>
      <point x="106" y="-5"/>
      <point x="126" y="0"/>
      <point x="178" y="0" type="curve" smooth="yes"/>
      <point x="218" y="0"/>
      <point x="255" y="-4"/>
      <point x="273" y="-4" type="curve" smooth="yes"/>
      <point x="349" y="-4"/>
      <point x="401" y="9"/>
      <point x="443" y="30" type="curve" smooth="yes"/>
      <point x="484" y="51"/>
      <point x="547" y="84"/>
      <point x="547" y="194" type="curve" smooth="yes"/>
      <point x="547" y="310"/>
      <point x="465" y="339"/>
      <point x="405" y="359" type="curve" smooth="yes"/>
      <point x="399" y="361"/>
      <point x="400" y="367"/>
      <point x="405" y="369" type="curve" smooth="yes"/>
      <point x="438" y="382"/>
      <point x="451" y="391"/>
      <point x="472" y="412" type="curve" smooth="yes"/>
      <point x="487" y="427"/>
      <point x="506" y="463"/>
      <point x="506" y="508" type="curve" smooth="yes"/>
      <point x="506" y="617"/>
      <point x="430" y="657"/>
      <point x="274" y="657" type="curve" smooth="yes"/>
      <point x="216" y="657"/>
      <point x="201" y="652"/>
      <point x="163" y="652" type="curve" smooth="yes"/>
      <point x="122" y="652"/>
      <point x="113" y="653"/>
      <point x="59" y="653" type="curve" smooth="yes"/>
      <point x="42" y="653"/>
      <point x="30" y="650"/>
      <point x="30" y="642" type="curve" smooth="yes"/>
      <point x="30" y="633"/>
      <point x="40" y="624"/>
      <point x="63" y="622" type="curve" smooth="yes"/>
      <point x="112" y="618"/>
      <point x="130" y="597"/>
      <point x="130" y="549" type="curve" smooth="yes"/>
      <point x="130" y="99" type="line" smooth="yes"/>
      <point x="130" y="51"/>
      <point x="102" y="33"/>
      <point x="52" y="24" type="curve" smooth="yes"/>
      <point x="29" y="20"/>
      <point x="19" y="15"/>
      <point x="19" y="6" type="curve" smooth="yes"/>
      <point x="19" y="-2"/>
      <point x="31" y="-5"/>
    </contour>
    <contour>
      <point x="287" y="37" type="curve" smooth="yes"/>
      <point x="236" y="37"/>
      <point x="208" y="52"/>
      <point x="208" y="108" type="curve" smooth="yes"/>
      <point x="208" y="307" type="line" smooth="yes"/>
      <point x="208" y="320"/>
      <point x="222" y="343"/>
      <point x="265" y="343" type="curve" smooth="yes"/>
      <point x="325" y="343"/>
      <point x="361" y="328"/>
      <point x="379" y="318" type="curve" smooth="yes"/>
      <point x="406" y="303"/>
      <point x="453" y="266"/>
      <point x="453" y="189" type="curve" smooth="yes"/>
      <point x="453" y="103"/>
      <point x="375" y="37"/>
    </contour>
    <contour>
      <point x="254" y="371" type="curve" smooth="yes"/>
      <point x="238" y="371"/>
      <point x="208" y="373"/>
      <point x="208" y="408" type="curve" smooth="yes"/>
      <point x="208" y="582" type="line" smooth="yes"/>
      <point x="208" y="612"/>
      <point x="219" y="627"/>
      <point x="274" y="627" type="curve" smooth="yes"/>
      <point x="397" y="627"/>
      <point x="420" y="552"/>
      <point x="420" y="495" type="curve" smooth="yes"/>
      <point x="420" y="437"/>
      <point x="389" y="408"/>
      <point x="375" y="400" type="curve" smooth="yes"/>
      <point x="334" y="377"/>
      <point x="290" y="371"/>
    </contour>
  </outline>
</glyph>
<glyph name="C" format="2">
  <advance width="710"/>
  <unicode hex="0043"/>
  <anchor x="392" y="-30" name="bottom.cap"/>
  <anchor x="401" y="675" name="top.cap"/>
  <note>
C
</note>
  <outline>
    <contour>
      <point x="407" y="-15" type="curve" smooth="yes"/>
      <point x="472" y="-15"/>
      <point x="547" y="-6"/>
      <point x="596" y="14" type="curve" smooth="yes"/>
      <point x="617" y="21"/>
      <point x="618" y="22"/>
      <point x="628" y="41" type="curve" smooth="yes"/>
      <point x="640" y="70"/>
      <point x="655" y="122"/>
      <point x="655" y="138" type="curve" smooth="yes"/>
      <point x="655" y="159"/>
      <point x="630" y="158"/>
      <point x="621" y="141" type="curve" smooth="yes"/>
      <point x="577" y="62"/>
      <point x="518" y="16"/>
      <point x="422" y="16" type="curve" smooth="yes"/>
      <point x="256" y="16"/>
      <point x="147" y="184"/>
      <point x="147" y="347" type="curve" smooth="yes"/>
      <point x="147" y="494"/>
      <point x="259" y="632"/>
      <point x="415" y="632" type="curve" smooth="yes"/>
      <point x="470" y="632"/>
      <point x="519" y="620"/>
      <point x="552" y="598" type="curve" smooth="yes"/>
      <point x="587" y="574"/>
      <point x="601" y="538"/>
      <point x="614" y="487" type="curve" smooth="yes"/>
      <point x="620" y="464"/>
      <point x="649" y="473"/>
      <point x="648" y="488" type="curve" smooth="yes"/>
      <point x="646" y="540"/>
      <point x="642" y="572"/>
      <point x="639" y="603" type="curve" smooth="yes"/>
      <point x="637" y="621"/>
      <point x="630" y="632"/>
      <point x="610" y="637" type="curve" smooth="yes"/>
      <point x="542" y="654"/>
      <point x="509" y="663"/>
      <point x="432" y="663" type="curve" smooth="yes"/>
      <point x="227" y="663"/>
      <point x="46" y="517"/>
      <point x="46" y="323" type="curve" smooth="yes"/>
      <point x="46" y="119"/>
      <point x="220" y="-15"/>
    </contour>
  </outline>
</glyph>
<glyph name="D" format="2">
  <advance width="754"/>
  <unicode hex="0044"/>
  <anchor x="363" y="-30" name="bottom.cap"/>
  <anchor x="364" y="675" name="top.cap"/>
  <note>
D
</note>
  <outline>
    <contour>
      <point x="371" y="-7" type="curve" smooth="yes"/>
      <point x="562" y="-7"/>
      <point x="719" y="150"/>
      <point x="719" y="342" type="curve" smooth="yes"/>
      <point x="719" y="517"/>
      <point x="611" y="659"/>
      <point x="340" y="659" type="curve" smooth="yes"/>
      <point x="313" y="659"/>
      <point x="212" y="651"/>
      <point x="169" y="651" type="curve" smooth="yes"/>
      <point x="121" y="651"/>
      <point x="109" y="653"/>
      <point x="58" y="653" type="curve" smooth="yes"/>
      <point x="41" y="653"/>
      <point x="29" y="649"/>
      <point x="29" y="640" type="curve" smooth="yes"/>
      <point x="29" y="629"/>
      <point x="39" y="626"/>
      <point x="62" y="622" type="curve" smooth="yes"/>
      <point x="112" y="613"/>
      <point x="129" y="597"/>
      <point x="129" y="549" type="curve" smooth="yes"/>
      <point x="129" y="99" type="line" smooth="yes"/>
      <point x="129" y="51"/>
      <point x="112" y="33"/>
      <point x="62" y="24" type="curve" smooth="yes"/>
      <point x="39" y="20"/>
      <point x="29" y="19"/>
      <point x="29" y="8" type="curve" smooth="yes"/>
      <point x="29" y="-2"/>
      <point x="41" y="-5"/>
      <point x="58" y="-5" type="curve" smooth="yes"/>
      <point x="111" y="-5"/>
      <point x="123" y="0"/>
      <point x="163" y="0" type="curve" smooth="yes"/>
      <point x="242" y="0"/>
      <point x="351" y="-7"/>
    </contour>
    <contour>
      <point x="359" y="28" type="curve" smooth="yes"/>
      <point x="284" y="28"/>
      <point x="209" y="40"/>
      <point x="209" y="121" type="curve" smooth="yes"/>
      <point x="209" y="567" type="line" smooth="yes"/>
      <point x="209" y="627"/>
      <point x="258" y="628"/>
      <point x="345" y="628" type="curve" smooth="yes"/>
      <point x="482" y="628"/>
      <point x="624" y="517"/>
      <point x="624" y="325" type="curve" smooth="yes"/>
      <point x="624" y="151"/>
      <point x="515" y="28"/>
    </contour>
  </outline>
</glyph>
<glyph name="E" format="2">
  <advance width="564"/>
  <unicode hex="0045"/>
  <note>
E
</note>
  <anchor x="293" y="-30" name="bottom.cap"/>
  <anchor x="298" y="675" name="top.cap"/>
  <outline>
    <contour>
      <point x="66" y="-5" type="curve" smooth="yes"/>
      <point x="120" y="-5"/>
      <point x="136" y="1"/>
      <point x="181" y="1" type="curve" smooth="yes"/>
      <point x="281" y="1"/>
      <point x="366" y="-5"/>
      <point x="494" y="-5" type="curve" smooth="yes"/>
      <point x="502" y="-5"/>
      <point x="504" y="3"/>
      <point x="508" y="12" type="curve" smooth="yes"/>
      <point x="520" y="39"/>
      <point x="539" y="110"/>
      <point x="539" y="128" type="curve" smooth="yes"/>
      <point x="539" y="136"/>
      <point x="535" y="141"/>
      <point x="528" y="142" type="curve" smooth="yes"/>
      <point x="521" y="143"/>
      <point x="516" y="137"/>
      <point x="512" y="129" type="curve" smooth="yes"/>
      <point x="491" y="89"/>
      <point x="476" y="66"/>
      <point x="455" y="52" type="curve" smooth="yes"/>
      <point x="434" y="39"/>
      <point x="407" y="35"/>
      <point x="364" y="35" type="curve" smooth="yes"/>
      <point x="290" y="35" type="line" smooth="yes"/>
      <point x="245" y="35"/>
      <point x="224" y="51"/>
      <point x="224" y="102" type="curve" smooth="yes"/>
      <point x="224" y="294" type="line" smooth="yes"/>
      <point x="224" y="317"/>
      <point x="235" y="320"/>
      <point x="258" y="320" type="curve" smooth="yes"/>
      <point x="351" y="320" type="line" smooth="yes"/>
      <point x="377" y="320"/>
      <point x="389" y="306"/>
      <point x="397" y="275" type="curve" smooth="yes"/>
      <point x="402" y="254"/>
      <point x="410" y="243"/>
      <point x="420" y="243" type="curve" smooth="yes"/>
      <point x="428" y="243"/>
      <point x="429" y="251"/>
      <point x="429" y="260" type="curve" smooth="yes"/>
      <point x="429" y="268"/>
      <point x="427" y="317"/>
      <point x="427" y="337" type="curve" smooth="yes"/>
      <point x="427" y="353"/>
      <point x="430" y="398"/>
      <point x="430" y="407" type="curve" smooth="yes"/>
      <point x="430" y="417"/>
      <point x="422" y="423"/>
      <point x="417" y="423" type="curve" smooth="yes"/>
      <point x="409" y="423"/>
      <point x="403" y="416"/>
      <point x="399" y="401" type="curve" smooth="yes"/>
      <point x="389" y="364"/>
      <point x="380" y="352"/>
      <point x="341" y="352" type="curve" smooth="yes"/>
      <point x="242" y="352" type="line" smooth="yes"/>
      <point x="232" y="352"/>
      <point x="224" y="362"/>
      <point x="224" y="374" type="curve" smooth="yes"/>
      <point x="224" y="586" type="line" smooth="yes"/>
      <point x="224" y="605"/>
      <point x="249" y="618"/>
      <point x="260" y="618" type="curve" smooth="yes"/>
      <point x="391" y="618" type="line" smooth="yes"/>
      <point x="416" y="618"/>
      <point x="439" y="612"/>
      <point x="458" y="591" type="curve" smooth="yes"/>
      <point x="467" y="581"/>
      <point x="473" y="558"/>
      <point x="480" y="536" type="curve" smooth="yes"/>
      <point x="482" y="529"/>
      <point x="484" y="526"/>
      <point x="491" y="526" type="curve" smooth="yes"/>
      <point x="497" y="526"/>
      <point x="505" y="529"/>
      <point x="505" y="541" type="curve" smooth="yes"/>
      <point x="505" y="568"/>
      <point x="497" y="606"/>
      <point x="490" y="644" type="curve"/>
      <point x="489" y="651"/>
      <point x="479" y="653"/>
      <point x="472" y="653" type="curve" smooth="yes"/>
      <point x="467" y="653"/>
      <point x="432" y="652"/>
      <point x="387" y="651" type="curve" smooth="yes"/>
      <point x="345" y="651"/>
      <point x="294" y="650"/>
      <point x="250" y="650" type="curve" smooth="yes"/>
      <point x="180" y="650"/>
      <point x="148" y="653"/>
      <point x="73" y="653" type="curve" smooth="yes"/>
      <point x="56" y="653"/>
      <point x="44" y="650"/>
      <point x="44" y="642" type="curve" smooth="yes"/>
      <point x="44" y="633"/>
      <point x="54" y="626"/>
      <point x="77" y="622" type="curve" smooth="yes"/>
      <point x="127" y="613"/>
      <point x="144" y="597"/>
      <point x="144" y="549" type="curve" smooth="yes"/>
      <point x="144" y="99" type="line" smooth="yes"/>
      <point x="144" y="51"/>
      <point x="120" y="33"/>
      <point x="70" y="24" type="curve" smooth="yes"/>
      <point x="47" y="20"/>
      <point x="37" y="15"/>
      <point x="37" y="6" type="curve" smooth="yes"/>
      <point x="37" y="-2"/>
      <point x="49" y="-5"/>
    </contour>
  </outline>
</glyph>
<glyph name="G" format="2">
  <advance width="729"/>
  <unicode hex="0047"/>
  <anchor x="399" y="-30" name="bottom.cap"/>
  <anchor x="403" y="675" name="top"/>
  <anchor x="413" y="675" name="top.cap"/>
  <note>
G
</note>
  <outline>
    <contour>
      <point x="392" y="-14" type="curve" smooth="yes"/>
      <point x="519" y="-14"/>
      <point x="610" y="50"/>
      <point x="630" y="53" type="curve" smooth="yes"/>
      <point x="644" y="55"/>
      <point x="644" y="67"/>
      <point x="644" y="72" type="curve" smooth="yes"/>
      <point x="644" y="77"/>
      <point x="635" y="82"/>
      <point x="631" y="89" type="curve"/>
      <point x="628" y="95"/>
      <point x="625" y="98"/>
      <point x="625" y="105" type="curve" smooth="yes"/>
      <point x="625" y="132" type="line" smooth="yes"/>
      <point x="625" y="157"/>
      <point x="626" y="178"/>
      <point x="630" y="207" type="curve" smooth="yes"/>
      <point x="634" y="234"/>
      <point x="643" y="248"/>
      <point x="672" y="256" type="curve"/>
      <point x="677" y="257"/>
      <point x="693" y="265"/>
      <point x="693" y="274" type="curve" smooth="yes"/>
      <point x="693" y="287"/>
      <point x="677" y="290"/>
      <point x="672" y="290" type="curve" smooth="yes"/>
      <point x="636" y="290"/>
      <point x="618" y="286"/>
      <point x="583" y="286" type="curve" smooth="yes"/>
      <point x="528" y="286"/>
      <point x="506" y="290"/>
      <point x="457" y="290" type="curve" smooth="yes"/>
      <point x="452" y="290"/>
      <point x="437" y="283"/>
      <point x="437" y="273" type="curve" smooth="yes"/>
      <point x="437" y="263"/>
      <point x="452" y="256"/>
      <point x="457" y="256" type="curve" smooth="yes"/>
      <point x="477" y="256"/>
      <point x="538" y="247"/>
      <point x="555" y="225" type="curve" smooth="yes"/>
      <point x="559" y="220"/>
      <point x="560" y="209"/>
      <point x="560" y="195" type="curve" smooth="yes"/>
      <point x="560" y="177"/>
      <point x="558" y="154"/>
      <point x="558" y="137" type="curve" smooth="yes"/>
      <point x="558" y="102"/>
      <point x="543" y="75"/>
      <point x="528" y="60" type="curve" smooth="yes"/>
      <point x="516" y="48"/>
      <point x="483" y="23"/>
      <point x="406" y="23" type="curve" smooth="yes"/>
      <point x="273" y="23"/>
      <point x="144" y="134"/>
      <point x="144" y="324" type="curve" smooth="yes"/>
      <point x="144" y="482"/>
      <point x="249" y="625"/>
      <point x="404" y="625" type="curve" smooth="yes"/>
      <point x="499" y="625"/>
      <point x="550" y="588"/>
      <point x="563" y="572" type="curve" smooth="yes"/>
      <point x="579" y="553"/>
      <point x="586" y="540"/>
      <point x="594" y="519" type="curve"/>
      <point x="598" y="507"/>
      <point x="603" y="492"/>
      <point x="617" y="492" type="curve" smooth="yes"/>
      <point x="625" y="492"/>
      <point x="632" y="502"/>
      <point x="632" y="512" type="curve" smooth="yes"/>
      <point x="632" y="538"/>
      <point x="627" y="579"/>
      <point x="622" y="618" type="curve" smooth="yes"/>
      <point x="621" y="625"/>
      <point x="619" y="627"/>
      <point x="613" y="630" type="curve" smooth="yes"/>
      <point x="586" y="643"/>
      <point x="459" y="663"/>
      <point x="413" y="663" type="curve" smooth="yes"/>
      <point x="214" y="663"/>
      <point x="45" y="509"/>
      <point x="45" y="311" type="curve" smooth="yes"/>
      <point x="45" y="126"/>
      <point x="207" y="-14"/>
    </contour>
  </outline>
</glyph>
<glyph name="J" format="2">
  <advance width="340"/>
  <unicode hex="004A"/>
  <note>
J
</note>
  <anchor x="164" y="675" name="top.cap"/>
  <outline>
    <contour>
      <point x="34" y="-200" type="curve" smooth="yes"/>
      <point x="73" y="-200"/>
      <point x="104" y="-178"/>
      <point x="131" y="-146" type="curve" smooth="yes"/>
      <point x="163" y="-108"/>
      <point x="210" y="-37"/>
      <point x="210" y="47" type="curve" smooth="yes"/>
      <point x="210" y="551" type="line" smooth="yes"/>
      <point x="210" y="597"/>
      <point x="217" y="613"/>
      <point x="267" y="622" type="curve" smooth="yes"/>
      <point x="290" y="626"/>
      <point x="300" y="633"/>
      <point x="300" y="642" type="curve" smooth="yes"/>
      <point x="300" y="650"/>
      <point x="288" y="653"/>
      <point x="271" y="653" type="curve" smooth="yes"/>
      <point x="217" y="653"/>
      <point x="214" y="650"/>
      <point x="177" y="650" type="curve" smooth="yes"/>
      <point x="131" y="650"/>
      <point x="114" y="653"/>
      <point x="60" y="653" type="curve" smooth="yes"/>
      <point x="43" y="653"/>
      <point x="31" y="650"/>
      <point x="31" y="642" type="curve" smooth="yes"/>
      <point x="31" y="633"/>
      <point x="42" y="626"/>
      <point x="64" y="622" type="curve" smooth="yes"/>
      <point x="112" y="613"/>
      <point x="130" y="597"/>
      <point x="130" y="551" type="curve" smooth="yes"/>
      <point x="130" y="-1" type="line" smooth="yes"/>
      <point x="130" y="-98"/>
      <point x="111" y="-159"/>
      <point x="64" y="-159" type="curve" smooth="yes"/>
      <point x="47" y="-159"/>
      <point x="34" y="-151"/>
      <point x="17" y="-129" type="curve" smooth="yes"/>
      <point x="3" y="-111"/>
      <point x="-13" y="-104"/>
      <point x="-30" y="-104" type="curve" smooth="yes"/>
      <point x="-45" y="-104"/>
      <point x="-69" y="-128"/>
      <point x="-69" y="-151" type="curve" smooth="yes"/>
      <point x="-69" y="-182"/>
      <point x="-34" y="-200"/>
    </contour>
  </outline>
</glyph>
<glyph name="N" format="2">
  <advance width="792"/>
  <unicode hex="004E"/>
  <note>
N
</note>
  <anchor x="415" y="-30" name="bottom.cap"/>
  <anchor x="406" y="675" name="top.cap"/>
  <outline>
    <contour>
      <point x="668" y="-17" type="curve" smooth="yes"/>
      <point x="678" y="-17"/>
      <point x="689" y="-13"/>
      <point x="689" y="8" type="curve" smooth="yes"/>
      <point x="689" y="21"/>
      <point x="684" y="57"/>
      <point x="684" y="105" type="curve" smooth="yes"/>
      <point x="684" y="263"/>
      <point x="685" y="550"/>
      <point x="686" y="568" type="curve" smooth="yes"/>
      <point x="688" y="601"/>
      <point x="699" y="613"/>
      <point x="749" y="622" type="curve" smooth="yes"/>
      <point x="772" y="626"/>
      <point x="782" y="633"/>
      <point x="782" y="642" type="curve" smooth="yes"/>
      <point x="782" y="650"/>
      <point x="770" y="653"/>
      <point x="753" y="653" type="curve" smooth="yes"/>
      <point x="692" y="653"/>
      <point x="686" y="650"/>
      <point x="638" y="650" type="curve" smooth="yes"/>
      <point x="619" y="650"/>
      <point x="600" y="650"/>
      <point x="581" y="650" type="curve" smooth="yes"/>
      <point x="564" y="650"/>
      <point x="540" y="647"/>
      <point x="540" y="639" type="curve" smooth="yes"/>
      <point x="540" y="630"/>
      <point x="562" y="623"/>
      <point x="585" y="619" type="curve" smooth="yes"/>
      <point x="607" y="615"/>
      <point x="642" y="590"/>
      <point x="643" y="564" type="curve"/>
      <point x="643" y="381"/>
      <point x="642" y="195"/>
      <point x="641" y="157" type="curve"/>
      <point x="640" y="142"/>
      <point x="636" y="136"/>
      <point x="631" y="136" type="curve" smooth="yes"/>
      <point x="623" y="136"/>
      <point x="611" y="150"/>
      <point x="606" y="156" type="curve" smooth="yes"/>
      <point x="586" y="180"/>
      <point x="232" y="609"/>
      <point x="213" y="636" type="curve"/>
      <point x="206" y="645"/>
      <point x="201" y="653"/>
      <point x="189" y="653" type="curve" smooth="yes"/>
      <point x="117" y="653"/>
      <point x="113" y="656"/>
      <point x="35" y="658" type="curve" smooth="yes"/>
      <point x="28" y="658"/>
      <point x="12" y="656"/>
      <point x="12" y="644" type="curve" smooth="yes"/>
      <point x="12" y="632"/>
      <point x="37" y="622"/>
      <point x="43" y="620" type="curve" smooth="yes"/>
      <point x="102" y="601"/>
      <point x="142" y="578"/>
      <point x="142" y="507" type="curve" smooth="yes"/>
      <point x="142" y="342"/>
      <point x="132" y="182"/>
      <point x="124" y="107" type="curve" smooth="yes"/>
      <point x="120" y="66"/>
      <point x="104" y="35"/>
      <point x="66" y="25" type="curve" smooth="yes"/>
      <point x="43" y="19"/>
      <point x="33" y="15"/>
      <point x="33" y="6" type="curve" smooth="yes"/>
      <point x="33" y="-2"/>
      <point x="45" y="-5"/>
      <point x="62" y="-5" type="curve" smooth="yes"/>
      <point x="116" y="-5"/>
      <point x="117" y="0"/>
      <point x="153" y="0" type="curve" smooth="yes"/>
      <point x="190" y="0"/>
      <point x="193" y="-5"/>
      <point x="247" y="-5" type="curve" smooth="yes"/>
      <point x="264" y="-5"/>
      <point x="276" y="-2"/>
      <point x="276" y="6" type="curve" smooth="yes"/>
      <point x="276" y="15"/>
      <point x="266" y="20"/>
      <point x="243" y="24" type="curve" smooth="yes"/>
      <point x="193" y="33"/>
      <point x="179" y="68"/>
      <point x="179" y="104" type="curve" smooth="yes"/>
      <point x="179" y="227"/>
      <point x="182" y="380"/>
      <point x="184" y="479" type="curve" smooth="yes"/>
      <point x="184" y="487"/>
      <point x="186" y="500"/>
      <point x="193" y="500" type="curve" smooth="yes"/>
      <point x="198" y="500"/>
      <point x="204" y="496"/>
      <point x="214" y="484" type="curve" smooth="yes"/>
      <point x="237" y="456"/>
      <point x="564" y="71"/>
      <point x="582" y="46" type="curve" smooth="yes"/>
      <point x="614" y="2"/>
      <point x="656" y="-17"/>
    </contour>
  </outline>
</glyph>
<glyph name="O" format="2">
  <advance width="763"/>
  <unicode hex="004F"/>
  <note>
O
</note>
  <anchor x="372" y="-30" name="bottom.cap"/>
  <anchor x="391" y="675" name="top.cap"/>
  <outline>
    <contour>
      <point x="377" y="-14" type="curve" smooth="yes"/>
      <point x="599" y="-14"/>
      <point x="718" y="155"/>
      <point x="718" y="335" type="curve" smooth="yes"/>
      <point x="718" y="532"/>
      <point x="562" y="664"/>
      <point x="386" y="664" type="curve" smooth="yes"/>
      <point x="164" y="664"/>
      <point x="45" y="495"/>
      <point x="45" y="315" type="curve" smooth="yes"/>
      <point x="45" y="118"/>
      <point x="201" y="-14"/>
    </contour>
    <contour>
      <point x="392" y="26" type="curve" smooth="yes"/>
      <point x="225" y="26"/>
      <point x="141" y="179"/>
      <point x="141" y="365" type="curve" smooth="yes"/>
      <point x="141" y="521"/>
      <point x="219" y="622"/>
      <point x="370" y="622" type="curve" smooth="yes"/>
      <point x="537" y="622"/>
      <point x="622" y="471"/>
      <point x="622" y="286" type="curve" smooth="yes"/>
      <point x="622" y="129"/>
      <point x="545" y="26"/>
    </contour>
  </outline>
</glyph>
<glyph name="P" format="2">
  <advance width="552"/>
  <unicode hex="0050"/>
  <note>
P
</note>
  <anchor x="180" y="-30" name="bottom.cap"/>
  <anchor x="286" y="675" name="top.cap"/>
  <outline>
    <contour>
      <point x="53" y="-5" type="curve" smooth="yes"/>
      <point x="107" y="-5"/>
      <point x="132" y="2"/>
      <point x="183" y="2" type="curve" smooth="yes"/>
      <point x="221" y="2"/>
      <point x="227" y="-5"/>
      <point x="281" y="-5" type="curve" smooth="yes"/>
      <point x="298" y="-5"/>
      <point x="310" y="-2"/>
      <point x="310" y="6" type="curve" smooth="yes"/>
      <point x="310" y="15"/>
      <point x="300" y="20"/>
      <point x="277" y="24" type="curve" smooth="yes"/>
      <point x="227" y="33"/>
      <point x="210" y="63"/>
      <point x="210" y="111" type="curve" smooth="yes"/>
      <point x="210" y="588" type="line" smooth="yes"/>
      <point x="210" y="618"/>
      <point x="236" y="630"/>
      <point x="274" y="630" type="curve" smooth="yes"/>
      <point x="371" y="630"/>
      <point x="441" y="579"/>
      <point x="441" y="473" type="curve" smooth="yes"/>
      <point x="441" y="355"/>
      <point x="400" y="285"/>
      <point x="320" y="285" type="curve" smooth="yes"/>
      <point x="293" y="285"/>
      <point x="280" y="287"/>
      <point x="274" y="287" type="curve" smooth="yes"/>
      <point x="267" y="287"/>
      <point x="258" y="278"/>
      <point x="258" y="273" type="curve" smooth="yes"/>
      <point x="258" y="265"/>
      <point x="274" y="254"/>
      <point x="303" y="254" type="curve" smooth="yes"/>
      <point x="456" y="254"/>
      <point x="527" y="357"/>
      <point x="527" y="480" type="curve" smooth="yes"/>
      <point x="527" y="592"/>
      <point x="426" y="658"/>
      <point x="274" y="658" type="curve" smooth="yes"/>
      <point x="246" y="658"/>
      <point x="203" y="652"/>
      <point x="163" y="652" type="curve" smooth="yes"/>
      <point x="122" y="652"/>
      <point x="119" y="653"/>
      <point x="65" y="653" type="curve" smooth="yes"/>
      <point x="48" y="653"/>
      <point x="36" y="650"/>
      <point x="36" y="642" type="curve" smooth="yes"/>
      <point x="36" y="633"/>
      <point x="46" y="626"/>
      <point x="69" y="622" type="curve" smooth="yes"/>
      <point x="119" y="613"/>
      <point x="130" y="582"/>
      <point x="130" y="522" type="curve" smooth="yes"/>
      <point x="130" y="100" type="line" smooth="yes"/>
      <point x="130" y="51"/>
      <point x="107" y="33"/>
      <point x="57" y="24" type="curve" smooth="yes"/>
      <point x="34" y="20"/>
      <point x="24" y="15"/>
      <point x="24" y="6" type="curve" smooth="yes"/>
      <point x="24" y="-2"/>
      <point x="36" y="-5"/>
    </contour>
  </outline>
</glyph>
<glyph name="S" format="2">
  <advance width="465"/>
  <unicode hex="0053"/>
  <anchor x="226" y="-30" name="bottom.cap"/>
  <anchor x="269" y="675" name="top.cap"/>
  <note>
S
</note>
  <outline>
    <contour>
      <point x="204" y="-16" type="curve" smooth="yes"/>
      <point x="335" y="-16"/>
      <point x="422" y="61"/>
      <point x="422" y="180" type="curve" smooth="yes"/>
      <point x="422" y="280"/>
      <point x="347" y="327"/>
      <point x="277" y="370" type="curve" smooth="yes"/>
      <point x="202" y="416"/>
      <point x="137" y="456"/>
      <point x="137" y="516" type="curve" smooth="yes"/>
      <point x="137" y="600"/>
      <point x="192" y="630"/>
      <point x="252" y="630" type="curve" smooth="yes"/>
      <point x="309" y="630"/>
      <point x="344" y="591"/>
      <point x="372" y="521" type="curve" smooth="yes"/>
      <point x="375" y="513"/>
      <point x="388" y="507"/>
      <point x="400" y="507" type="curve" smooth="yes"/>
      <point x="408" y="507"/>
      <point x="415" y="510"/>
      <point x="415" y="518" type="curve" smooth="yes"/>
      <point x="415" y="550"/>
      <point x="403" y="589"/>
      <point x="395" y="617" type="curve" smooth="yes"/>
      <point x="392" y="627"/>
      <point x="384" y="638"/>
      <point x="374" y="642" type="curve" smooth="yes"/>
      <point x="352" y="651"/>
      <point x="317" y="664"/>
      <point x="269" y="664" type="curve" smooth="yes"/>
      <point x="128" y="664"/>
      <point x="60" y="583"/>
      <point x="60" y="482" type="curve" smooth="yes"/>
      <point x="60" y="385"/>
      <point x="147" y="340"/>
      <point x="225" y="291" type="curve" smooth="yes"/>
      <point x="296" y="247"/>
      <point x="338" y="221"/>
      <point x="338" y="139" type="curve" smooth="yes"/>
      <point x="338" y="65"/>
      <point x="287" y="17"/>
      <point x="218" y="17" type="curve" smooth="yes"/>
      <point x="161" y="17"/>
      <point x="102" y="57"/>
      <point x="76" y="160" type="curve" smooth="yes"/>
      <point x="74" y="168"/>
      <point x="67" y="171"/>
      <point x="60" y="171" type="curve" smooth="yes"/>
      <point x="49" y="171"/>
      <point x="40" y="166"/>
      <point x="40" y="157" type="curve"/>
      <point x="42" y="129"/>
      <point x="43" y="79"/>
      <point x="50" y="52" type="curve" smooth="yes"/>
      <point x="52" y="44"/>
      <point x="58" y="37"/>
      <point x="63" y="32" type="curve"/>
      <point x="100" y="1"/>
      <point x="148" y="-16"/>
    </contour>
  </outline>
</glyph>
<glyph name="V" format="2">
  <advance width="672"/>
  <unicode hex="0056"/>
  <note>
V
</note>
  <guideline x="343" y="531" angle="90"/>
  <anchor x="298" y="-30" name="bottom.cap"/>
  <anchor x="339" y="675" name="top.cap"/>
  <outline>
    <contour>
      <point x="318" y="-12" type="curve" smooth="yes"/>
      <point x="322" y="-12"/>
      <point x="326" y="-9"/>
      <point x="328" y="-5" type="curve" smooth="yes"/>
      <point x="339" y="19"/>
      <point x="355" y="69"/>
      <point x="359" y="79" type="curve" smooth="yes"/>
      <point x="547" y="535" type="line" smooth="yes"/>
      <point x="562" y="571"/>
      <point x="596" y="611"/>
      <point x="645" y="622" type="curve" smooth="yes"/>
      <point x="668" y="627"/>
      <point x="678" y="633"/>
      <point x="678" y="642" type="curve" smooth="yes"/>
      <point x="678" y="650"/>
      <point x="666" y="653"/>
      <point x="649" y="653" type="curve" smooth="yes"/>
      <point x="623" y="653"/>
      <point x="574" y="650"/>
      <point x="535" y="650" type="curve" smooth="yes"/>
      <point x="497" y="650"/>
      <point x="462" y="651"/>
      <point x="436" y="651" type="curve" smooth="yes"/>
      <point x="419" y="651"/>
      <point x="407" y="648"/>
      <point x="407" y="640" type="curve" smooth="yes"/>
      <point x="407" y="631"/>
      <point x="420" y="623"/>
      <point x="440" y="620" type="curve" smooth="yes"/>
      <point x="483" y="614"/>
      <point x="514" y="585"/>
      <point x="487" y="514" type="curve" smooth="yes"/>
      <point x="350" y="154" type="line" smooth="yes"/>
      <point x="346" y="145"/>
      <point x="341" y="148"/>
      <point x="339" y="153" type="curve" smooth="yes"/>
      <point x="195" y="533" type="line"/>
      <point x="192" y="542"/>
      <point x="184" y="559"/>
      <point x="184" y="582" type="curve" smooth="yes"/>
      <point x="184" y="605"/>
      <point x="211" y="617"/>
      <point x="249" y="621" type="curve" smooth="yes"/>
      <point x="272" y="623"/>
      <point x="282" y="632"/>
      <point x="282" y="641" type="curve" smooth="yes"/>
      <point x="282" y="649"/>
      <point x="270" y="652"/>
      <point x="253" y="652" type="curve" smooth="yes"/>
      <point x="233" y="652"/>
      <point x="191" y="650"/>
      <point x="151" y="650" type="curve" smooth="yes"/>
      <point x="105" y="650"/>
      <point x="60" y="653"/>
      <point x="29" y="653" type="curve" smooth="yes"/>
      <point x="12" y="653"/>
      <point x="0" y="650"/>
      <point x="0" y="642" type="curve" smooth="yes"/>
      <point x="0" y="633"/>
      <point x="11" y="627"/>
      <point x="33" y="620" type="curve" smooth="yes"/>
      <point x="67" y="610"/>
      <point x="89" y="584"/>
      <point x="103" y="547" type="curve" smooth="yes"/>
      <point x="286" y="56" type="line" smooth="yes"/>
      <point x="292" y="38"/>
      <point x="301" y="9"/>
      <point x="307" y="-5" type="curve" smooth="yes"/>
      <point x="309" y="-10"/>
      <point x="314" y="-12"/>
    </contour>
  </outline>
</glyph>
<glyph name="Z" format="2">
  <advance width="603"/>
  <unicode hex="005A"/>
  <anchor x="302" y="-30" name="bottom.cap"/>
  <anchor x="315" y="675" name="top.cap"/>
  <note>
Z
</note>
  <outline>
    <contour>
      <point x="533" y="-5" type="curve" smooth="yes"/>
      <point x="543" y="-5"/>
      <point x="547" y="4"/>
      <point x="551" y="12" type="curve" smooth="yes"/>
      <point x="562" y="36"/>
      <point x="588" y="147"/>
      <point x="588" y="158" type="curve" smooth="yes"/>
      <point x="588" y="167"/>
      <point x="585" y="171"/>
      <point x="579" y="171" type="curve" smooth="yes"/>
      <point x="569" y="171"/>
      <point x="560" y="158"/>
      <point x="557" y="150" type="curve" smooth="yes"/>
      <point x="531" y="81"/>
      <point x="492" y="46"/>
      <point x="433" y="41" type="curve" smooth="yes"/>
      <point x="386" y="38"/>
      <point x="337" y="36"/>
      <point x="292" y="36" type="curve" smooth="yes"/>
      <point x="248" y="36"/>
      <point x="208" y="38"/>
      <point x="179" y="41" type="curve"/>
      <point x="172" y="42"/>
      <point x="168" y="50"/>
      <point x="168" y="58" type="curve" smooth="yes"/>
      <point x="168" y="62"/>
      <point x="169" y="67"/>
      <point x="171" y="70" type="curve" smooth="yes"/>
      <point x="295" y="262"/>
      <point x="371" y="364"/>
      <point x="509" y="550" type="curve" smooth="yes"/>
      <point x="570" y="631" type="line" smooth="yes"/>
      <point x="574" y="636"/>
      <point x="565" y="649"/>
      <point x="559" y="649" type="curve" smooth="yes"/>
      <point x="485" y="647"/>
      <point x="411" y="646"/>
      <point x="328" y="646" type="curve" smooth="yes"/>
      <point x="283" y="646"/>
      <point x="235" y="646"/>
      <point x="202" y="646" type="curve" smooth="yes"/>
      <point x="168" y="646"/>
      <point x="129" y="656"/>
      <point x="116" y="662" type="curve" smooth="yes"/>
      <point x="105" y="667"/>
      <point x="90" y="676"/>
      <point x="85" y="676" type="curve" smooth="yes"/>
      <point x="80" y="676"/>
      <point x="71" y="674"/>
      <point x="70" y="659" type="curve" smooth="yes"/>
      <point x="67" y="617"/>
      <point x="50" y="562"/>
      <point x="43" y="541" type="curve"/>
      <point x="40" y="533"/>
      <point x="36" y="522"/>
      <point x="36" y="514" type="curve" smooth="yes"/>
      <point x="36" y="508"/>
      <point x="39" y="503"/>
      <point x="45" y="503" type="curve" smooth="yes"/>
      <point x="60" y="503"/>
      <point x="68" y="523"/>
      <point x="73" y="535" type="curve"/>
      <point x="91" y="584"/>
      <point x="139" y="606"/>
      <point x="171" y="609" type="curve" smooth="yes"/>
      <point x="196" y="611"/>
      <point x="234" y="611"/>
      <point x="273" y="611" type="curve" smooth="yes"/>
      <point x="326" y="611"/>
      <point x="383" y="610"/>
      <point x="419" y="609" type="curve"/>
      <point x="434" y="608"/>
      <point x="438" y="605"/>
      <point x="438" y="601" type="curve" smooth="yes"/>
      <point x="438" y="598"/>
      <point x="436" y="596"/>
      <point x="434" y="593" type="curve" smooth="yes"/>
      <point x="306" y="401"/>
      <point x="222" y="290"/>
      <point x="86" y="104" type="curve" smooth="yes"/>
      <point x="63" y="73"/>
      <point x="28" y="21"/>
      <point x="28" y="11" type="curve"/>
      <point x="28" y="11"/>
      <point x="29" y="-3"/>
      <point x="35" y="-3" type="curve" smooth="yes"/>
      <point x="112" y="-3" type="line" smooth="yes"/>
      <point x="150" y="-3"/>
      <point x="191" y="-2"/>
      <point x="231" y="-2" type="curve" smooth="yes"/>
      <point x="320" y="-2"/>
      <point x="419" y="-5"/>
    </contour>
  </outline>
</glyph>
<glyph name="bracketleft" format="2">
  <advance width="331"/>
  <unicode hex="005B"/>
  <note>
bracketleft
</note>
  <outline>
    <contour>
      <point x="141" y="-200" type="curve" smooth="yes"/>
      <point x="285" y="-200" type="line" smooth="yes"/>
      <point x="297" y="-200"/>
      <point x="311" y="-197"/>
      <point x="311" y="-185" type="curve" smooth="yes"/>
      <point x="311" y="-173"/>
      <point x="298" y="-169"/>
      <point x="285" y="-167" type="curve"/>
      <point x="206" y="-154" type="line" smooth="yes"/>
      <point x="194" y="-152"/>
      <point x="183" y="-139"/>
      <point x="183" y="-121" type="curve" smooth="yes"/>
      <point x="183" y="642" type="line" smooth="yes"/>
      <point x="183" y="653"/>
      <point x="197" y="666"/>
      <point x="206" y="667" type="curve" smooth="yes"/>
      <point x="285" y="673" type="line" smooth="yes"/>
      <point x="298" y="674"/>
      <point x="311" y="678"/>
      <point x="311" y="688" type="curve" smooth="yes"/>
      <point x="311" y="698"/>
      <point x="302" y="701"/>
      <point x="293" y="701" type="curve" smooth="yes"/>
      <point x="148" y="702" type="line" smooth="yes"/>
      <point x="116" y="702"/>
      <point x="110" y="702"/>
      <point x="110" y="668" type="curve" smooth="yes"/>
      <point x="110" y="-175" type="line" smooth="yes"/>
      <point x="110" y="-199"/>
      <point x="118" y="-200"/>
    </contour>
  </outline>
</glyph>
<glyph name="backslash" format="2">
  <advance width="399"/>
  <unicode hex="005C"/>
  <note>
backslash
</note>
  <outline>
    <contour>
      <point x="362" y="-62" type="curve" smooth="yes"/>
      <point x="375" y="-62"/>
      <point x="382" y="-55"/>
      <point x="378" y="-47" type="curve" smooth="yes"/>
      <point x="81" y="648" type="line" smooth="yes"/>
      <point x="74" y="663"/>
      <point x="59" y="665"/>
      <point x="42" y="665" type="curve" smooth="yes"/>
      <point x="29" y="665"/>
      <point x="25" y="657"/>
      <point x="29" y="648" type="curve" smooth="yes"/>
      <point x="326" y="-47" type="line" smooth="yes"/>
      <point x="332" y="-61"/>
      <point x="347" y="-62"/>
    </contour>
  </outline>
</glyph>
<glyph name="asciicircum" format="2">
  <advance width="500"/>
  <unicode hex="005E"/>
  <note>
asciicircum
</note>
  <outline>
    <contour>
      <point x="57" y="284" type="curve" smooth="yes"/>
      <point x="69" y="284"/>
      <point x="90" y="291"/>
      <point x="98" y="303" type="curve" smooth="yes"/>
      <point x="244" y="514" type="line"/>
      <point x="248" y="520"/>
      <point x="249" y="520"/>
      <point x="254" y="514" type="curve"/>
      <point x="402" y="302" type="line" smooth="yes"/>
      <point x="408" y="293"/>
      <point x="428" y="284"/>
      <point x="443" y="284" type="curve" smooth="yes"/>
      <point x="452" y="284"/>
      <point x="454" y="297"/>
      <point x="449" y="305" type="curve"/>
      <point x="251" y="603" type="line"/>
      <point x="248" y="603" type="line"/>
      <point x="51" y="305" type="line"/>
      <point x="49" y="302"/>
      <point x="48" y="298"/>
      <point x="48" y="295" type="curve" smooth="yes"/>
      <point x="48" y="289"/>
      <point x="52" y="284"/>
    </contour>
  </outline>
</glyph>
<glyph name="underscore" format="2">
  <advance width="500"/>
  <unicode hex="005F"/>
  <note>
underscore
</note>
  <outline>
    <contour>
      <point x="487" y="-132" type="curve" smooth="yes"/>
      <point x="24" y="-132" type="line" smooth="yes"/>
      <point x="6" y="-132"/>
      <point x="0" y="-161"/>
      <point x="0" y="-170" type="curve" smooth="yes"/>
      <point x="0" y="-176"/>
      <point x="7" y="-182"/>
      <point x="14" y="-182" type="curve" smooth="yes"/>
      <point x="469" y="-182" type="line" smooth="yes"/>
      <point x="485" y="-182"/>
      <point x="501" y="-157"/>
      <point x="501" y="-143" type="curve" smooth="yes"/>
      <point x="501" y="-137"/>
      <point x="493" y="-132"/>
    </contour>
  </outline>
</glyph>
<glyph name="a" format="2">
  <advance width="399"/>
  <unicode hex="0061"/>
  <note>
a
</note>
  <anchor x="193" y="-14" name="bottom"/>
  <anchor x="201" y="440" name="top"/>
  <outline>
    <contour>
      <point x="117" y="-14" type="curve" smooth="yes"/>
      <point x="160" y="-14"/>
      <point x="198" y="2"/>
      <point x="242" y="38" type="curve"/>
      <point x="245" y="38" type="line"/>
      <point x="263" y="3"/>
      <point x="287" y="-14"/>
      <point x="318" y="-14" type="curve" smooth="yes"/>
      <point x="339" y="-14"/>
      <point x="366" y="0"/>
      <point x="387" y="21" type="curve" smooth="yes"/>
      <point x="393" y="27"/>
      <point x="398" y="37"/>
      <point x="398" y="43" type="curve" smooth="yes"/>
      <point x="398" y="49"/>
      <point x="393" y="54"/>
      <point x="387" y="54" type="curve" smooth="yes"/>
      <point x="385" y="54"/>
      <point x="383" y="53"/>
      <point x="379" y="49" type="curve" smooth="yes"/>
      <point x="370" y="41"/>
      <point x="359" y="38"/>
      <point x="342" y="38" type="curve" smooth="yes"/>
      <point x="320" y="38"/>
      <point x="305" y="57"/>
      <point x="306" y="85" type="curve" smooth="yes"/>
      <point x="311" y="325" type="line" smooth="yes"/>
      <point x="312" y="376"/>
      <point x="277" y="414"/>
      <point x="229" y="414" type="curve" smooth="yes"/>
      <point x="189" y="414"/>
      <point x="125" y="384"/>
      <point x="80" y="343" type="curve" smooth="yes"/>
      <point x="55" y="321"/>
      <point x="40" y="295"/>
      <point x="40" y="274" type="curve" smooth="yes"/>
      <point x="40" y="269"/>
      <point x="44" y="265"/>
      <point x="51" y="265" type="curve" smooth="yes"/>
      <point x="71" y="265"/>
      <point x="117" y="290"/>
      <point x="117" y="300" type="curve" smooth="yes"/>
      <point x="117" y="305"/>
      <point x="116" y="313"/>
      <point x="116" y="318" type="curve" smooth="yes"/>
      <point x="116" y="330"/>
      <point x="118" y="341"/>
      <point x="126" y="347" type="curve" smooth="yes"/>
      <point x="139" y="358"/>
      <point x="161" y="365"/>
      <point x="181" y="365" type="curve" smooth="yes"/>
      <point x="219" y="365"/>
      <point x="241" y="336"/>
      <point x="240" y="301" type="curve" smooth="yes"/>
      <point x="238" y="237" type="line" smooth="yes"/>
      <point x="237" y="210"/>
      <point x="236" y="208"/>
      <point x="210" y="197" type="curve" smooth="yes"/>
      <point x="108" y="155" type="line" smooth="yes"/>
      <point x="59" y="135"/>
      <point x="37" y="114"/>
      <point x="37" y="72" type="curve" smooth="yes"/>
      <point x="37" y="35"/>
      <point x="81" y="-14"/>
    </contour>
    <contour>
      <point x="164" y="34" type="curve" smooth="yes"/>
      <point x="140" y="34"/>
      <point x="115" y="52"/>
      <point x="115" y="87" type="curve" smooth="yes"/>
      <point x="115" y="110"/>
      <point x="138" y="138"/>
      <point x="209" y="164" type="curve" smooth="yes"/>
      <point x="220" y="168"/>
      <point x="226" y="169"/>
      <point x="229" y="169" type="curve" smooth="yes"/>
      <point x="237" y="169"/>
      <point x="239" y="163"/>
      <point x="238" y="148" type="curve" smooth="yes"/>
      <point x="236" y="99" type="line" smooth="yes"/>
      <point x="235" y="74"/>
      <point x="230" y="65"/>
      <point x="223" y="58" type="curve" smooth="yes"/>
      <point x="208" y="43"/>
      <point x="190" y="34"/>
    </contour>
  </outline>
</glyph>
<glyph name="b" format="2">
  <advance width="515"/>
  <unicode hex="0062"/>
  <note>
b
</note>
  <anchor x="253" y="-30" name="bottom"/>
  <outline>
    <contour>
      <point x="259" y="-14" type="curve" smooth="yes"/>
      <point x="390" y="-14"/>
      <point x="480" y="80"/>
      <point x="480" y="217" type="curve" smooth="yes"/>
      <point x="480" y="328"/>
      <point x="401" y="414"/>
      <point x="300" y="414" type="curve" smooth="yes"/>
      <point x="256" y="414"/>
      <point x="195" y="389"/>
      <point x="154" y="355" type="curve"/>
      <point x="147" y="356"/>
      <point x="145" y="362"/>
      <point x="145" y="388" type="curve" smooth="yes"/>
      <point x="145" y="593" type="line" smooth="yes"/>
      <point x="145" y="649"/>
      <point x="148" y="693"/>
      <point x="148" y="698" type="curve" smooth="yes"/>
      <point x="148" y="702"/>
      <point x="145" y="705"/>
      <point x="142" y="705" type="curve" smooth="yes"/>
      <point x="140" y="705"/>
      <point x="137" y="704"/>
      <point x="133" y="702" type="curve" smooth="yes"/>
      <point x="120" y="696"/>
      <point x="54" y="669"/>
      <point x="28" y="664" type="curve" smooth="yes"/>
      <point x="23" y="663"/>
      <point x="16" y="661"/>
      <point x="16" y="654" type="curve" smooth="yes"/>
      <point x="16" y="646"/>
      <point x="23" y="642"/>
      <point x="29" y="639" type="curve" smooth="yes"/>
      <point x="56" y="627"/>
      <point x="75" y="601"/>
      <point x="75" y="566" type="curve" smooth="yes"/>
      <point x="75" y="81" type="line" smooth="yes"/>
      <point x="75" y="56"/>
      <point x="68" y="21"/>
      <point x="68" y="9" type="curve" smooth="yes"/>
      <point x="68" y="2"/>
      <point x="76" y="-3"/>
      <point x="82" y="-3" type="curve" smooth="yes"/>
      <point x="85" y="-3"/>
      <point x="88" y="-1"/>
      <point x="91" y="2" type="curve" smooth="yes"/>
      <point x="97" y="8"/>
      <point x="105" y="15"/>
      <point x="113" y="15" type="curve" smooth="yes"/>
      <point x="120" y="15"/>
      <point x="144" y="7"/>
      <point x="173" y="-1" type="curve" smooth="yes"/>
      <point x="199" y="-8"/>
      <point x="230" y="-14"/>
    </contour>
    <contour>
      <point x="282" y="17" type="curve" smooth="yes"/>
      <point x="212" y="17"/>
      <point x="145" y="62"/>
      <point x="145" y="132" type="curve" smooth="yes"/>
      <point x="145" y="326" type="line"/>
      <point x="174" y="353"/>
      <point x="214" y="372"/>
      <point x="267" y="372" type="curve" smooth="yes"/>
      <point x="362" y="372"/>
      <point x="405" y="272"/>
      <point x="405" y="195" type="curve" smooth="yes"/>
      <point x="405" y="94"/>
      <point x="358" y="17"/>
    </contour>
  </outline>
</glyph>
<glyph name="d" format="2">
  <advance width="506"/>
  <unicode hex="0064"/>
  <note>
d
</note>
  <anchor x="238" y="-30" name="bottom"/>
  <outline>
    <contour>
      <point x="357" y="-19" type="curve" smooth="yes"/>
      <point x="361" y="-19"/>
      <point x="362" y="-19"/>
      <point x="373" y="-13" type="curve" smooth="yes"/>
      <point x="420" y="7"/>
      <point x="453" y="16"/>
      <point x="490" y="21" type="curve" smooth="yes"/>
      <point x="497" y="21"/>
      <point x="504" y="30"/>
      <point x="504" y="39" type="curve" smooth="yes"/>
      <point x="504" y="47"/>
      <point x="499" y="49"/>
      <point x="486" y="48" type="curve" smooth="yes"/>
      <point x="469" y="46"/>
      <point x="450" y="45"/>
      <point x="443" y="45" type="curve" smooth="yes"/>
      <point x="428" y="45"/>
      <point x="422" y="64"/>
      <point x="422" y="110" type="curve" smooth="yes"/>
      <point x="422" y="562" type="line" smooth="yes"/>
      <point x="422" y="652"/>
      <point x="429" y="686"/>
      <point x="429" y="698" type="curve"/>
      <point x="428" y="702"/>
      <point x="426" y="704"/>
      <point x="422" y="704" type="curve" smooth="yes"/>
      <point x="419" y="704"/>
      <point x="414" y="703"/>
      <point x="409" y="701" type="curve" smooth="yes"/>
      <point x="390" y="693"/>
      <point x="360" y="679"/>
      <point x="301" y="664" type="curve" smooth="yes"/>
      <point x="295" y="662"/>
      <point x="293" y="657"/>
      <point x="293" y="652" type="curve" smooth="yes"/>
      <point x="293" y="646"/>
      <point x="296" y="640"/>
      <point x="302" y="639" type="curve" smooth="yes"/>
      <point x="334" y="633"/>
      <point x="352" y="620"/>
      <point x="352" y="566" type="curve" smooth="yes"/>
      <point x="352" y="424" type="line" smooth="yes"/>
      <point x="352" y="406"/>
      <point x="348" y="400"/>
      <point x="345" y="400" type="curve" smooth="yes"/>
      <point x="342" y="400"/>
      <point x="338" y="401"/>
      <point x="332" y="403" type="curve" smooth="yes"/>
      <point x="317" y="408"/>
      <point x="287" y="414"/>
      <point x="260" y="414" type="curve" smooth="yes"/>
      <point x="120" y="414"/>
      <point x="35" y="306"/>
      <point x="35" y="190" type="curve" smooth="yes"/>
      <point x="35" y="89"/>
      <point x="106" y="-14"/>
      <point x="220" y="-14" type="curve" smooth="yes"/>
      <point x="286" y="-14"/>
      <point x="331" y="26"/>
      <point x="351" y="57" type="curve"/>
      <point x="351" y="51" type="line" smooth="yes"/>
      <point x="351" y="34"/>
      <point x="346" y="4"/>
      <point x="346" y="-9" type="curve" smooth="yes"/>
      <point x="346" y="-12"/>
      <point x="354" y="-19"/>
    </contour>
    <contour>
      <point x="256" y="38" type="curve" smooth="yes"/>
      <point x="212" y="38"/>
      <point x="106" y="62"/>
      <point x="106" y="213" type="curve" smooth="yes"/>
      <point x="106" y="346"/>
      <point x="183" y="379"/>
      <point x="229" y="379" type="curve" smooth="yes"/>
      <point x="303" y="379"/>
      <point x="352" y="321"/>
      <point x="352" y="267" type="curve" smooth="yes"/>
      <point x="351" y="87" type="line"/>
      <point x="326" y="58"/>
      <point x="291" y="38"/>
    </contour>
  </outline>
</glyph>
<glyph name="e" format="2">
  <advance width="390"/>
  <unicode hex="0065"/>
  <note>
e
</note>
  <anchor x="214" y="-30" name="bottom"/>
  <anchor x="222" y="440" name="top"/>
  <outline>
    <contour>
      <point x="213" y="-15" type="curve" smooth="yes"/>
      <point x="266" y="-15"/>
      <point x="317" y="8"/>
      <point x="347" y="47" type="curve" smooth="yes"/>
      <point x="359" y="62"/>
      <point x="365" y="76"/>
      <point x="365" y="89" type="curve" smooth="yes"/>
      <point x="365" y="95"/>
      <point x="362" y="99"/>
      <point x="357" y="99" type="curve" smooth="yes"/>
      <point x="353" y="99"/>
      <point x="351" y="98"/>
      <point x="346" y="91" type="curve" smooth="yes"/>
      <point x="321" y="62"/>
      <point x="288" y="46"/>
      <point x="248" y="46" type="curve" smooth="yes"/>
      <point x="163" y="46"/>
      <point x="94" y="124"/>
      <point x="94" y="220" type="curve" smooth="yes"/>
      <point x="94" y="249"/>
      <point x="100" y="257"/>
      <point x="119" y="257" type="curve" smooth="yes"/>
      <point x="330" y="257" type="line" smooth="yes"/>
      <point x="351" y="257"/>
      <point x="360" y="267"/>
      <point x="360" y="288" type="curve" smooth="yes"/>
      <point x="360" y="362"/>
      <point x="303" y="414"/>
      <point x="223" y="414" type="curve" smooth="yes"/>
      <point x="118" y="414"/>
      <point x="30" y="318"/>
      <point x="30" y="203" type="curve" smooth="yes"/>
      <point x="30" y="72"/>
      <point x="103" y="-15"/>
    </contour>
    <contour>
      <point x="121" y="288" type="line" smooth="yes"/>
      <point x="113" y="288"/>
      <point x="109" y="291"/>
      <point x="109" y="298" type="curve" smooth="yes"/>
      <point x="109" y="338"/>
      <point x="162" y="385"/>
      <point x="208" y="385" type="curve" smooth="yes"/>
      <point x="255" y="385"/>
      <point x="294" y="353"/>
      <point x="294" y="315" type="curve" smooth="yes"/>
      <point x="294" y="301"/>
      <point x="292" y="294"/>
      <point x="286" y="293" type="curve" smooth="yes"/>
      <point x="264" y="289"/>
      <point x="244" y="288"/>
      <point x="212" y="288" type="curve" smooth="yes"/>
    </contour>
  </outline>
</glyph>
<glyph name="f" format="2">
  <advance width="318"/>
  <unicode hex="0066"/>
  <note>
f
</note>
  <outline>
    <contour>
      <point x="44" y="-3" type="curve" smooth="yes"/>
      <point x="84" y="-3"/>
      <point x="92" y="2"/>
      <point x="127" y="2" type="curve" smooth="yes"/>
      <point x="162" y="2"/>
      <point x="189" y="-3"/>
      <point x="229" y="-3" type="curve" smooth="yes"/>
      <point x="242" y="-3"/>
      <point x="249" y="0"/>
      <point x="249" y="8" type="curve" smooth="yes"/>
      <point x="249" y="18"/>
      <point x="240" y="22"/>
      <point x="226" y="24" type="curve" smooth="yes"/>
      <point x="172" y="30"/>
      <point x="160" y="41"/>
      <point x="160" y="68" type="curve" smooth="yes"/>
      <point x="160" y="339" type="line" smooth="yes"/>
      <point x="160" y="347"/>
      <point x="163" y="352"/>
      <point x="179" y="352" type="curve" smooth="yes"/>
      <point x="294" y="352" type="line" smooth="yes"/>
      <point x="297" y="352"/>
      <point x="301" y="355"/>
      <point x="303" y="360" type="curve" smooth="yes"/>
      <point x="307" y="368"/>
      <point x="309" y="380"/>
      <point x="309" y="389" type="curve" smooth="yes"/>
      <point x="309" y="395"/>
      <point x="303" y="400"/>
      <point x="296" y="400" type="curve" smooth="yes"/>
      <point x="171" y="400" type="line" smooth="yes"/>
      <point x="165" y="400"/>
      <point x="160" y="402"/>
      <point x="160" y="410" type="curve" smooth="yes"/>
      <point x="160" y="498" type="line" smooth="yes"/>
      <point x="160" y="611"/>
      <point x="205" y="665"/>
      <point x="268" y="665" type="curve" smooth="yes"/>
      <point x="312" y="665"/>
      <point x="335" y="646"/>
      <point x="352" y="629" type="curve" smooth="yes"/>
      <point x="365" y="617"/>
      <point x="374" y="606"/>
      <point x="386" y="606" type="curve" smooth="yes"/>
      <point x="404" y="606"/>
      <point x="420" y="619"/>
      <point x="420" y="646" type="curve" smooth="yes"/>
      <point x="420" y="681"/>
      <point x="384" y="706"/>
      <point x="310" y="706" type="curve" smooth="yes"/>
      <point x="223" y="706"/>
      <point x="90" y="637"/>
      <point x="90" y="406" type="curve"/>
      <point x="70" y="396"/>
      <point x="55" y="388"/>
      <point x="31" y="376" type="curve" smooth="yes"/>
      <point x="29" y="375"/>
      <point x="24" y="373"/>
      <point x="24" y="370" type="curve" smooth="yes"/>
      <point x="24" y="363"/>
      <point x="34" y="353"/>
      <point x="38" y="352" type="curve"/>
      <point x="59" y="350"/>
      <point x="77" y="350"/>
      <point x="90" y="350" type="curve"/>
      <point x="90" y="68" type="line" smooth="yes"/>
      <point x="90" y="41"/>
      <point x="78" y="31"/>
      <point x="47" y="24" type="curve" smooth="yes"/>
      <point x="33" y="21"/>
      <point x="24" y="18"/>
      <point x="24" y="8" type="curve" smooth="yes"/>
      <point x="24" y="0"/>
      <point x="31" y="-3"/>
    </contour>
  </outline>
</glyph>
<glyph name="g" format="2">
  <advance width="435"/>
  <unicode hex="0067"/>
  <anchor x="215" y="440" name="top"/>
  <note>
g
</note>
  <outline>
    <contour>
      <point x="195" y="-290" type="curve" smooth="yes"/>
      <point x="303" y="-290"/>
      <point x="418" y="-180"/>
      <point x="418" y="-77" type="curve" smooth="yes"/>
      <point x="418" y="-16"/>
      <point x="359" y="17"/>
      <point x="236" y="24" type="curve" smooth="yes"/>
      <point x="151" y="29"/>
      <point x="106" y="46"/>
      <point x="106" y="74" type="curve" smooth="yes"/>
      <point x="106" y="88"/>
      <point x="129" y="109"/>
      <point x="158" y="120" type="curve"/>
      <point x="124" y="137" type="line"/>
      <point x="113" y="119"/>
      <point x="109" y="116"/>
      <point x="63" y="81" type="curve" smooth="yes"/>
      <point x="47" y="68"/>
      <point x="40" y="57"/>
      <point x="40" y="44" type="curve" smooth="yes"/>
      <point x="40" y="-7"/>
      <point x="82" y="-28"/>
      <point x="207" y="-37" type="curve" smooth="yes"/>
      <point x="313" y="-44"/>
      <point x="357" y="-65"/>
      <point x="357" y="-109" type="curve" smooth="yes"/>
      <point x="357" y="-155"/>
      <point x="337" y="-198"/>
      <point x="304" y="-223" type="curve" smooth="yes"/>
      <point x="280" y="-241"/>
      <point x="249" y="-250"/>
      <point x="209" y="-250" type="curve" smooth="yes"/>
      <point x="140" y="-250"/>
      <point x="86" y="-208"/>
      <point x="86" y="-155" type="curve" smooth="yes"/>
      <point x="86" y="-102"/>
      <point x="108" y="-69"/>
      <point x="172" y="-28" type="curve"/>
      <point x="130" y="-26" type="line"/>
      <point x="97" y="-53"/>
      <point x="63" y="-79"/>
      <point x="44" y="-95" type="curve" smooth="yes"/>
      <point x="21" y="-113"/>
      <point x="11" y="-135"/>
      <point x="11" y="-170" type="curve" smooth="yes"/>
      <point x="11" y="-244"/>
      <point x="81" y="-290"/>
    </contour>
    <contour>
      <point x="207" y="141" type="curve" smooth="yes"/>
      <point x="155" y="141"/>
      <point x="111" y="200"/>
      <point x="111" y="270" type="curve" smooth="yes"/>
      <point x="111" y="331"/>
      <point x="153" y="386"/>
      <point x="200" y="386" type="curve" smooth="yes"/>
      <point x="249" y="386"/>
      <point x="295" y="333"/>
      <point x="295" y="275" type="curve" smooth="yes"/>
      <point x="295" y="199"/>
      <point x="257" y="141"/>
    </contour>
    <contour>
      <point x="201" y="106" type="curve" smooth="yes"/>
      <point x="287" y="106"/>
      <point x="360" y="193"/>
      <point x="360" y="295" type="curve" smooth="yes"/>
      <point x="360" y="313"/>
      <point x="363" y="332"/>
      <point x="366" y="341" type="curve" smooth="yes"/>
      <point x="368" y="346"/>
      <point x="378" y="349"/>
      <point x="396" y="349" type="curve" smooth="yes"/>
      <point x="423" y="349" type="line"/>
      <point x="425" y="349"/>
      <point x="428" y="351"/>
      <point x="431" y="354" type="curve" smooth="yes"/>
      <point x="437" y="360"/>
      <point x="441" y="368"/>
      <point x="441" y="373" type="curve" smooth="yes"/>
      <point x="441" y="382"/>
      <point x="435" y="388"/>
      <point x="428" y="388" type="curve" smooth="yes"/>
      <point x="418" y="388"/>
      <point x="389" y="385"/>
      <point x="373" y="385" type="curve" smooth="yes"/>
      <point x="353" y="385"/>
      <point x="338" y="386"/>
      <point x="306" y="395" type="curve" smooth="yes"/>
      <point x="278" y="403"/>
      <point x="252" y="416"/>
      <point x="213" y="416" type="curve" smooth="yes"/>
      <point x="122" y="416"/>
      <point x="39" y="351"/>
      <point x="39" y="258" type="curve" smooth="yes"/>
      <point x="39" y="176"/>
      <point x="119" y="106"/>
    </contour>
  </outline>
</glyph>
<glyph name="k" format="2">
  <advance width="469"/>
  <unicode hex="006B"/>
  <note>
k
</note>
  <anchor x="234" y="-30" name="bottom"/>
  <outline>
    <contour>
      <point x="42" y="-3" type="curve" smooth="yes"/>
      <point x="81" y="-3"/>
      <point x="85" y="2"/>
      <point x="120" y="2" type="curve" smooth="yes"/>
      <point x="155" y="2"/>
      <point x="151" y="-3"/>
      <point x="190" y="-3" type="curve" smooth="yes"/>
      <point x="195" y="-3"/>
      <point x="213" y="-2"/>
      <point x="213" y="8" type="curve" smooth="yes"/>
      <point x="213" y="18"/>
      <point x="201" y="20"/>
      <point x="190" y="24" type="curve" smooth="yes"/>
      <point x="170" y="30"/>
      <point x="155" y="38"/>
      <point x="155" y="65" type="curve" smooth="yes"/>
      <point x="154" y="88"/>
      <point x="154" y="112"/>
      <point x="154" y="135" type="curve" smooth="yes"/>
      <point x="154" y="158"/>
      <point x="154" y="180"/>
      <point x="155" y="199" type="curve"/>
      <point x="155" y="204"/>
      <point x="157" y="206"/>
      <point x="160" y="206" type="curve" smooth="yes"/>
      <point x="164" y="206"/>
      <point x="166" y="204"/>
      <point x="170" y="199" type="curve" smooth="yes"/>
      <point x="291" y="62" type="line"/>
      <point x="295" y="57"/>
      <point x="298" y="52"/>
      <point x="298" y="48" type="curve" smooth="yes"/>
      <point x="298" y="36"/>
      <point x="286" y="30"/>
      <point x="271" y="25" type="curve" smooth="yes"/>
      <point x="262" y="22"/>
      <point x="254" y="17"/>
      <point x="254" y="9" type="curve" smooth="yes"/>
      <point x="254" y="4"/>
      <point x="258" y="0"/>
      <point x="272" y="0" type="curve" smooth="yes"/>
      <point x="340" y="0"/>
      <point x="407" y="-3"/>
      <point x="459" y="-3" type="curve" smooth="yes"/>
      <point x="471" y="-3"/>
      <point x="479" y="-1"/>
      <point x="479" y="8" type="curve" smooth="yes"/>
      <point x="479" y="18"/>
      <point x="463" y="21"/>
      <point x="449" y="26" type="curve" smooth="yes"/>
      <point x="429" y="33"/>
      <point x="396" y="51"/>
      <point x="374" y="72" type="curve" smooth="yes"/>
      <point x="353" y="91"/>
      <point x="278" y="166"/>
      <point x="227" y="230" type="curve" smooth="yes"/>
      <point x="225" y="232"/>
      <point x="224" y="235"/>
      <point x="224" y="237" type="curve" smooth="yes"/>
      <point x="224" y="240"/>
      <point x="226" y="243"/>
      <point x="230" y="247" type="curve" smooth="yes"/>
      <point x="278" y="289"/>
      <point x="345" y="345"/>
      <point x="358" y="353" type="curve" smooth="yes"/>
      <point x="376" y="364"/>
      <point x="399" y="377"/>
      <point x="424" y="384" type="curve" smooth="yes"/>
      <point x="438" y="388"/>
      <point x="449" y="394"/>
      <point x="449" y="402" type="curve" smooth="yes"/>
      <point x="449" y="408"/>
      <point x="444" y="412"/>
      <point x="435" y="412" type="curve" smooth="yes"/>
      <point x="416" y="412"/>
      <point x="375" y="400"/>
      <point x="344" y="400" type="curve" smooth="yes"/>
      <point x="295" y="400" type="line" smooth="yes"/>
      <point x="281" y="400"/>
      <point x="273" y="395"/>
      <point x="273" y="388" type="curve" smooth="yes"/>
      <point x="273" y="382"/>
      <point x="276" y="380"/>
      <point x="285" y="378" type="curve" smooth="yes"/>
      <point x="297" y="375"/>
      <point x="311" y="370"/>
      <point x="311" y="363" type="curve" smooth="yes"/>
      <point x="311" y="360"/>
      <point x="309" y="356"/>
      <point x="302" y="348" type="curve" smooth="yes"/>
      <point x="289" y="333"/>
      <point x="250" y="292"/>
      <point x="196" y="245" type="curve" smooth="yes"/>
      <point x="181" y="232"/>
      <point x="168" y="225"/>
      <point x="160" y="225" type="curve" smooth="yes"/>
      <point x="157" y="225"/>
      <point x="155" y="228"/>
      <point x="155" y="234" type="curve" smooth="yes"/>
      <point x="155" y="562" type="line" smooth="yes"/>
      <point x="155" y="647"/>
      <point x="164" y="682"/>
      <point x="164" y="696" type="curve" smooth="yes"/>
      <point x="164" y="702"/>
      <point x="162" y="705"/>
      <point x="158" y="705" type="curve" smooth="yes"/>
      <point x="155" y="705"/>
      <point x="153" y="704"/>
      <point x="149" y="702" type="curve" smooth="yes"/>
      <point x="119" y="689"/>
      <point x="90" y="676"/>
      <point x="39" y="664" type="curve" smooth="yes"/>
      <point x="34" y="663"/>
      <point x="31" y="658"/>
      <point x="31" y="652" type="curve" smooth="yes"/>
      <point x="31" y="646"/>
      <point x="34" y="640"/>
      <point x="40" y="639" type="curve" smooth="yes"/>
      <point x="73" y="631"/>
      <point x="85" y="613"/>
      <point x="85" y="566" type="curve" smooth="yes"/>
      <point x="85" y="65" type="line" smooth="yes"/>
      <point x="85" y="38"/>
      <point x="62" y="30"/>
      <point x="42" y="24" type="curve" smooth="yes"/>
      <point x="31" y="20"/>
      <point x="19" y="18"/>
      <point x="19" y="8" type="curve" smooth="yes"/>
      <point x="19" y="0"/>
      <point x="27" y="-3"/>
    </contour>
  </outline>
</glyph>
<glyph name="l" format="2">
  <advance width="240"/>
  <unicode hex="006C"/>
  <anchor x="121" y="-30" name="bottom"/>
  <note>
l
</note>
  <outline>
    <contour>
      <point x="39" y="-3" type="curve" smooth="yes"/>
      <point x="78" y="-3"/>
      <point x="85" y="2"/>
      <point x="120" y="2" type="curve" smooth="yes"/>
      <point x="155" y="2"/>
      <point x="162" y="-3"/>
      <point x="201" y="-3" type="curve" smooth="yes"/>
      <point x="208" y="-3"/>
      <point x="221" y="-2"/>
      <point x="221" y="6" type="curve" smooth="yes"/>
      <point x="221" y="16"/>
      <point x="209" y="20"/>
      <point x="198" y="24" type="curve"/>
      <point x="178" y="30"/>
      <point x="155" y="35"/>
      <point x="155" y="62" type="curve" smooth="yes"/>
      <point x="155" y="562" type="line" smooth="yes"/>
      <point x="155" y="652"/>
      <point x="162" y="686"/>
      <point x="162" y="698" type="curve" smooth="yes"/>
      <point x="162" y="701"/>
      <point x="160" y="705"/>
      <point x="157" y="705" type="curve" smooth="yes"/>
      <point x="155" y="705"/>
      <point x="153" y="704"/>
      <point x="151" y="703" type="curve" smooth="yes"/>
      <point x="119" y="691"/>
      <point x="89" y="676"/>
      <point x="38" y="664" type="curve" smooth="yes"/>
      <point x="34" y="663"/>
      <point x="31" y="658"/>
      <point x="31" y="652" type="curve" smooth="yes"/>
      <point x="31" y="646"/>
      <point x="34" y="640"/>
      <point x="39" y="639" type="curve" smooth="yes"/>
      <point x="72" y="632"/>
      <point x="85" y="605"/>
      <point x="85" y="566" type="curve" smooth="yes"/>
      <point x="85" y="62" type="line" smooth="yes"/>
      <point x="85" y="35"/>
      <point x="62" y="30"/>
      <point x="42" y="24" type="curve"/>
      <point x="31" y="20"/>
      <point x="19" y="16"/>
      <point x="19" y="6" type="curve" smooth="yes"/>
      <point x="19" y="-2"/>
      <point x="32" y="-3"/>
    </contour>
  </outline>
</glyph>
<glyph name="m" format="2">
  <advance width="778"/>
  <unicode hex="006D"/>
  <note>
m
</note>
  <anchor x="390" y="-30" name="bottom"/>
  <anchor x="392" y="440" name="top"/>
  <outline>
    <contour>
      <point x="44" y="-3" type="curve" smooth="yes"/>
      <point x="84" y="-3"/>
      <point x="90" y="2"/>
      <point x="125" y="2" type="curve" smooth="yes"/>
      <point x="160" y="2"/>
      <point x="166" y="-3"/>
      <point x="206" y="-3" type="curve" smooth="yes"/>
      <point x="218" y="-3"/>
      <point x="226" y="0"/>
      <point x="226" y="8" type="curve" smooth="yes"/>
      <point x="226" y="18"/>
      <point x="214" y="20"/>
      <point x="203" y="24" type="curve" smooth="yes"/>
      <point x="183" y="30"/>
      <point x="160" y="35"/>
      <point x="160" y="62" type="curve" smooth="yes"/>
      <point x="160" y="268" type="line" smooth="yes"/>
      <point x="160" y="302"/>
      <point x="168" y="326"/>
      <point x="187" y="340" type="curve" smooth="yes"/>
      <point x="212" y="360"/>
      <point x="240" y="367"/>
      <point x="274" y="367" type="curve" smooth="yes"/>
      <point x="317" y="367"/>
      <point x="354" y="320"/>
      <point x="354" y="272" type="curve" smooth="yes"/>
      <point x="354" y="62" type="line" smooth="yes"/>
      <point x="354" y="35"/>
      <point x="330" y="30"/>
      <point x="310" y="24" type="curve" smooth="yes"/>
      <point x="299" y="20"/>
      <point x="287" y="18"/>
      <point x="287" y="8" type="curve" smooth="yes"/>
      <point x="287" y="0"/>
      <point x="296" y="-3"/>
      <point x="307" y="-3" type="curve" smooth="yes"/>
      <point x="347" y="-3"/>
      <point x="355" y="2"/>
      <point x="390" y="2" type="curve" smooth="yes"/>
      <point x="425" y="2"/>
      <point x="432" y="-3"/>
      <point x="472" y="-3" type="curve" smooth="yes"/>
      <point x="485" y="-3"/>
      <point x="492" y="0"/>
      <point x="492" y="8" type="curve" smooth="yes"/>
      <point x="492" y="17"/>
      <point x="482" y="21"/>
      <point x="469" y="24" type="curve" smooth="yes"/>
      <point x="449" y="29"/>
      <point x="424" y="35"/>
      <point x="424" y="62" type="curve" smooth="yes"/>
      <point x="424" y="268" type="line" smooth="yes"/>
      <point x="424" y="303"/>
      <point x="434" y="326"/>
      <point x="452" y="340" type="curve" smooth="yes"/>
      <point x="477" y="360"/>
      <point x="505" y="367"/>
      <point x="539" y="367" type="curve" smooth="yes"/>
      <point x="582" y="367"/>
      <point x="619" y="320"/>
      <point x="619" y="272" type="curve" smooth="yes"/>
      <point x="619" y="62" type="line" smooth="yes"/>
      <point x="619" y="35"/>
      <point x="597" y="29"/>
      <point x="576" y="24" type="curve" smooth="yes"/>
      <point x="563" y="21"/>
      <point x="553" y="18"/>
      <point x="553" y="8" type="curve" smooth="yes"/>
      <point x="553" y="0"/>
      <point x="561" y="-3"/>
      <point x="573" y="-3" type="curve" smooth="yes"/>
      <point x="613" y="-3"/>
      <point x="621" y="2"/>
      <point x="656" y="2" type="curve" smooth="yes"/>
      <point x="691" y="2"/>
      <point x="695" y="-3"/>
      <point x="735" y="-3" type="curve" smooth="yes"/>
      <point x="750" y="-3"/>
      <point x="755" y="0"/>
      <point x="755" y="8" type="curve" smooth="yes"/>
      <point x="755" y="17"/>
      <point x="745" y="20"/>
      <point x="732" y="24" type="curve" smooth="yes"/>
      <point x="712" y="30"/>
      <point x="689" y="35"/>
      <point x="689" y="62" type="curve" smooth="yes"/>
      <point x="689" y="275" type="line" smooth="yes"/>
      <point x="689" y="345"/>
      <point x="654" y="414"/>
      <point x="589" y="414" type="curve" smooth="yes"/>
      <point x="524" y="414"/>
      <point x="469" y="383"/>
      <point x="426" y="345" type="curve"/>
      <point x="423" y="345" type="line"/>
      <point x="402" y="396"/>
      <point x="371" y="414"/>
      <point x="323" y="414" type="curve" smooth="yes"/>
      <point x="246" y="414"/>
      <point x="197" y="376"/>
      <point x="167" y="347" type="curve"/>
      <point x="165" y="347" type="line"/>
      <point x="163.586" y="348.414"/>
      <point x="163" y="353"/>
      <point x="163" y="359" type="curve" smooth="yes"/>
      <point x="163" y="378"/>
      <point x="168" y="414"/>
      <point x="168" y="423" type="curve" smooth="yes"/>
      <point x="168" y="427"/>
      <point x="165" y="430"/>
      <point x="162" y="430" type="curve" smooth="yes"/>
      <point x="158" y="430"/>
      <point x="155" y="427"/>
      <point x="153" y="426" type="curve" smooth="yes"/>
      <point x="117" y="403"/>
      <point x="105" y="387"/>
      <point x="51" y="374" type="curve" smooth="yes"/>
      <point x="46" y="373"/>
      <point x="43" y="370"/>
      <point x="43" y="362" type="curve" smooth="yes"/>
      <point x="43" y="354"/>
      <point x="46" y="350"/>
      <point x="52" y="349" type="curve" smooth="yes"/>
      <point x="86" y="343"/>
      <point x="90" y="313"/>
      <point x="90" y="277" type="curve" smooth="yes"/>
      <point x="90" y="62" type="line" smooth="yes"/>
      <point x="90" y="35"/>
      <point x="66" y="30"/>
      <point x="47" y="24" type="curve" smooth="yes"/>
      <point x="34" y="20"/>
      <point x="24" y="17"/>
      <point x="24" y="8" type="curve" smooth="yes"/>
      <point x="24" y="-1"/>
      <point x="33" y="-3"/>
    </contour>
  </outline>
</glyph>
<glyph name="q" format="2">
  <advance width="522"/>
  <unicode hex="0071"/>
  <note>
q
</note>
  <outline>
    <contour>
      <point x="331" y="-285" type="curve" smooth="yes"/>
      <point x="371" y="-285"/>
      <point x="377" y="-280"/>
      <point x="412" y="-280" type="curve" smooth="yes"/>
      <point x="448" y="-280"/>
      <point x="462" y="-285"/>
      <point x="502" y="-285" type="curve" smooth="yes"/>
      <point x="510" y="-285"/>
      <point x="522" y="-284"/>
      <point x="522" y="-276" type="curve" smooth="yes"/>
      <point x="522" y="-266"/>
      <point x="510" y="-262"/>
      <point x="499" y="-258" type="curve"/>
      <point x="479" y="-252"/>
      <point x="447" y="-247"/>
      <point x="447" y="-220" type="curve" smooth="yes"/>
      <point x="447" y="295" type="line" smooth="yes"/>
      <point x="447" y="352"/>
      <point x="459" y="398"/>
      <point x="459" y="411" type="curve" smooth="yes"/>
      <point x="459" y="416"/>
      <point x="449" y="421"/>
      <point x="443" y="421" type="curve" smooth="yes"/>
      <point x="440" y="421"/>
      <point x="437" y="418"/>
      <point x="436" y="417" type="curve"/>
      <point x="429" y="402"/>
      <point x="424" y="392"/>
      <point x="410" y="392" type="curve" smooth="yes"/>
      <point x="405" y="392"/>
      <point x="350" y="414"/>
      <point x="282" y="414" type="curve" smooth="yes"/>
      <point x="135" y="414"/>
      <point x="35" y="319"/>
      <point x="35" y="178" type="curve" smooth="yes"/>
      <point x="35" y="54"/>
      <point x="131" y="-14"/>
      <point x="235" y="-14" type="curve" smooth="yes"/>
      <point x="288" y="-14"/>
      <point x="345" y="26"/>
      <point x="362" y="41" type="curve" smooth="yes"/>
      <point x="365" y="44"/>
      <point x="368" y="43"/>
      <point x="371" y="43" type="curve" smooth="yes"/>
      <point x="375" y="43"/>
      <point x="377" y="36"/>
      <point x="377" y="13" type="curve" smooth="yes"/>
      <point x="377" y="-220" type="line" smooth="yes"/>
      <point x="377" y="-247"/>
      <point x="354" y="-252"/>
      <point x="334" y="-258" type="curve"/>
      <point x="323" y="-262"/>
      <point x="311" y="-266"/>
      <point x="311" y="-276" type="curve" smooth="yes"/>
      <point x="311" y="-284"/>
      <point x="324" y="-285"/>
    </contour>
    <contour>
      <point x="272" y="39" type="curve" smooth="yes"/>
      <point x="212" y="39"/>
      <point x="117" y="72"/>
      <point x="117" y="205" type="curve" smooth="yes"/>
      <point x="117" y="320"/>
      <point x="185" y="382"/>
      <point x="257" y="382" type="curve" smooth="yes"/>
      <point x="323" y="382"/>
      <point x="375" y="335"/>
      <point x="377" y="275" type="curve" smooth="yes"/>
      <point x="378" y="250"/>
      <point x="378" y="116"/>
      <point x="378" y="80" type="curve"/>
      <point x="361" y="61"/>
      <point x="316" y="39"/>
    </contour>
  </outline>
</glyph>
<glyph name="r" format="2">
  <advance width="334"/>
  <unicode hex="0072"/>
  <anchor x="133" y="-30" name="bottom"/>
  <anchor x="191" y="440" name="top"/>
  <note>
r
</note>
  <outline>
    <contour>
      <point x="49" y="-3" type="curve" smooth="yes"/>
      <point x="89" y="-3"/>
      <point x="95" y="2"/>
      <point x="130" y="2" type="curve" smooth="yes"/>
      <point x="165" y="2"/>
      <point x="177" y="-3"/>
      <point x="217" y="-3" type="curve" smooth="yes"/>
      <point x="231" y="-3"/>
      <point x="237" y="0"/>
      <point x="237" y="8" type="curve" smooth="yes"/>
      <point x="237" y="17"/>
      <point x="228" y="20"/>
      <point x="214" y="24" type="curve" smooth="yes"/>
      <point x="181" y="34"/>
      <point x="161" y="44"/>
      <point x="161" y="62" type="curve" smooth="yes"/>
      <point x="161" y="264" type="line" smooth="yes"/>
      <point x="161" y="331"/>
      <point x="198" y="348"/>
      <point x="230" y="348" type="curve" smooth="yes"/>
      <point x="240" y="348"/>
      <point x="251" y="343"/>
      <point x="262" y="339" type="curve" smooth="yes"/>
      <point x="272" y="334"/>
      <point x="282" y="330"/>
      <point x="290" y="330" type="curve" smooth="yes"/>
      <point x="310" y="330"/>
      <point x="329" y="362"/>
      <point x="329" y="382" type="curve" smooth="yes"/>
      <point x="329" y="400"/>
      <point x="309" y="414"/>
      <point x="281" y="414" type="curve" smooth="yes"/>
      <point x="242" y="414"/>
      <point x="198" y="385"/>
      <point x="166" y="346" type="curve"/>
      <point x="165" y="346"/>
      <point x="164" y="347"/>
      <point x="164" y="348" type="curve"/>
      <point x="166" y="380"/>
      <point x="167" y="416"/>
      <point x="167" y="423" type="curve"/>
      <point x="167" y="427"/>
      <point x="165" y="430"/>
      <point x="162" y="430" type="curve" smooth="yes"/>
      <point x="159" y="430"/>
      <point x="155" y="428"/>
      <point x="147" y="423" type="curve" smooth="yes"/>
      <point x="126" y="410"/>
      <point x="83" y="385"/>
      <point x="48" y="374" type="curve" smooth="yes"/>
      <point x="44" y="373"/>
      <point x="39" y="368"/>
      <point x="39" y="362" type="curve" smooth="yes"/>
      <point x="39" y="356"/>
      <point x="44" y="350"/>
      <point x="49" y="349" type="curve" smooth="yes"/>
      <point x="82" y="342"/>
      <point x="90" y="313"/>
      <point x="90" y="277" type="curve" smooth="yes"/>
      <point x="90" y="62" type="line" smooth="yes"/>
      <point x="90" y="43"/>
      <point x="77" y="30"/>
      <point x="52" y="24" type="curve" smooth="yes"/>
      <point x="37" y="20"/>
      <point x="29" y="18"/>
      <point x="29" y="8" type="curve" smooth="yes"/>
      <point x="29" y="0"/>
      <point x="35" y="-3"/>
    </contour>
  </outline>
</glyph>
<glyph name="s" format="2">
  <advance width="323"/>
  <unicode hex="0073"/>
  <note>
s
</note>
  <anchor x="168" y="-30" name="bottom"/>
  <anchor x="176" y="440" name="top"/>
  <outline>
    <contour>
      <point x="144" y="-14" type="curve" smooth="yes"/>
      <point x="231" y="-14"/>
      <point x="291" y="36"/>
      <point x="291" y="108" type="curve" smooth="yes"/>
      <point x="291" y="170"/>
      <point x="253" y="201"/>
      <point x="176" y="245" type="curve" smooth="yes"/>
      <point x="122" y="276"/>
      <point x="107" y="296"/>
      <point x="107" y="327" type="curve" smooth="yes"/>
      <point x="107" y="365"/>
      <point x="138" y="386"/>
      <point x="171" y="386" type="curve" smooth="yes"/>
      <point x="209" y="386"/>
      <point x="234" y="362"/>
      <point x="252" y="318" type="curve" smooth="yes"/>
      <point x="254" y="313"/>
      <point x="263" y="309"/>
      <point x="271" y="309" type="curve" smooth="yes"/>
      <point x="276" y="309"/>
      <point x="281" y="311"/>
      <point x="281" y="316" type="curve" smooth="yes"/>
      <point x="281" y="344"/>
      <point x="272" y="380"/>
      <point x="262" y="395" type="curve"/>
      <point x="249" y="404"/>
      <point x="222" y="414"/>
      <point x="182" y="414" type="curve" smooth="yes"/>
      <point x="92" y="414"/>
      <point x="47" y="363"/>
      <point x="47" y="299" type="curve" smooth="yes"/>
      <point x="47" y="249"/>
      <point x="74" y="217"/>
      <point x="142" y="175" type="curve" smooth="yes"/>
      <point x="202" y="138"/>
      <point x="223" y="117"/>
      <point x="223" y="81" type="curve" smooth="yes"/>
      <point x="223" y="42"/>
      <point x="192" y="13"/>
      <point x="153" y="13" type="curve" smooth="yes"/>
      <point x="114" y="13"/>
      <point x="71" y="38"/>
      <point x="54" y="104" type="curve"/>
      <point x="53" y="109"/>
      <point x="47" y="111"/>
      <point x="42" y="111" type="curve" smooth="yes"/>
      <point x="35" y="111"/>
      <point x="29" y="108"/>
      <point x="29" y="102" type="curve"/>
      <point x="30" y="79"/>
      <point x="33" y="36"/>
      <point x="40" y="22" type="curve"/>
      <point x="65" y="-1"/>
      <point x="103" y="-14"/>
    </contour>
  </outline>
</glyph>
<glyph name="t" format="2">
  <advance width="314"/>
  <unicode hex="0074"/>
  <note>
t
</note>
  <anchor x="188" y="-30" name="bottom"/>
  <anchor x="136" y="440" name="top"/>
  <outline>
    <contour>
      <point x="189" y="-14" type="curve" smooth="yes"/>
      <point x="250" y="-14"/>
      <point x="306" y="36"/>
      <point x="306" y="47" type="curve" smooth="yes"/>
      <point x="306" y="54"/>
      <point x="304" y="61"/>
      <point x="299" y="61" type="curve" smooth="yes"/>
      <point x="298" y="61"/>
      <point x="296" y="60"/>
      <point x="295" y="59" type="curve" smooth="yes"/>
      <point x="278" y="47"/>
      <point x="260" y="41"/>
      <point x="221" y="41" type="curve" smooth="yes"/>
      <point x="178" y="41"/>
      <point x="155" y="73"/>
      <point x="155" y="127" type="curve" smooth="yes"/>
      <point x="155" y="324" type="line" smooth="yes"/>
      <point x="155" y="351"/>
      <point x="161" y="352"/>
      <point x="195" y="352" type="curve" smooth="yes"/>
      <point x="294" y="352" type="line" smooth="yes"/>
      <point x="299" y="352"/>
      <point x="304" y="366"/>
      <point x="304" y="378" type="curve" smooth="yes"/>
      <point x="304" y="390"/>
      <point x="299" y="400"/>
      <point x="294" y="400" type="curve" smooth="yes"/>
      <point x="180" y="400" type="line" smooth="yes"/>
      <point x="163" y="400"/>
      <point x="154" y="404"/>
      <point x="156" y="419" type="curve" smooth="yes"/>
      <point x="161" y="464" type="line" smooth="yes"/>
      <point x="162" y="473"/>
      <point x="154" y="475"/>
      <point x="148" y="475" type="curve" smooth="yes"/>
      <point x="141" y="475"/>
      <point x="137" y="470"/>
      <point x="131" y="463" type="curve" smooth="yes"/>
      <point x="113" y="441"/>
      <point x="81" y="410"/>
      <point x="42" y="383" type="curve" smooth="yes"/>
      <point x="40" y="382"/>
      <point x="35" y="375"/>
      <point x="35" y="372" type="curve" smooth="yes"/>
      <point x="35" y="362"/>
      <point x="40" y="352"/>
      <point x="47" y="352" type="curve" smooth="yes"/>
      <point x="53" y="352" type="line"/>
      <point x="79" y="352"/>
      <point x="85" y="348"/>
      <point x="85" y="337" type="curve" smooth="yes"/>
      <point x="85" y="105" type="line" smooth="yes"/>
      <point x="85" y="26"/>
      <point x="124" y="-14"/>
    </contour>
  </outline>
</glyph>
<glyph name="u" format="2">
  <advance width="527"/>
  <unicode hex="0075"/>
  <anchor x="257" y="-30" name="bottom"/>
  <anchor x="252" y="440" name="top"/>
  <note>
u
</note>
  <outline>
    <contour>
      <point x="366" y="-19" type="curve" smooth="yes"/>
      <point x="372" y="-19"/>
      <point x="382" y="-15"/>
      <point x="386" y="-13" type="curve"/>
      <point x="415" y="-1"/>
      <point x="451" y="14"/>
      <point x="503" y="21" type="curve" smooth="yes"/>
      <point x="511" y="22"/>
      <point x="517" y="24"/>
      <point x="517" y="35" type="curve" smooth="yes"/>
      <point x="517" y="47"/>
      <point x="509" y="48"/>
      <point x="502" y="48" type="curve" smooth="yes"/>
      <point x="492" y="48"/>
      <point x="466" y="45"/>
      <point x="456" y="45" type="curve" smooth="yes"/>
      <point x="446" y="45"/>
      <point x="438" y="59"/>
      <point x="438" y="95" type="curve" smooth="yes"/>
      <point x="438" y="326" type="line" smooth="yes"/>
      <point x="438" y="342"/>
      <point x="443" y="388"/>
      <point x="445" y="395" type="curve" smooth="yes"/>
      <point x="446" y="399"/>
      <point x="447" y="402"/>
      <point x="447" y="404" type="curve" smooth="yes"/>
      <point x="447" y="411"/>
      <point x="441" y="415"/>
      <point x="434" y="415" type="curve" smooth="yes"/>
      <point x="431" y="415"/>
      <point x="427" y="414"/>
      <point x="424" y="413" type="curve"/>
      <point x="388" y="403"/>
      <point x="362" y="398"/>
      <point x="301" y="397" type="curve" smooth="yes"/>
      <point x="290" y="397"/>
      <point x="280" y="394"/>
      <point x="280" y="382" type="curve" smooth="yes"/>
      <point x="280" y="368"/>
      <point x="289" y="365"/>
      <point x="301" y="365" type="curve" smooth="yes"/>
      <point x="321" y="365"/>
      <point x="368" y="356"/>
      <point x="368" y="315" type="curve" smooth="yes"/>
      <point x="368" y="132" type="line" smooth="yes"/>
      <point x="368" y="91"/>
      <point x="338" y="68"/>
      <point x="323" y="57" type="curve" smooth="yes"/>
      <point x="298" y="38"/>
      <point x="273" y="37"/>
      <point x="239" y="37" type="curve" smooth="yes"/>
      <point x="196" y="37"/>
      <point x="155" y="80"/>
      <point x="155" y="128" type="curve" smooth="yes"/>
      <point x="155" y="323" type="line" smooth="yes"/>
      <point x="155" y="353"/>
      <point x="157" y="369"/>
      <point x="161" y="400" type="curve" smooth="yes"/>
      <point x="162" y="411"/>
      <point x="157" y="414"/>
      <point x="151" y="414" type="curve" smooth="yes"/>
      <point x="148" y="414"/>
      <point x="147" y="414"/>
      <point x="143" y="413" type="curve" smooth="yes"/>
      <point x="106" y="404"/>
      <point x="89" y="400"/>
      <point x="44" y="397" type="curve" smooth="yes"/>
      <point x="36" y="396"/>
      <point x="29" y="393"/>
      <point x="29" y="381" type="curve" smooth="yes"/>
      <point x="29" y="370"/>
      <point x="35" y="367"/>
      <point x="42" y="365" type="curve"/>
      <point x="72" y="353"/>
      <point x="85" y="337"/>
      <point x="85" y="308" type="curve" smooth="yes"/>
      <point x="85" y="105" type="line" smooth="yes"/>
      <point x="85" y="27"/>
      <point x="134" y="-14"/>
      <point x="199" y="-14" type="curve" smooth="yes"/>
      <point x="261" y="-14"/>
      <point x="312" y="6"/>
      <point x="364" y="57" type="curve"/>
      <point x="364" y="55"/>
      <point x="364" y="53"/>
      <point x="364" y="51" type="curve" smooth="yes"/>
      <point x="364" y="34"/>
      <point x="359" y="2"/>
      <point x="359" y="-11" type="curve" smooth="yes"/>
      <point x="359" y="-16"/>
      <point x="361" y="-19"/>
    </contour>
  </outline>
</glyph>
<glyph name="v" format="2">
  <advance width="438"/>
  <unicode hex="0076"/>
  <anchor x="220" y="-30" name="bottom"/>
  <anchor x="218" y="440" name="top"/>
  <note>
v
</note>
  <outline>
    <contour>
      <point x="214" y="-21" type="curve"/>
      <point x="220" y="-21" type="line"/>
      <point x="227" y="-12"/>
      <point x="242" y="24"/>
      <point x="242" y="24" type="curve"/>
      <point x="242" y="24"/>
      <point x="275" y="112"/>
      <point x="280" y="123" type="curve" smooth="yes"/>
      <point x="358" y="311" type="line" smooth="yes"/>
      <point x="372" y="344"/>
      <point x="400" y="372"/>
      <point x="420" y="378" type="curve" smooth="yes"/>
      <point x="436" y="383"/>
      <point x="443" y="387"/>
      <point x="443" y="396" type="curve" smooth="yes"/>
      <point x="443" y="404"/>
      <point x="433" y="405"/>
      <point x="423" y="405" type="curve" smooth="yes"/>
      <point x="404" y="405"/>
      <point x="399" y="400"/>
      <point x="364" y="400" type="curve" smooth="yes"/>
      <point x="329" y="400"/>
      <point x="306" y="405"/>
      <point x="291" y="405" type="curve" smooth="yes"/>
      <point x="282" y="405"/>
      <point x="271" y="404"/>
      <point x="271" y="396" type="curve" smooth="yes"/>
      <point x="271" y="387"/>
      <point x="277" y="384"/>
      <point x="294" y="378" type="curve" smooth="yes"/>
      <point x="312" y="371"/>
      <point x="320" y="362"/>
      <point x="320" y="336" type="curve" smooth="yes"/>
      <point x="320" y="325"/>
      <point x="317" y="308"/>
      <point x="312" y="295" type="curve" smooth="yes"/>
      <point x="236" y="100" type="line"/>
      <point x="235" y="99"/>
      <point x="234" y="99"/>
      <point x="233" y="100" type="curve"/>
      <point x="154" y="310" type="line" smooth="yes"/>
      <point x="151" y="318"/>
      <point x="150" y="328"/>
      <point x="150" y="337" type="curve" smooth="yes"/>
      <point x="150" y="356"/>
      <point x="156" y="373"/>
      <point x="170" y="378" type="curve" smooth="yes"/>
      <point x="182" y="382"/>
      <point x="193" y="386"/>
      <point x="193" y="396" type="curve" smooth="yes"/>
      <point x="193" y="404"/>
      <point x="180" y="405"/>
      <point x="173" y="405" type="curve" smooth="yes"/>
      <point x="134" y="405"/>
      <point x="133" y="400"/>
      <point x="98" y="400" type="curve" smooth="yes"/>
      <point x="63" y="400"/>
      <point x="64" y="405"/>
      <point x="25" y="405" type="curve" smooth="yes"/>
      <point x="18" y="405"/>
      <point x="5" y="404"/>
      <point x="5" y="396" type="curve" smooth="yes"/>
      <point x="5" y="387"/>
      <point x="12" y="384"/>
      <point x="23" y="380" type="curve" smooth="yes"/>
      <point x="43" y="374"/>
      <point x="64" y="353"/>
      <point x="74" y="329" type="curve" smooth="yes"/>
      <point x="106" y="247"/>
      <point x="141" y="170"/>
      <point x="171" y="87" type="curve" smooth="yes"/>
      <point x="179" y="65"/>
      <point x="187" y="39"/>
      <point x="196" y="17" type="curve" smooth="yes"/>
      <point x="199" y="8"/>
      <point x="209" y="-21"/>
    </contour>
  </outline>
</glyph>
<glyph name="y" format="2">
  <advance width="438"/>
  <unicode hex="0079"/>
  <anchor x="242" y="440" name="top"/>
  <note>
y
</note>
  <outline>
    <contour>
      <point x="64" y="-285" type="curve" smooth="yes"/>
      <point x="93" y="-285"/>
      <point x="117" y="-271"/>
      <point x="129" y="-244" type="curve" smooth="yes"/>
      <point x="170" y="-148"/>
      <point x="221" y="-22"/>
      <point x="225" y="-13" type="curve" smooth="yes"/>
      <point x="361" y="311" type="line" smooth="yes"/>
      <point x="374" y="343"/>
      <point x="400" y="372"/>
      <point x="420" y="378" type="curve"/>
      <point x="431" y="382"/>
      <point x="443" y="386"/>
      <point x="443" y="396" type="curve" smooth="yes"/>
      <point x="443" y="404"/>
      <point x="430" y="405"/>
      <point x="423" y="405" type="curve" smooth="yes"/>
      <point x="401" y="405"/>
      <point x="401" y="400"/>
      <point x="364" y="400" type="curve" smooth="yes"/>
      <point x="327" y="400"/>
      <point x="311" y="405"/>
      <point x="293" y="405" type="curve" smooth="yes"/>
      <point x="286" y="405"/>
      <point x="273" y="402"/>
      <point x="273" y="394" type="curve" smooth="yes"/>
      <point x="273" y="384"/>
      <point x="291" y="375"/>
      <point x="302" y="370" type="curve" smooth="yes"/>
      <point x="314" y="365"/>
      <point x="322" y="357"/>
      <point x="322" y="332" type="curve" smooth="yes"/>
      <point x="322" y="322"/>
      <point x="318" y="304"/>
      <point x="314" y="295" type="curve"/>
      <point x="245" y="112" type="line" smooth="yes"/>
      <point x="244" y="109"/>
      <point x="242" y="106"/>
      <point x="240" y="106" type="curve" smooth="yes"/>
      <point x="237" y="106"/>
      <point x="235" y="109"/>
      <point x="234" y="112" type="curve" smooth="yes"/>
      <point x="153" y="312" type="line" smooth="yes"/>
      <point x="150" y="319"/>
      <point x="145" y="332"/>
      <point x="145" y="340" type="curve" smooth="yes"/>
      <point x="145" y="359"/>
      <point x="151" y="368"/>
      <point x="165" y="372" type="curve" smooth="yes"/>
      <point x="176" y="375"/>
      <point x="194" y="384"/>
      <point x="194" y="394" type="curve" smooth="yes"/>
      <point x="194" y="402"/>
      <point x="182" y="405"/>
      <point x="174" y="405" type="curve" smooth="yes"/>
      <point x="134" y="405"/>
      <point x="133" y="400"/>
      <point x="98" y="400" type="curve" smooth="yes"/>
      <point x="63" y="400"/>
      <point x="65" y="405"/>
      <point x="25" y="405" type="curve" smooth="yes"/>
      <point x="18" y="405"/>
      <point x="5" y="404"/>
      <point x="5" y="396" type="curve" smooth="yes"/>
      <point x="5" y="386"/>
      <point x="17" y="382"/>
      <point x="28" y="378" type="curve"/>
      <point x="48" y="372"/>
      <point x="63" y="353"/>
      <point x="73" y="329" type="curve" smooth="yes"/>
      <point x="189" y="36" type="line" smooth="yes"/>
      <point x="192" y="28"/>
      <point x="193" y="18"/>
      <point x="193" y="7" type="curve" smooth="yes"/>
      <point x="193" y="-2"/>
      <point x="192" y="-10"/>
      <point x="190" y="-16" type="curve"/>
      <point x="161" y="-93"/>
      <point x="127" y="-159"/>
      <point x="105" y="-194" type="curve" smooth="yes"/>
      <point x="100" y="-202"/>
      <point x="94" y="-205"/>
      <point x="86" y="-205" type="curve" smooth="yes"/>
      <point x="75" y="-205"/>
      <point x="61" y="-199"/>
      <point x="46" y="-199" type="curve" smooth="yes"/>
      <point x="25" y="-199"/>
      <point x="13" y="-220"/>
      <point x="13" y="-244" type="curve" smooth="yes"/>
      <point x="13" y="-274"/>
      <point x="38" y="-285"/>
    </contour>
  </outline>
</glyph>
<glyph name="z" format="2">
  <advance width="377"/>
  <unicode hex="007A"/>
  <note>
z
</note>
  <anchor x="179" y="-30" name="bottom"/>
  <anchor x="201" y="440" name="top"/>
  <outline>
    <contour>
      <point x="39" y="-5" type="curve" smooth="yes"/>
      <point x="56" y="-5"/>
      <point x="91" y="0"/>
      <point x="119" y="0" type="curve" smooth="yes"/>
      <point x="228" y="0"/>
      <point x="299" y="-5"/>
      <point x="328" y="-5" type="curve" smooth="yes"/>
      <point x="336" y="-5"/>
      <point x="342" y="0"/>
      <point x="344" y="9" type="curve" smooth="yes"/>
      <point x="349" y="25"/>
      <point x="374" y="114"/>
      <point x="374" y="122" type="curve" smooth="yes"/>
      <point x="374" y="133"/>
      <point x="358" y="138"/>
      <point x="352" y="129" type="curve" smooth="yes"/>
      <point x="332" y="100"/>
      <point x="313" y="72"/>
      <point x="297" y="56" type="curve" smooth="yes"/>
      <point x="282" y="41"/>
      <point x="267" y="33"/>
      <point x="252" y="33" type="curve" smooth="yes"/>
      <point x="134" y="33" type="line" smooth="yes"/>
      <point x="125" y="33"/>
      <point x="119" y="38"/>
      <point x="125" y="48" type="curve" smooth="yes"/>
      <point x="320" y="343" type="line" smooth="yes"/>
      <point x="333" y="363"/>
      <point x="344" y="376"/>
      <point x="358" y="393" type="curve"/>
      <point x="361" y="397"/>
      <point x="356" y="405"/>
      <point x="351" y="405" type="curve" smooth="yes"/>
      <point x="290" y="403"/>
      <point x="234" y="402"/>
      <point x="165" y="402" type="curve" smooth="yes"/>
      <point x="156" y="402"/>
      <point x="142" y="401"/>
      <point x="127" y="401" type="curve" smooth="yes"/>
      <point x="109" y="401"/>
      <point x="90" y="402"/>
      <point x="84" y="407" type="curve" smooth="yes"/>
      <point x="78" y="412"/>
      <point x="72" y="416"/>
      <point x="69" y="416" type="curve" smooth="yes"/>
      <point x="65" y="416"/>
      <point x="54" y="408"/>
      <point x="54" y="398" type="curve" smooth="yes"/>
      <point x="54" y="373"/>
      <point x="41" y="322"/>
      <point x="35" y="304" type="curve" smooth="yes"/>
      <point x="31" y="293"/>
      <point x="49" y="286"/>
      <point x="57" y="294" type="curve" smooth="yes"/>
      <point x="71" y="312"/>
      <point x="86" y="337"/>
      <point x="101" y="352" type="curve" smooth="yes"/>
      <point x="109" y="360"/>
      <point x="126" y="372"/>
      <point x="145" y="371" type="curve" smooth="yes"/>
      <point x="244" y="368" type="line" smooth="yes"/>
      <point x="259" y="368"/>
      <point x="256" y="362"/>
      <point x="253" y="358" type="curve"/>
      <point x="180" y="242"/>
      <point x="129" y="166"/>
      <point x="62" y="70" type="curve" smooth="yes"/>
      <point x="48" y="51"/>
      <point x="25" y="17"/>
      <point x="25" y="12" type="curve" smooth="yes"/>
      <point x="25" y="7"/>
      <point x="34" y="-5"/>
    </contour>
  </outline>
</glyph>
<glyph name="braceleft" format="2">
  <advance width="376"/>
  <unicode hex="007B"/>
  <note>
braceleft
</note>
  <outline>
    <contour>
      <point x="335" y="-152" type="curve" smooth="yes"/>
      <point x="344" y="-153"/>
      <point x="353" y="-146"/>
      <point x="353" y="-137" type="curve" smooth="yes"/>
      <point x="353" y="-126"/>
      <point x="338" y="-126"/>
      <point x="327" y="-125" type="curve" smooth="yes"/>
      <point x="263" y="-119"/>
      <point x="228" y="-99"/>
      <point x="228" y="-26" type="curve" smooth="yes"/>
      <point x="228" y="42"/>
      <point x="241" y="89"/>
      <point x="241" y="147" type="curve" smooth="yes"/>
      <point x="241" y="213"/>
      <point x="158" y="270"/>
      <point x="125" y="279" type="curve"/>
      <point x="122" y="280"/>
      <point x="119" y="281"/>
      <point x="123" y="283" type="curve"/>
      <point x="165" y="300"/>
      <point x="241" y="348"/>
      <point x="241" y="414" type="curve" smooth="yes"/>
      <point x="241" y="472"/>
      <point x="228" y="519"/>
      <point x="228" y="587" type="curve" smooth="yes"/>
      <point x="228" y="660"/>
      <point x="266" y="678"/>
      <point x="330" y="686" type="curve" smooth="yes"/>
      <point x="341" y="687"/>
      <point x="356" y="689"/>
      <point x="356" y="700" type="curve" smooth="yes"/>
      <point x="356" y="709"/>
      <point x="347" y="715"/>
      <point x="338" y="715" type="curve" smooth="yes"/>
      <point x="244" y="711"/>
      <point x="143" y="676"/>
      <point x="143" y="582" type="curve" smooth="yes"/>
      <point x="143" y="512"/>
      <point x="156" y="466"/>
      <point x="156" y="404" type="curve" smooth="yes"/>
      <point x="156" y="346"/>
      <point x="124" y="315"/>
      <point x="71" y="301" type="curve" smooth="yes"/>
      <point x="56" y="297"/>
      <point x="50" y="288"/>
      <point x="50" y="282" type="curve" smooth="yes"/>
      <point x="50" y="274"/>
      <point x="60" y="267"/>
      <point x="69" y="265" type="curve" smooth="yes"/>
      <point x="112" y="255"/>
      <point x="156" y="215"/>
      <point x="156" y="157" type="curve" smooth="yes"/>
      <point x="156" y="95"/>
      <point x="143" y="49"/>
      <point x="143" y="-21" type="curve" smooth="yes"/>
      <point x="143" y="-115"/>
      <point x="241" y="-146"/>
    </contour>
  </outline>
</glyph>
<glyph name="cent" format="2">
  <advance width="422"/>
  <unicode hex="00A2"/>
  <note>
cent
</note>
  <outline>
    <contour>
      <point x="202" y="-13" type="curve" smooth="yes"/>
      <point x="211" y="-13"/>
      <point x="220" y="-7"/>
      <point x="221" y="2" type="curve" smooth="yes"/>
      <point x="228" y="76" type="line"/>
      <point x="300" y="78"/>
      <point x="349" y="105"/>
      <point x="386" y="167" type="curve"/>
      <point x="387" y="168"/>
      <point x="387" y="170"/>
      <point x="387" y="171" type="curve" smooth="yes"/>
      <point x="387" y="177"/>
      <point x="381" y="183"/>
      <point x="374" y="183" type="curve" smooth="yes"/>
      <point x="370" y="183"/>
      <point x="367" y="181"/>
      <point x="365" y="178" type="curve" smooth="yes"/>
      <point x="340" y="140"/>
      <point x="292" y="135"/>
      <point x="250" y="135" type="curve" smooth="yes"/>
      <point x="245" y="135"/>
      <point x="240" y="135"/>
      <point x="235" y="136" type="curve"/>
      <point x="269" y="469" type="line"/>
      <point x="296" y="462"/>
      <point x="312" y="444"/>
      <point x="326" y="419" type="curve"/>
      <point x="329" y="413"/>
      <point x="338" y="409"/>
      <point x="347" y="409" type="curve" smooth="yes"/>
      <point x="361" y="409"/>
      <point x="384" y="430"/>
      <point x="384" y="443" type="curve" smooth="yes"/>
      <point x="384" y="447"/>
      <point x="383" y="451"/>
      <point x="380" y="455" type="curve"/>
      <point x="353" y="488"/>
      <point x="312" y="501"/>
      <point x="273" y="503" type="curve"/>
      <point x="277" y="562" type="line" smooth="yes"/>
      <point x="278" y="570"/>
      <point x="272" y="579"/>
      <point x="264" y="579" type="curve" smooth="yes"/>
      <point x="253" y="579"/>
      <point x="243" y="573"/>
      <point x="242" y="562" type="curve" smooth="yes"/>
      <point x="238" y="502" type="line"/>
      <point x="119" y="491"/>
      <point x="35" y="391"/>
      <point x="35" y="278" type="curve" smooth="yes"/>
      <point x="35" y="179"/>
      <point x="109" y="93"/>
      <point x="194" y="78" type="curve"/>
      <point x="186" y="2" type="line" smooth="yes"/>
      <point x="185" y="-7"/>
      <point x="193" y="-13"/>
    </contour>
    <contour>
      <point x="200" y="143" type="line"/>
      <point x="142" y="165"/>
      <point x="102" y="225"/>
      <point x="102" y="312" type="curve" smooth="yes"/>
      <point x="102" y="387"/>
      <point x="153" y="474"/>
      <point x="233" y="474" type="curve" smooth="yes"/>
      <point x="235" y="474" type="line"/>
    </contour>
  </outline>
</glyph>
<glyph name="sterling" format="2">
  <advance width="490"/>
  <unicode hex="00A3"/>
  <note>
sterling
</note>
  <outline>
    <contour>
      <point x="45" y="297" type="curve" smooth="yes"/>
      <point x="333" y="317" type="line" smooth="yes"/>
      <point x="348" y="318"/>
      <point x="364" y="332"/>
      <point x="364" y="339" type="curve" smooth="yes"/>
      <point x="364" y="344"/>
      <point x="358" y="351"/>
      <point x="351" y="351" type="curve" smooth="yes"/>
      <point x="55" y="331" type="line" smooth="yes"/>
      <point x="42" y="330"/>
      <point x="31" y="318"/>
      <point x="31" y="309" type="curve" smooth="yes"/>
      <point x="31" y="303"/>
      <point x="38" y="297"/>
    </contour>
    <component base="L.script"/>
  </outline>
</glyph>
<glyph name="currency" format="2">
  <advance width="506"/>
  <unicode hex="00A4"/>
  <note>
currency
</note>
  <outline>
    <contour>
      <point x="70" y="57" type="curve" smooth="yes"/>
      <point x="73" y="57"/>
      <point x="76" y="58"/>
      <point x="78" y="60" type="curve" smooth="yes"/>
      <point x="135" y="116" type="line"/>
      <point x="167" y="90"/>
      <point x="208" y="75"/>
      <point x="253" y="75" type="curve" smooth="yes"/>
      <point x="298" y="75"/>
      <point x="339" y="90"/>
      <point x="371" y="116" type="curve"/>
      <point x="427" y="60" type="line" smooth="yes"/>
      <point x="429" y="58"/>
      <point x="432" y="57"/>
      <point x="435" y="57" type="curve" smooth="yes"/>
      <point x="448" y="57"/>
      <point x="466" y="75"/>
      <point x="466" y="88" type="curve" smooth="yes"/>
      <point x="466" y="91"/>
      <point x="465" y="93"/>
      <point x="463" y="95" type="curve" smooth="yes"/>
      <point x="406" y="152" type="line"/>
      <point x="431" y="185"/>
      <point x="445" y="226"/>
      <point x="445" y="270" type="curve" smooth="yes"/>
      <point x="445" y="314"/>
      <point x="431" y="355"/>
      <point x="406" y="388" type="curve"/>
      <point x="461" y="443" type="line" smooth="yes"/>
      <point x="464" y="446"/>
      <point x="465" y="449"/>
      <point x="465" y="453" type="curve" smooth="yes"/>
      <point x="465" y="467"/>
      <point x="447" y="483"/>
      <point x="435" y="483" type="curve" smooth="yes"/>
      <point x="432" y="483"/>
      <point x="429" y="482"/>
      <point x="427" y="480" type="curve" smooth="yes"/>
      <point x="371" y="424" type="line"/>
      <point x="339" y="450"/>
      <point x="298" y="465"/>
      <point x="253" y="465" type="curve" smooth="yes"/>
      <point x="208" y="465"/>
      <point x="167" y="449"/>
      <point x="134" y="424" type="curve"/>
      <point x="79" y="479" type="line" smooth="yes"/>
      <point x="77" y="481"/>
      <point x="74" y="482"/>
      <point x="71" y="482" type="curve" smooth="yes"/>
      <point x="58" y="482"/>
      <point x="40" y="464"/>
      <point x="40" y="451" type="curve" smooth="yes"/>
      <point x="40" y="448"/>
      <point x="41" y="446"/>
      <point x="43" y="444" type="curve" smooth="yes"/>
      <point x="100" y="387" type="line"/>
      <point x="75" y="355"/>
      <point x="61" y="314"/>
      <point x="61" y="270" type="curve" smooth="yes"/>
      <point x="61" y="226"/>
      <point x="75" y="185"/>
      <point x="100" y="152" type="curve"/>
      <point x="43" y="95" type="line" smooth="yes"/>
      <point x="41" y="93"/>
      <point x="40" y="90"/>
      <point x="40" y="87" type="curve" smooth="yes"/>
      <point x="40" y="74"/>
      <point x="57" y="57"/>
    </contour>
    <contour>
      <point x="253" y="125" type="curve" smooth="yes"/>
      <point x="174" y="125"/>
      <point x="111" y="191"/>
      <point x="111" y="270" type="curve" smooth="yes"/>
      <point x="111" y="349"/>
      <point x="174" y="415"/>
      <point x="253" y="415" type="curve" smooth="yes"/>
      <point x="332" y="415"/>
      <point x="395" y="349"/>
      <point x="395" y="270" type="curve" smooth="yes"/>
      <point x="395" y="191"/>
      <point x="332" y="125"/>
    </contour>
  </outline>
</glyph>
<glyph name="yen" format="2">
  <advance width="570"/>
  <unicode hex="00A5"/>
  <note>
yen
</note>
  <outline>
    <contour>
      <point x="182" y="-5" type="curve" smooth="yes"/>
      <point x="236" y="-5"/>
      <point x="260" y="0"/>
      <point x="310" y="0" type="curve" smooth="yes"/>
      <point x="356" y="0"/>
      <point x="373" y="-5"/>
      <point x="427" y="-5" type="curve" smooth="yes"/>
      <point x="444" y="-5"/>
      <point x="456" y="-2"/>
      <point x="456" y="6" type="curve" smooth="yes"/>
      <point x="456" y="15"/>
      <point x="446" y="20"/>
      <point x="423" y="24" type="curve" smooth="yes"/>
      <point x="373" y="33"/>
      <point x="345" y="63"/>
      <point x="345" y="108" type="curve" smooth="yes"/>
      <point x="345" y="197" type="line"/>
      <point x="453" y="197" type="line" smooth="yes"/>
      <point x="468" y="197"/>
      <point x="484" y="211"/>
      <point x="484" y="221" type="curve" smooth="yes"/>
      <point x="484" y="229"/>
      <point x="478" y="232"/>
      <point x="471" y="232" type="curve" smooth="yes"/>
      <point x="345" y="232" type="line"/>
      <point x="345" y="280" type="line"/>
      <point x="454" y="280" type="line" smooth="yes"/>
      <point x="469" y="280"/>
      <point x="485" y="294"/>
      <point x="485" y="304" type="curve" smooth="yes"/>
      <point x="485" y="310"/>
      <point x="479" y="315"/>
      <point x="472" y="315" type="curve" smooth="yes"/>
      <point x="350" y="315" type="line"/>
      <point x="353" y="323"/>
      <point x="360" y="334"/>
      <point x="368" y="346" type="curve"/>
      <point x="368" y="346"/>
      <point x="426" y="444"/>
      <point x="480" y="526" type="curve" smooth="yes"/>
      <point x="501" y="557"/>
      <point x="545" y="615"/>
      <point x="580" y="622" type="curve" smooth="yes"/>
      <point x="603" y="627"/>
      <point x="613" y="633"/>
      <point x="613" y="642" type="curve" smooth="yes"/>
      <point x="613" y="650"/>
      <point x="601" y="653"/>
      <point x="584" y="653" type="curve" smooth="yes"/>
      <point x="561" y="653"/>
      <point x="525" y="650"/>
      <point x="488" y="650" type="curve" smooth="yes"/>
      <point x="459" y="650"/>
      <point x="443" y="651"/>
      <point x="413" y="651" type="curve" smooth="yes"/>
      <point x="396" y="651"/>
      <point x="384" y="648"/>
      <point x="384" y="640" type="curve" smooth="yes"/>
      <point x="384" y="631"/>
      <point x="403" y="624"/>
      <point x="417" y="620" type="curve" smooth="yes"/>
      <point x="436" y="615"/>
      <point x="447" y="593"/>
      <point x="447" y="568" type="curve" smooth="yes"/>
      <point x="447" y="557"/>
      <point x="445" y="545"/>
      <point x="440" y="534" type="curve" smooth="yes"/>
      <point x="413" y="477"/>
      <point x="357" y="395"/>
      <point x="357" y="395" type="curve"/>
      <point x="342" y="370"/>
      <point x="334" y="356"/>
      <point x="326" y="356" type="curve" smooth="yes"/>
      <point x="319" y="356"/>
      <point x="311" y="369"/>
      <point x="296" y="395" type="curve" smooth="yes"/>
      <point x="203" y="560" type="line"/>
      <point x="196" y="571"/>
      <point x="194" y="580"/>
      <point x="194" y="588" type="curve" smooth="yes"/>
      <point x="194" y="608"/>
      <point x="211" y="617"/>
      <point x="222" y="621" type="curve"/>
      <point x="244" y="628"/>
      <point x="255" y="632"/>
      <point x="255" y="641" type="curve" smooth="yes"/>
      <point x="255" y="649"/>
      <point x="243" y="652"/>
      <point x="226" y="652" type="curve" smooth="yes"/>
      <point x="205" y="652"/>
      <point x="177" y="650"/>
      <point x="146" y="650" type="curve" smooth="yes"/>
      <point x="100" y="650"/>
      <point x="59" y="653"/>
      <point x="29" y="653" type="curve" smooth="yes"/>
      <point x="12" y="653"/>
      <point x="0" y="650"/>
      <point x="0" y="642" type="curve" smooth="yes"/>
      <point x="0" y="633"/>
      <point x="11" y="627"/>
      <point x="33" y="620" type="curve" smooth="yes"/>
      <point x="64" y="611"/>
      <point x="102" y="552"/>
      <point x="122" y="522" type="curve"/>
      <point x="255" y="315" type="line"/>
      <point x="149" y="315" type="line" smooth="yes"/>
      <point x="136" y="315"/>
      <point x="125" y="301"/>
      <point x="125" y="292" type="curve" smooth="yes"/>
      <point x="125" y="286"/>
      <point x="132" y="280"/>
      <point x="139" y="280" type="curve" smooth="yes"/>
      <point x="263" y="280" type="line"/>
      <point x="264" y="273"/>
      <point x="265" y="265"/>
      <point x="265" y="256" type="curve" smooth="yes"/>
      <point x="265" y="232" type="line"/>
      <point x="149" y="232" type="line" smooth="yes"/>
      <point x="136" y="232"/>
      <point x="125" y="218"/>
      <point x="125" y="209" type="curve" smooth="yes"/>
      <point x="125" y="203"/>
      <point x="132" y="197"/>
      <point x="139" y="197" type="curve" smooth="yes"/>
      <point x="265" y="197" type="line"/>
      <point x="264" y="108" type="line" smooth="yes"/>
      <point x="264" y="60"/>
      <point x="236" y="33"/>
      <point x="186" y="24" type="curve" smooth="yes"/>
      <point x="163" y="20"/>
      <point x="153" y="15"/>
      <point x="153" y="6" type="curve" smooth="yes"/>
      <point x="153" y="-2"/>
      <point x="165" y="-5"/>
    </contour>
  </outline>
</glyph>
<glyph name="copyright" format="2">
  <advance width="665"/>
  <unicode hex="00A9"/>
  <note>
copyright
</note>
  <outline>
    <contour>
      <point x="345" y="24" type="curve" smooth="yes"/>
      <point x="512" y="24"/>
      <point x="649" y="160"/>
      <point x="649" y="327" type="curve" smooth="yes"/>
      <point x="649" y="494"/>
      <point x="513" y="630"/>
      <point x="346" y="630" type="curve" smooth="yes"/>
      <point x="179" y="630"/>
      <point x="43" y="494"/>
      <point x="43" y="327" type="curve" smooth="yes"/>
      <point x="43" y="160"/>
      <point x="178" y="24"/>
    </contour>
    <contour>
      <point x="359" y="154" type="curve" smooth="yes"/>
      <point x="394" y="154"/>
      <point x="430" y="157"/>
      <point x="452" y="167" type="curve" smooth="yes"/>
      <point x="464" y="176"/>
      <point x="461" y="172"/>
      <point x="469" y="184" type="curve" smooth="yes"/>
      <point x="476" y="196"/>
      <point x="484" y="217"/>
      <point x="484" y="227" type="curve" smooth="yes"/>
      <point x="484" y="236"/>
      <point x="483" y="240"/>
      <point x="479" y="240" type="curve" smooth="yes"/>
      <point x="475" y="240"/>
      <point x="467" y="235"/>
      <point x="462" y="225" type="curve" smooth="yes"/>
      <point x="446" y="193"/>
      <point x="413" y="184"/>
      <point x="376" y="184" type="curve" smooth="yes"/>
      <point x="298" y="184"/>
      <point x="258" y="258"/>
      <point x="258" y="331" type="curve" smooth="yes"/>
      <point x="258" y="404"/>
      <point x="303" y="464"/>
      <point x="371" y="464" type="curve" smooth="yes"/>
      <point x="394" y="464"/>
      <point x="413" y="458"/>
      <point x="428" y="448" type="curve" smooth="yes"/>
      <point x="442" y="439"/>
      <point x="451" y="427"/>
      <point x="456" y="413" type="curve" smooth="yes"/>
      <point x="459" y="405"/>
      <point x="462" y="398"/>
      <point x="468" y="398" type="curve"/>
      <point x="473" y="397"/>
      <point x="478" y="405"/>
      <point x="478" y="409" type="curve"/>
      <point x="479" y="422"/>
      <point x="480" y="452"/>
      <point x="476" y="468" type="curve" smooth="yes"/>
      <point x="474" y="479"/>
      <point x="470" y="478"/>
      <point x="460" y="481" type="curve" smooth="yes"/>
      <point x="437" y="488"/>
      <point x="404" y="494"/>
      <point x="380" y="494" type="curve" smooth="yes"/>
      <point x="281" y="494"/>
      <point x="188" y="427"/>
      <point x="188" y="328" type="curve" smooth="yes"/>
      <point x="188" y="239"/>
      <point x="264" y="154"/>
    </contour>
    <contour>
      <point x="345" y="58" type="curve" smooth="yes"/>
      <point x="199" y="58"/>
      <point x="83" y="181"/>
      <point x="83" y="327" type="curve" smooth="yes"/>
      <point x="83" y="472"/>
      <point x="201" y="596"/>
      <point x="346" y="596" type="curve" smooth="yes"/>
      <point x="491" y="596"/>
      <point x="609" y="472"/>
      <point x="609" y="327" type="curve" smooth="yes"/>
      <point x="609" y="180"/>
      <point x="492" y="58"/>
    </contour>
  </outline>
</glyph>
<glyph name="ordfeminine" format="2">
  <advance width="310"/>
  <unicode hex="00AA"/>
  <note>
ordfeminine
</note>
  <outline>
    <contour>
      <point x="265" y="196" type="curve" smooth="yes"/>
      <point x="59" y="196" type="line" smooth="yes"/>
      <point x="46" y="196"/>
      <point x="35" y="182"/>
      <point x="35" y="173" type="curve" smooth="yes"/>
      <point x="35" y="167"/>
      <point x="42" y="161"/>
      <point x="49" y="161" type="curve" smooth="yes"/>
      <point x="247" y="161" type="line" smooth="yes"/>
      <point x="262" y="161"/>
      <point x="271" y="169"/>
      <point x="278" y="182" type="curve"/>
      <point x="278" y="183"/>
      <point x="279" y="184"/>
      <point x="279" y="185" type="curve" smooth="yes"/>
      <point x="279" y="191"/>
      <point x="271" y="196"/>
    </contour>
    <component base="a.ordn" xOffset="10" yOffset="-7"/>
  </outline>
</glyph>
<glyph name="registered" format="2">
  <advance width="665"/>
  <unicode hex="00AE"/>
  <note>
registered
</note>
  <outline>
    <contour>
      <point x="345" y="24" type="curve" smooth="yes"/>
      <point x="512" y="24"/>
      <point x="649" y="160"/>
      <point x="649" y="327" type="curve" smooth="yes"/>
      <point x="649" y="494"/>
      <point x="513" y="630"/>
      <point x="346" y="630" type="curve" smooth="yes"/>
      <point x="179" y="630"/>
      <point x="43" y="494"/>
      <point x="43" y="327" type="curve" smooth="yes"/>
      <point x="43" y="160"/>
      <point x="178" y="24"/>
    </contour>
    <contour>
      <point x="345" y="58" type="curve" smooth="yes"/>
      <point x="199" y="58"/>
      <point x="83" y="181"/>
      <point x="83" y="327" type="curve" smooth="yes"/>
      <point x="83" y="472"/>
      <point x="201" y="590"/>
      <point x="346" y="590" type="curve" smooth="yes"/>
      <point x="491" y="590"/>
      <point x="609" y="472"/>
      <point x="609" y="327" type="curve" smooth="yes"/>
      <point x="609" y="180"/>
      <point x="492" y="58"/>
    </contour>
    <contour>
      <point x="483" y="173" type="curve" smooth="yes"/>
      <point x="502" y="173"/>
      <point x="527" y="182"/>
      <point x="527" y="200" type="curve" smooth="yes"/>
      <point x="527" y="208"/>
      <point x="515" y="204"/>
      <point x="511" y="204" type="curve" smooth="yes"/>
      <point x="483" y="204"/>
      <point x="428" y="268"/>
      <point x="408" y="320" type="curve" smooth="yes"/>
      <point x="405" y="327"/>
      <point x="399" y="334"/>
      <point x="408" y="337" type="curve" smooth="yes"/>
      <point x="438" y="348"/>
      <point x="470" y="376"/>
      <point x="470" y="417" type="curve" smooth="yes"/>
      <point x="470" y="470"/>
      <point x="418" y="498"/>
      <point x="366" y="496" type="curve" smooth="yes"/>
      <point x="335" y="495"/>
      <point x="305" y="491"/>
      <point x="274" y="491" type="curve" smooth="yes"/>
      <point x="257" y="491"/>
      <point x="239" y="495"/>
      <point x="222" y="496" type="curve" smooth="yes"/>
      <point x="209" y="497"/>
      <point x="202" y="492"/>
      <point x="202" y="484" type="curve" smooth="yes"/>
      <point x="202" y="476"/>
      <point x="207" y="472"/>
      <point x="221" y="468" type="curve" smooth="yes"/>
      <point x="241" y="462"/>
      <point x="244" y="467"/>
      <point x="244" y="426" type="curve" smooth="yes"/>
      <point x="244" y="231" type="line" smooth="yes"/>
      <point x="244" y="209"/>
      <point x="235" y="204"/>
      <point x="219" y="199" type="curve" smooth="yes"/>
      <point x="210" y="196"/>
      <point x="200" y="191"/>
      <point x="200" y="183" type="curve" smooth="yes"/>
      <point x="200" y="177"/>
      <point x="210" y="172"/>
      <point x="216" y="172" type="curve" smooth="yes"/>
      <point x="248" y="172"/>
      <point x="249" y="176"/>
      <point x="277" y="176" type="curve" smooth="yes"/>
      <point x="305" y="176"/>
      <point x="310" y="172"/>
      <point x="342" y="172" type="curve" smooth="yes"/>
      <point x="348" y="172"/>
      <point x="358" y="177"/>
      <point x="358" y="183" type="curve" smooth="yes"/>
      <point x="358" y="191"/>
      <point x="348" y="196"/>
      <point x="339" y="199" type="curve" smooth="yes"/>
      <point x="323" y="204"/>
      <point x="305" y="209"/>
      <point x="305" y="231" type="curve"/>
      <point x="304" y="309" type="line"/>
      <point x="304" y="316"/>
      <point x="312" y="320"/>
      <point x="320" y="320" type="curve" smooth="yes"/>
      <point x="345" y="320"/>
      <point x="355" y="312"/>
      <point x="358" y="304" type="curve" smooth="yes"/>
      <point x="375" y="260"/>
      <point x="431" y="173"/>
    </contour>
    <contour>
      <point x="331" y="347" type="curve" smooth="yes"/>
      <point x="317" y="347"/>
      <point x="304" y="348"/>
      <point x="304" y="367" type="curve" smooth="yes"/>
      <point x="304" y="437" type="line" smooth="yes"/>
      <point x="304" y="455"/>
      <point x="312" y="467"/>
      <point x="342" y="467" type="curve" smooth="yes"/>
      <point x="377" y="467"/>
      <point x="406" y="445"/>
      <point x="406" y="413" type="curve" smooth="yes"/>
      <point x="406" y="374"/>
      <point x="370" y="347"/>
    </contour>
  </outline>
</glyph>
<glyph name="degree" format="2">
  <advance width="290"/>
  <unicode hex="00B0"/>
  <note>
degree
</note>
  <outline>
    <contour>
      <point x="145" y="402" type="curve" smooth="yes"/>
      <point x="208" y="402"/>
      <point x="265" y="464"/>
      <point x="265" y="528" type="curve" smooth="yes"/>
      <point x="265" y="592"/>
      <point x="208" y="645"/>
      <point x="145" y="645" type="curve" smooth="yes"/>
      <point x="82" y="645"/>
      <point x="25" y="590"/>
      <point x="25" y="526" type="curve" smooth="yes"/>
      <point x="25" y="462"/>
      <point x="82" y="402"/>
    </contour>
    <contour>
      <point x="145" y="444" type="curve" smooth="yes"/>
      <point x="103" y="444"/>
      <point x="68" y="481"/>
      <point x="68" y="523" type="curve" smooth="yes"/>
      <point x="68" y="567"/>
      <point x="103" y="602"/>
      <point x="145" y="602" type="curve" smooth="yes"/>
      <point x="187" y="602"/>
      <point x="222" y="567"/>
      <point x="222" y="523" type="curve" smooth="yes"/>
      <point x="222" y="481"/>
      <point x="187" y="444"/>
    </contour>
  </outline>
</glyph>
<glyph name="paragraph" format="2">
  <advance width="595"/>
  <unicode hex="00B6"/>
  <note>
paragraph
</note>
  <outline>
    <contour>
      <point x="282" y="-289" type="curve" smooth="yes"/>
      <point x="351" y="-289"/>
      <point x="425" y="-239"/>
      <point x="425" y="-112" type="curve" smooth="yes"/>
      <point x="425" y="590" type="line" smooth="yes"/>
      <point x="425" y="599"/>
      <point x="433" y="608"/>
      <point x="443" y="608" type="curve" smooth="yes"/>
      <point x="494" y="608"/>
      <point x="542" y="592"/>
      <point x="548" y="592" type="curve" smooth="yes"/>
      <point x="556" y="592"/>
      <point x="562" y="613"/>
      <point x="562" y="622" type="curve" smooth="yes"/>
      <point x="562" y="631"/>
      <point x="557" y="640"/>
      <point x="547" y="642" type="curve"/>
      <point x="532" y="644"/>
      <point x="462" y="648"/>
      <point x="407" y="648" type="curve" smooth="yes"/>
      <point x="183" y="648"/>
      <point x="45" y="571"/>
      <point x="45" y="383" type="curve" smooth="yes"/>
      <point x="45" y="202"/>
      <point x="194" y="119"/>
      <point x="373" y="119" type="curve" smooth="yes"/>
      <point x="384" y="119"/>
      <point x="386" y="104"/>
      <point x="386" y="94" type="curve" smooth="yes"/>
      <point x="386" y="-112" type="line" smooth="yes"/>
      <point x="386" y="-219"/>
      <point x="335" y="-254"/>
      <point x="286" y="-254" type="curve" smooth="yes"/>
      <point x="242" y="-254"/>
      <point x="200" y="-225"/>
      <point x="200" y="-186" type="curve" smooth="yes"/>
      <point x="200" y="-152"/>
      <point x="220" y="-135"/>
      <point x="236" y="-135" type="curve" smooth="yes"/>
      <point x="247" y="-135"/>
      <point x="254" y="-143"/>
      <point x="262" y="-150" type="curve" smooth="yes"/>
      <point x="269" y="-157"/>
      <point x="278" y="-163"/>
      <point x="291" y="-163" type="curve" smooth="yes"/>
      <point x="314" y="-163"/>
      <point x="334" y="-143"/>
      <point x="334" y="-114" type="curve" smooth="yes"/>
      <point x="334" y="-84"/>
      <point x="313" y="-61"/>
      <point x="268" y="-61" type="curve" smooth="yes"/>
      <point x="213" y="-61"/>
      <point x="158" y="-112"/>
      <point x="158" y="-179" type="curve" smooth="yes"/>
      <point x="158" y="-247"/>
      <point x="218" y="-289"/>
    </contour>
  </outline>
</glyph>
<glyph name="ordmasculine" format="2">
  <advance width="309"/>
  <unicode hex="00BA"/>
  <note>
ordmasculine
</note>
  <outline>
    <contour>
      <point x="271" y="196" type="curve" smooth="yes"/>
      <point x="49" y="196" type="line" smooth="yes"/>
      <point x="36" y="196"/>
      <point x="25" y="182"/>
      <point x="25" y="173" type="curve" smooth="yes"/>
      <point x="25" y="167"/>
      <point x="32" y="161"/>
      <point x="39" y="161" type="curve" smooth="yes"/>
      <point x="253" y="161" type="line" smooth="yes"/>
      <point x="268" y="161"/>
      <point x="277" y="169"/>
      <point x="284" y="182" type="curve"/>
      <point x="284" y="183"/>
      <point x="285" y="184"/>
      <point x="285" y="185" type="curve" smooth="yes"/>
      <point x="285" y="191"/>
      <point x="277" y="196"/>
    </contour>
    <component base="o.ordn" yOffset="-7"/>
  </outline>
</glyph>
<glyph name="Eth" format="2">
  <advance width="754"/>
  <unicode hex="00D0"/>
  <note>
Eth
</note>
  <anchor x="363" y="-30" name="bottom.cap"/>
  <anchor x="364" y="675" name="top.cap"/>
  <outline>
    <contour>
      <point x="60" y="317" type="curve"/>
      <point x="359" y="317" type="line"/>
      <point x="374" y="317"/>
      <point x="383" y="326"/>
      <point x="390" y="339" type="curve"/>
      <point x="390" y="340"/>
      <point x="391" y="341"/>
      <point x="391" y="342" type="curve" smooth="yes"/>
      <point x="391" y="348"/>
      <point x="383" y="353"/>
      <point x="377" y="353" type="curve"/>
      <point x="70" y="353" type="line"/>
      <point x="58" y="353"/>
      <point x="46" y="344"/>
      <point x="46" y="335" type="curve" smooth="yes"/>
      <point x="46" y="329"/>
      <point x="51" y="317"/>
    </contour>
    <component base="D"/>
  </outline>
</glyph>
<glyph name="multiply" format="2">
  <advance width="600"/>
  <unicode hex="00D7"/>
  <note>
multiply
</note>
  <outline>
    <contour>
      <point x="456" y="60" type="curve" smooth="yes"/>
      <point x="467" y="60"/>
      <point x="486" y="84"/>
      <point x="486" y="102" type="curve" smooth="yes"/>
      <point x="486" y="107"/>
      <point x="484" y="111"/>
      <point x="481" y="114" type="curve" smooth="yes"/>
      <point x="345" y="250" type="line" smooth="yes"/>
      <point x="343" y="252"/>
      <point x="343" y="253"/>
      <point x="345" y="255" type="curve" smooth="yes"/>
      <point x="476" y="386" type="line" smooth="yes"/>
      <point x="481" y="391"/>
      <point x="483" y="396"/>
      <point x="483" y="401" type="curve" smooth="yes"/>
      <point x="483" y="413"/>
      <point x="473" y="428"/>
      <point x="466" y="441" type="curve"/>
      <point x="464" y="444"/>
      <point x="460" y="446"/>
      <point x="457" y="446" type="curve" smooth="yes"/>
      <point x="453" y="446"/>
      <point x="450" y="444"/>
      <point x="447" y="441" type="curve" smooth="yes"/>
      <point x="303" y="298" type="line" smooth="yes"/>
      <point x="301" y="296"/>
      <point x="301" y="294"/>
      <point x="296" y="299" type="curve" smooth="yes"/>
      <point x="153" y="441" type="line" smooth="yes"/>
      <point x="148" y="446"/>
      <point x="139" y="446"/>
      <point x="134" y="441" type="curve"/>
      <point x="131" y="437"/>
      <point x="118" y="416"/>
      <point x="118" y="400" type="curve" smooth="yes"/>
      <point x="118" y="395"/>
      <point x="119" y="390"/>
      <point x="123" y="386" type="curve" smooth="yes"/>
      <point x="252" y="258" type="line" smooth="yes"/>
      <point x="256" y="254"/>
      <point x="257" y="252"/>
      <point x="253" y="248" type="curve" smooth="yes"/>
      <point x="119" y="114" type="line" smooth="yes"/>
      <point x="116" y="111"/>
      <point x="114" y="106"/>
      <point x="114" y="102" type="curve" smooth="yes"/>
      <point x="114" y="87"/>
      <point x="131" y="68"/>
      <point x="136" y="63" type="curve" smooth="yes"/>
      <point x="140" y="59"/>
      <point x="149" y="59"/>
      <point x="154" y="64" type="curve" smooth="yes"/>
      <point x="297" y="207" type="line" smooth="yes"/>
      <point x="299" y="209"/>
      <point x="302" y="209"/>
      <point x="304" y="207" type="curve" smooth="yes"/>
      <point x="446" y="64" type="line" smooth="yes"/>
      <point x="449" y="61"/>
      <point x="452" y="60"/>
    </contour>
  </outline>
</glyph>
<glyph name="Oslash" format="2">
  <advance width="773"/>
  <unicode hex="00D8"/>
  <note>
Oslash
</note>
  <anchor x="372" y="-30" name="bottom.cap"/>
  <anchor x="391" y="675" name="top.cap"/>
  <outline>
    <contour>
      <point x="70" y="-14" type="curve" smooth="yes"/>
      <point x="74" y="-14"/>
      <point x="77" y="-13"/>
      <point x="79" y="-11" type="curve"/>
      <point x="712" y="621" type="line"/>
      <point x="717" y="626"/>
      <point x="719" y="632"/>
      <point x="719" y="639" type="curve" smooth="yes"/>
      <point x="719" y="644"/>
      <point x="717" y="650"/>
      <point x="716" y="654" type="curve"/>
      <point x="713" y="663"/>
      <point x="699" y="665"/>
      <point x="692" y="658" type="curve"/>
      <point x="52" y="26" type="line"/>
      <point x="46" y="20"/>
      <point x="42" y="13"/>
      <point x="42" y="6" type="curve" smooth="yes"/>
      <point x="42" y="-4"/>
      <point x="56" y="-14"/>
    </contour>
    <component base="O"/>
  </outline>
</glyph>
<glyph name="Thorn" format="2">
  <advance width="559"/>
  <unicode hex="00DE"/>
  <note>
Thorn
</note>
  <outline>
    <contour>
      <point x="51" y="-5" type="curve" smooth="yes"/>
      <point x="105" y="-5"/>
      <point x="130" y="0"/>
      <point x="180" y="0" type="curve" smooth="yes"/>
      <point x="226" y="0"/>
      <point x="243" y="-5"/>
      <point x="297" y="-5" type="curve" smooth="yes"/>
      <point x="314" y="-5"/>
      <point x="326" y="-2"/>
      <point x="326" y="6" type="curve" smooth="yes"/>
      <point x="326" y="15"/>
      <point x="316" y="20"/>
      <point x="293" y="24" type="curve" smooth="yes"/>
      <point x="243" y="33"/>
      <point x="214" y="54"/>
      <point x="214" y="96" type="curve" smooth="yes"/>
      <point x="214" y="123" type="line" smooth="yes"/>
      <point x="214" y="129"/>
      <point x="218" y="132"/>
      <point x="222" y="132" type="curve" smooth="yes"/>
      <point x="231" y="132"/>
      <point x="242" y="129"/>
      <point x="256" y="129" type="curve" smooth="yes"/>
      <point x="394" y="129"/>
      <point x="519" y="190"/>
      <point x="519" y="337" type="curve" smooth="yes"/>
      <point x="519" y="457"/>
      <point x="429" y="524"/>
      <point x="315" y="524" type="curve" smooth="yes"/>
      <point x="288" y="524"/>
      <point x="262" y="522"/>
      <point x="243" y="517" type="curve"/>
      <point x="242" y="517"/>
      <point x="223" y="512"/>
      <point x="220" y="512" type="curve" smooth="yes"/>
      <point x="214" y="512"/>
      <point x="214" y="521"/>
      <point x="214" y="532" type="curve" smooth="yes"/>
      <point x="214" y="549" type="line" smooth="yes"/>
      <point x="214" y="597"/>
      <point x="242" y="613"/>
      <point x="292" y="622" type="curve" smooth="yes"/>
      <point x="315" y="626"/>
      <point x="325" y="633"/>
      <point x="325" y="642" type="curve" smooth="yes"/>
      <point x="325" y="650"/>
      <point x="313" y="653"/>
      <point x="296" y="653" type="curve" smooth="yes"/>
      <point x="242" y="653"/>
      <point x="223" y="650"/>
      <point x="177" y="650" type="curve" smooth="yes"/>
      <point x="136" y="650"/>
      <point x="127" y="653"/>
      <point x="73" y="653" type="curve" smooth="yes"/>
      <point x="56" y="653"/>
      <point x="44" y="650"/>
      <point x="44" y="642" type="curve" smooth="yes"/>
      <point x="44" y="633"/>
      <point x="54" y="626"/>
      <point x="77" y="622" type="curve" smooth="yes"/>
      <point x="127" y="613"/>
      <point x="134" y="588"/>
      <point x="134" y="549" type="curve" smooth="yes"/>
      <point x="134" y="99" type="line" smooth="yes"/>
      <point x="134" y="51"/>
      <point x="105" y="33"/>
      <point x="55" y="24" type="curve" smooth="yes"/>
      <point x="32" y="20"/>
      <point x="22" y="15"/>
      <point x="22" y="6" type="curve" smooth="yes"/>
      <point x="22" y="-2"/>
      <point x="34" y="-5"/>
    </contour>
    <contour>
      <point x="265" y="158" type="curve" smooth="yes"/>
      <point x="239" y="158"/>
      <point x="214" y="174"/>
      <point x="214" y="216" type="curve" smooth="yes"/>
      <point x="214" y="420" type="line" smooth="yes"/>
      <point x="214" y="484"/>
      <point x="228" y="496"/>
      <point x="299" y="496" type="curve" smooth="yes"/>
      <point x="392" y="496"/>
      <point x="433" y="420"/>
      <point x="433" y="335" type="curve" smooth="yes"/>
      <point x="433" y="229"/>
      <point x="371" y="158"/>
    </contour>
  </outline>
</glyph>
<glyph name="germandbls" format="2">
  <advance width="504"/>
  <unicode hex="00DF"/>
  <note>
germandbls
</note>
  <outline>
    <contour>
      <point x="314" y="-15" type="curve" smooth="yes"/>
      <point x="391" y="-15"/>
      <point x="474" y="58"/>
      <point x="474" y="140" type="curve" smooth="yes"/>
      <point x="474" y="179"/>
      <point x="463" y="205"/>
      <point x="401" y="266" type="curve" smooth="yes"/>
      <point x="339" y="327"/>
      <point x="324" y="336"/>
      <point x="324" y="364" type="curve" smooth="yes"/>
      <point x="324" y="401"/>
      <point x="342" y="414"/>
      <point x="375" y="443" type="curve" smooth="yes"/>
      <point x="437" y="497"/>
      <point x="454" y="528"/>
      <point x="454" y="572" type="curve" smooth="yes"/>
      <point x="454" y="644"/>
      <point x="397" y="706"/>
      <point x="318" y="706" type="curve" smooth="yes"/>
      <point x="220" y="706"/>
      <point x="89" y="633"/>
      <point x="89" y="402" type="curve"/>
      <point x="71" y="392"/>
      <point x="60" y="384"/>
      <point x="30" y="376" type="curve"/>
      <point x="28" y="375"/>
      <point x="26" y="372"/>
      <point x="26" y="369" type="curve" smooth="yes"/>
      <point x="26" y="362"/>
      <point x="33" y="353"/>
      <point x="37" y="352" type="curve"/>
      <point x="58" y="350"/>
      <point x="76" y="350"/>
      <point x="89" y="350" type="curve"/>
      <point x="89" y="69" type="line" smooth="yes"/>
      <point x="89" y="41"/>
      <point x="67" y="30"/>
      <point x="47" y="24" type="curve"/>
      <point x="36" y="20"/>
      <point x="24" y="16"/>
      <point x="24" y="6" type="curve" smooth="yes"/>
      <point x="24" y="-4"/>
      <point x="42" y="-3"/>
      <point x="47" y="-3" type="curve" smooth="yes"/>
      <point x="86" y="-3"/>
      <point x="90" y="2"/>
      <point x="125" y="2" type="curve" smooth="yes"/>
      <point x="160" y="2"/>
      <point x="162" y="-3"/>
      <point x="201" y="-3" type="curve" smooth="yes"/>
      <point x="206" y="-3"/>
      <point x="224" y="-4"/>
      <point x="224" y="6" type="curve" smooth="yes"/>
      <point x="224" y="16"/>
      <point x="212" y="20"/>
      <point x="201" y="24" type="curve"/>
      <point x="181" y="30"/>
      <point x="159" y="41"/>
      <point x="159" y="69" type="curve" smooth="yes"/>
      <point x="159" y="475" type="line" smooth="yes"/>
      <point x="159" y="613"/>
      <point x="206" y="665"/>
      <point x="272" y="665" type="curve" smooth="yes"/>
      <point x="356" y="665"/>
      <point x="391" y="616"/>
      <point x="391" y="555" type="curve" smooth="yes"/>
      <point x="391" y="519"/>
      <point x="373" y="482"/>
      <point x="350" y="458" type="curve" smooth="yes"/>
      <point x="304" y="410"/>
      <point x="245" y="383"/>
      <point x="245" y="336" type="curve" smooth="yes"/>
      <point x="245" y="302"/>
      <point x="256" y="292"/>
      <point x="334" y="217" type="curve" smooth="yes"/>
      <point x="398" y="156"/>
      <point x="422" y="134"/>
      <point x="422" y="98" type="curve" smooth="yes"/>
      <point x="422" y="58"/>
      <point x="391" y="41"/>
      <point x="365" y="41" type="curve" smooth="yes"/>
      <point x="334" y="41"/>
      <point x="320" y="46"/>
      <point x="296" y="66" type="curve" smooth="yes"/>
      <point x="288" y="72"/>
      <point x="273" y="81"/>
      <point x="265" y="81" type="curve" smooth="yes"/>
      <point x="247" y="81"/>
      <point x="241" y="59"/>
      <point x="241" y="33" type="curve" smooth="yes"/>
      <point x="241" y="-1"/>
      <point x="277" y="-15"/>
    </contour>
  </outline>
</glyph>
<glyph name="ae" format="2">
  <advance width="557"/>
  <unicode hex="00E6"/>
  <note>
ae
</note>
  <anchor x="302" y="440" name="top"/>
  <outline>
    <contour>
      <point x="123" y="-14" type="curve" smooth="yes"/>
      <point x="191" y="-13"/>
      <point x="222" y="22"/>
      <point x="238" y="34" type="curve"/>
      <point x="241" y="37"/>
      <point x="244" y="38"/>
      <point x="246" y="38" type="curve" smooth="yes"/>
      <point x="248" y="38"/>
      <point x="256" y="29"/>
      <point x="259" y="26" type="curve"/>
      <point x="290" y="0"/>
      <point x="329" y="-14"/>
      <point x="368" y="-14" type="curve" smooth="yes"/>
      <point x="444" y="-14"/>
      <point x="487" y="19"/>
      <point x="531" y="83" type="curve"/>
      <point x="532" y="84"/>
      <point x="532" y="86"/>
      <point x="532" y="87" type="curve" smooth="yes"/>
      <point x="532" y="93"/>
      <point x="526" y="98"/>
      <point x="519" y="98" type="curve" smooth="yes"/>
      <point x="516" y="98"/>
      <point x="513" y="97"/>
      <point x="510" y="94" type="curve"/>
      <point x="478" y="57"/>
      <point x="439" y="46"/>
      <point x="399" y="46" type="curve" smooth="yes"/>
      <point x="355" y="46"/>
      <point x="311" y="63"/>
      <point x="311" y="129" type="curve" smooth="yes"/>
      <point x="311" y="185" type="line" smooth="yes"/>
      <point x="311" y="190"/>
      <point x="316" y="200"/>
      <point x="322" y="203" type="curve"/>
      <point x="356" y="218"/>
      <point x="493" y="277"/>
      <point x="506" y="284" type="curve" smooth="yes"/>
      <point x="520" y="291"/>
      <point x="530" y="296"/>
      <point x="530" y="318" type="curve" smooth="yes"/>
      <point x="530" y="383"/>
      <point x="465" y="413"/>
      <point x="413" y="413" type="curve" smooth="yes"/>
      <point x="380" y="413"/>
      <point x="330" y="397"/>
      <point x="306" y="380" type="curve" smooth="yes"/>
      <point x="303" y="378"/>
      <point x="300" y="376"/>
      <point x="299" y="376" type="curve" smooth="yes"/>
      <point x="297" y="376"/>
      <point x="296" y="378"/>
      <point x="294" y="381" type="curve"/>
      <point x="286" y="395"/>
      <point x="251" y="414"/>
      <point x="231" y="414" type="curve" smooth="yes"/>
      <point x="178" y="414"/>
      <point x="113" y="370"/>
      <point x="82" y="342" type="curve" smooth="yes"/>
      <point x="57" y="320"/>
      <point x="42" y="294"/>
      <point x="42" y="273" type="curve" smooth="yes"/>
      <point x="42" y="270"/>
      <point x="44" y="264"/>
      <point x="50" y="264" type="curve" smooth="yes"/>
      <point x="63" y="264"/>
      <point x="119" y="285"/>
      <point x="119" y="299" type="curve" smooth="yes"/>
      <point x="119" y="304"/>
      <point x="118" y="308"/>
      <point x="118" y="313" type="curve" smooth="yes"/>
      <point x="118" y="320"/>
      <point x="119" y="327"/>
      <point x="122" y="332" type="curve" smooth="yes"/>
      <point x="130" y="346"/>
      <point x="159" y="365"/>
      <point x="183" y="365" type="curve" smooth="yes"/>
      <point x="220" y="365"/>
      <point x="243" y="334"/>
      <point x="243" y="299" type="curve" smooth="yes"/>
      <point x="243" y="233" type="line" smooth="yes"/>
      <point x="243" y="217"/>
      <point x="240" y="214"/>
      <point x="214" y="202" type="curve" smooth="yes"/>
      <point x="110" y="155" type="line" smooth="yes"/>
      <point x="61" y="133"/>
      <point x="37" y="107"/>
      <point x="37" y="65" type="curve" smooth="yes"/>
      <point x="37" y="26"/>
      <point x="82" y="-14"/>
    </contour>
    <contour>
      <point x="166" y="32" type="curve" smooth="yes"/>
      <point x="147" y="32"/>
      <point x="117" y="49"/>
      <point x="117" y="87" type="curve"/>
      <point x="119" y="130"/>
      <point x="186" y="160"/>
      <point x="219" y="169" type="curve" smooth="yes"/>
      <point x="226" y="171"/>
      <point x="231" y="172"/>
      <point x="234" y="172" type="curve" smooth="yes"/>
      <point x="242" y="172"/>
      <point x="242" y="164"/>
      <point x="242" y="148" type="curve" smooth="yes"/>
      <point x="242" y="96" type="line" smooth="yes"/>
      <point x="242" y="71"/>
      <point x="235" y="65"/>
      <point x="228" y="59" type="curve" smooth="yes"/>
      <point x="212" y="45"/>
      <point x="192" y="32"/>
    </contour>
    <contour>
      <point x="327" y="244" type="curve" smooth="yes"/>
      <point x="322" y="242"/>
      <point x="312" y="244"/>
      <point x="312" y="254" type="curve" smooth="yes"/>
      <point x="312" y="321" type="line" smooth="yes"/>
      <point x="313" y="356"/>
      <point x="370" y="378"/>
      <point x="387" y="378" type="curve" smooth="yes"/>
      <point x="430" y="378"/>
      <point x="461" y="344"/>
      <point x="461" y="306" type="curve" smooth="yes"/>
      <point x="461" y="300"/>
      <point x="460" y="294"/>
      <point x="454" y="292" type="curve"/>
      <point x="435" y="284"/>
      <point x="376" y="264"/>
    </contour>
  </outline>
</glyph>
<glyph name="eth" format="2">
  <advance width="487"/>
  <unicode hex="00F0"/>
  <note>
eth
</note>
  <outline>
    <contour>
      <point x="231" y="-14" type="curve" smooth="yes"/>
      <point x="381" y="-14"/>
      <point x="456" y="133"/>
      <point x="456" y="250" type="curve" smooth="yes"/>
      <point x="456" y="427"/>
      <point x="399" y="522"/>
      <point x="342" y="583" type="curve"/>
      <point x="417" y="622" type="line" smooth="yes"/>
      <point x="433" y="630"/>
      <point x="435" y="646"/>
      <point x="435" y="664" type="curve" smooth="yes"/>
      <point x="435" y="674"/>
      <point x="418" y="670"/>
      <point x="410" y="665" type="curve"/>
      <point x="309" y="612" type="line"/>
      <point x="236" y="671"/>
      <point x="151" y="705"/>
      <point x="90" y="705" type="curve" smooth="yes"/>
      <point x="76" y="705"/>
      <point x="64" y="702"/>
      <point x="64" y="693" type="curve" smooth="yes"/>
      <point x="64" y="683"/>
      <point x="76" y="680"/>
      <point x="84" y="678" type="curve" smooth="yes"/>
      <point x="134" y="667"/>
      <point x="199" y="636"/>
      <point x="254" y="584" type="curve"/>
      <point x="122" y="515" type="line" smooth="yes"/>
      <point x="114" y="511"/>
      <point x="114" y="489"/>
      <point x="114" y="480" type="curve" smooth="yes"/>
      <point x="114" y="475"/>
      <point x="120" y="468"/>
      <point x="128" y="472" type="curve" smooth="yes"/>
      <point x="283" y="552" type="line"/>
      <point x="313" y="516"/>
      <point x="335" y="459"/>
      <point x="351" y="400" type="curve"/>
      <point x="353" y="390"/>
      <point x="352" y="387"/>
      <point x="343" y="391" type="curve"/>
      <point x="315" y="406"/>
      <point x="288" y="414"/>
      <point x="256" y="414" type="curve" smooth="yes"/>
      <point x="133" y="414"/>
      <point x="25" y="310"/>
      <point x="25" y="186" type="curve" smooth="yes"/>
      <point x="25" y="66"/>
      <point x="119" y="-14"/>
    </contour>
    <contour>
      <point x="252" y="16" type="curve" smooth="yes"/>
      <point x="172" y="16"/>
      <point x="108" y="111"/>
      <point x="108" y="210" type="curve" smooth="yes"/>
      <point x="108" y="293"/>
      <point x="151" y="380"/>
      <point x="236" y="380" type="curve" smooth="yes"/>
      <point x="277" y="380"/>
      <point x="317" y="359"/>
      <point x="345" y="329" type="curve" smooth="yes"/>
      <point x="369" y="304"/>
      <point x="378" y="265"/>
      <point x="378" y="219" type="curve" smooth="yes"/>
      <point x="378" y="111"/>
      <point x="322" y="16"/>
    </contour>
  </outline>
</glyph>
<glyph name="divide" format="2">
  <advance width="590"/>
  <unicode hex="00F7"/>
  <note>
divide
</note>
  <outline>
    <contour>
      <point x="84" y="231" type="curve" smooth="yes"/>
      <point x="493" y="231" type="line" smooth="yes"/>
      <point x="511" y="231"/>
      <point x="523" y="253"/>
      <point x="523" y="272" type="curve" smooth="yes"/>
      <point x="523" y="277"/>
      <point x="516" y="282"/>
      <point x="511" y="282" type="curve" smooth="yes"/>
      <point x="93" y="282" type="line" smooth="yes"/>
      <point x="73" y="282"/>
      <point x="70" y="249"/>
      <point x="70" y="241" type="curve" smooth="yes"/>
      <point x="70" y="236"/>
      <point x="77" y="231"/>
    </contour>
    <contour>
      <point x="294" y="67" type="curve" smooth="yes"/>
      <point x="320" y="67"/>
      <point x="341" y="88"/>
      <point x="341" y="114" type="curve" smooth="yes"/>
      <point x="341" y="140"/>
      <point x="320" y="161"/>
      <point x="294" y="161" type="curve" smooth="yes"/>
      <point x="269" y="161"/>
      <point x="247" y="140"/>
      <point x="247" y="114" type="curve" smooth="yes"/>
      <point x="247" y="88"/>
      <point x="269" y="67"/>
    </contour>
    <contour>
      <point x="293" y="352" type="curve" smooth="yes"/>
      <point x="319" y="352"/>
      <point x="340" y="373"/>
      <point x="340" y="399" type="curve" smooth="yes"/>
      <point x="340" y="425"/>
      <point x="319" y="446"/>
      <point x="293" y="446" type="curve" smooth="yes"/>
      <point x="268" y="446"/>
      <point x="246" y="425"/>
      <point x="246" y="399" type="curve" smooth="yes"/>
      <point x="246" y="373"/>
      <point x="268" y="352"/>
    </contour>
  </outline>
</glyph>
<glyph name="oslash" format="2">
  <advance width="485"/>
  <unicode hex="00F8"/>
  <guideline x="460" y="336" angle="90"/>
  <guideline x="35" y="307" angle="90"/>
  <anchor x="247" y="-30" name="bottom"/>
  <anchor x="254" y="440" name="top"/>
  <note>
oslash
</note>
  <outline>
    <contour>
      <point x="50" y="-15" type="curve" smooth="yes"/>
      <point x="53" y="-15"/>
      <point x="55" y="-14"/>
      <point x="57" y="-12" type="curve"/>
      <point x="452" y="374" type="line"/>
      <point x="459" y="380"/>
      <point x="463" y="391"/>
      <point x="463" y="400" type="curve" smooth="yes"/>
      <point x="463" y="408"/>
      <point x="459" y="415"/>
      <point x="449" y="415" type="curve" smooth="yes"/>
      <point x="445" y="415"/>
      <point x="441" y="414"/>
      <point x="438" y="411" type="curve"/>
      <point x="36" y="25" type="line"/>
      <point x="30" y="20"/>
      <point x="26" y="12"/>
      <point x="26" y="5" type="curve" smooth="yes"/>
      <point x="26" y="-4"/>
      <point x="38" y="-15"/>
    </contour>
    <component base="o"/>
  </outline>
</glyph>
<glyph name="thorn" format="2">
  <advance width="505"/>
  <unicode hex="00FE"/>
  <note>
thorn
</note>
  <outline>
    <contour>
      <point x="39" y="-285" type="curve" smooth="yes"/>
      <point x="78" y="-285"/>
      <point x="82" y="-280"/>
      <point x="117" y="-280" type="curve" smooth="yes"/>
      <point x="152" y="-280"/>
      <point x="156" y="-285"/>
      <point x="195" y="-285" type="curve" smooth="yes"/>
      <point x="204" y="-285"/>
      <point x="218" y="-285"/>
      <point x="218" y="-276" type="curve" smooth="yes"/>
      <point x="218" y="-266"/>
      <point x="206" y="-262"/>
      <point x="195" y="-258" type="curve"/>
      <point x="175" y="-252"/>
      <point x="155" y="-247"/>
      <point x="155" y="-219" type="curve" smooth="yes"/>
      <point x="155" y="-33" type="line" smooth="yes"/>
      <point x="155" y="-27"/>
      <point x="155" y="18"/>
      <point x="158" y="18" type="curve"/>
      <point x="178" y="0"/>
      <point x="228" y="-14"/>
      <point x="256" y="-14" type="curve" smooth="yes"/>
      <point x="382" y="-14"/>
      <point x="481" y="106"/>
      <point x="481" y="225" type="curve" smooth="yes"/>
      <point x="481" y="319"/>
      <point x="420" y="414"/>
      <point x="317" y="414" type="curve" smooth="yes"/>
      <point x="254" y="414"/>
      <point x="176" y="367"/>
      <point x="157" y="348" type="curve"/>
      <point x="156" y="349"/>
      <point x="155" y="363"/>
      <point x="155" y="386" type="curve" smooth="yes"/>
      <point x="155" y="562" type="line" smooth="yes"/>
      <point x="156" y="652"/>
      <point x="162" y="686"/>
      <point x="162" y="698" type="curve" smooth="yes"/>
      <point x="162" y="701"/>
      <point x="159" y="705"/>
      <point x="156" y="705" type="curve" smooth="yes"/>
      <point x="155" y="705"/>
      <point x="155" y="704"/>
      <point x="154" y="704" type="curve"/>
      <point x="122" y="692"/>
      <point x="89" y="676"/>
      <point x="38" y="664" type="curve" smooth="yes"/>
      <point x="34" y="663"/>
      <point x="31" y="658"/>
      <point x="31" y="652" type="curve" smooth="yes"/>
      <point x="31" y="646"/>
      <point x="34" y="640"/>
      <point x="39" y="639" type="curve" smooth="yes"/>
      <point x="72" y="632"/>
      <point x="85" y="599"/>
      <point x="85" y="566" type="curve" smooth="yes"/>
      <point x="85" y="-219" type="line" smooth="yes"/>
      <point x="85" y="-247"/>
      <point x="59" y="-252"/>
      <point x="39" y="-258" type="curve"/>
      <point x="28" y="-262"/>
      <point x="16" y="-266"/>
      <point x="16" y="-276" type="curve" smooth="yes"/>
      <point x="16" y="-285"/>
      <point x="30" y="-285"/>
    </contour>
    <contour>
      <point x="271" y="17" type="curve" smooth="yes"/>
      <point x="227" y="17"/>
      <point x="193" y="28"/>
      <point x="178" y="42" type="curve" smooth="yes"/>
      <point x="159" y="60"/>
      <point x="155" y="96"/>
      <point x="155" y="115" type="curve" smooth="yes"/>
      <point x="155" y="269" type="line" smooth="yes"/>
      <point x="155" y="310"/>
      <point x="164" y="329"/>
      <point x="179" y="340" type="curve" smooth="yes"/>
      <point x="204" y="359"/>
      <point x="231" y="369"/>
      <point x="265" y="369" type="curve" smooth="yes"/>
      <point x="308" y="369"/>
      <point x="401" y="347"/>
      <point x="401" y="193" type="curve" smooth="yes"/>
      <point x="401" y="59"/>
      <point x="310" y="17"/>
    </contour>
  </outline>
</glyph>
<glyph name="eogonek" format="2">
  <advance width="383"/>
  <unicode hex="0119"/>
  <note>
eogonek
</note>
  <outline>
    <contour>
      <point x="243" y="-287" type="curve" smooth="yes"/>
      <point x="299" y="-287"/>
      <point x="343" y="-226"/>
      <point x="343" y="-207" type="curve" smooth="yes"/>
      <point x="343" y="-201"/>
      <point x="339" y="-200"/>
      <point x="335" y="-200" type="curve" smooth="yes"/>
      <point x="330" y="-200"/>
      <point x="311" y="-221"/>
      <point x="276" y="-221" type="curve" smooth="yes"/>
      <point x="242" y="-221"/>
      <point x="216" y="-196"/>
      <point x="216" y="-152" type="curve" smooth="yes"/>
      <point x="216" y="-55"/>
      <point x="287" y="4"/>
      <point x="303" y="16" type="curve"/>
      <point x="331" y="35"/>
      <point x="349" y="59"/>
      <point x="354" y="77" type="curve" smooth="yes"/>
      <point x="355" y="81"/>
      <point x="355" y="85"/>
      <point x="355" y="88" type="curve" smooth="yes"/>
      <point x="354" y="93"/>
      <point x="352" y="97"/>
      <point x="348" y="97" type="curve" smooth="yes"/>
      <point x="345" y="97"/>
      <point x="340" y="93"/>
      <point x="337" y="90" type="curve"/>
      <point x="311" y="56"/>
      <point x="268" y="46"/>
      <point x="243" y="46" type="curve" smooth="yes"/>
      <point x="153" y="46"/>
      <point x="92" y="130"/>
      <point x="92" y="220" type="curve" smooth="yes"/>
      <point x="92" y="254"/>
      <point x="101" y="257"/>
      <point x="117" y="257" type="curve" smooth="yes"/>
      <point x="281" y="257" type="line" smooth="yes"/>
      <point x="339" y="257"/>
      <point x="358" y="272"/>
      <point x="358" y="323" type="curve" smooth="yes"/>
      <point x="358" y="376"/>
      <point x="310" y="414"/>
      <point x="229" y="414" type="curve" smooth="yes"/>
      <point x="116" y="414"/>
      <point x="30" y="316"/>
      <point x="30" y="203" type="curve" smooth="yes"/>
      <point x="30" y="70"/>
      <point x="107" y="-14"/>
      <point x="198" y="-14" type="curve" smooth="yes"/>
      <point x="215" y="-14"/>
      <point x="231" y="-12"/>
      <point x="245" y="-9" type="curve"/>
      <point x="204" y="-43"/>
      <point x="142" y="-107"/>
      <point x="142" y="-179" type="curve" smooth="yes"/>
      <point x="142" y="-253"/>
      <point x="185" y="-287"/>
    </contour>
    <contour>
      <point x="130" y="288" type="line" smooth="yes"/>
      <point x="116" y="288"/>
      <point x="111" y="295"/>
      <point x="111" y="303" type="curve" smooth="yes"/>
      <point x="111" y="329"/>
      <point x="157" y="383"/>
      <point x="213" y="383" type="curve" smooth="yes"/>
      <point x="252" y="383"/>
      <point x="295" y="361"/>
      <point x="295" y="321" type="curve" smooth="yes"/>
      <point x="295" y="310"/>
      <point x="292" y="294"/>
      <point x="285" y="293" type="curve"/>
      <point x="264" y="289"/>
      <point x="241" y="288"/>
      <point x="212" y="288" type="curve" smooth="yes"/>
    </contour>
  </outline>
</glyph>
<glyph name="Hbar" format="2">
  <advance width="810"/>
  <unicode hex="0126"/>
  <anchor x="405" y="-30" name="bottom.cap"/>
  <anchor x="405" y="675" name="top.cap"/>
  <note>
Hbar
</note>
  <outline>
    <contour>
      <point x="68" y="456" type="curve" smooth="yes"/>
      <point x="731" y="456" type="line" smooth="yes"/>
      <point x="747" y="456"/>
      <point x="762" y="471"/>
      <point x="762" y="480" type="curve" smooth="yes"/>
      <point x="762" y="488"/>
      <point x="756" y="492"/>
      <point x="749" y="492" type="curve"/>
      <point x="76" y="492" type="line" smooth="yes"/>
      <point x="63" y="492"/>
      <point x="52" y="485"/>
      <point x="52" y="474" type="curve" smooth="yes"/>
      <point x="52" y="465"/>
      <point x="60" y="456"/>
    </contour>
    <component base="H"/>
  </outline>
</glyph>
<glyph name="hbar" format="2">
  <advance width="519"/>
  <unicode hex="0127"/>
  <note>
hbar
</note>
  <anchor x="236" y="-30" name="bottom"/>
  <outline>
    <contour>
      <point x="43" y="-3" type="curve" smooth="yes"/>
      <point x="83" y="-3"/>
      <point x="89" y="2"/>
      <point x="124" y="2" type="curve" smooth="yes"/>
      <point x="159" y="2"/>
      <point x="160" y="-3"/>
      <point x="200" y="-3" type="curve" smooth="yes"/>
      <point x="215" y="-3"/>
      <point x="220" y="0"/>
      <point x="220" y="8" type="curve" smooth="yes"/>
      <point x="220" y="16"/>
      <point x="212" y="20"/>
      <point x="198" y="24" type="curve" smooth="yes"/>
      <point x="178" y="30"/>
      <point x="159" y="38"/>
      <point x="159" y="65" type="curve" smooth="yes"/>
      <point x="159" y="253" type="line" smooth="yes"/>
      <point x="159" y="294"/>
      <point x="165" y="308"/>
      <point x="186" y="325" type="curve" smooth="yes"/>
      <point x="205" y="340"/>
      <point x="244" y="347"/>
      <point x="269" y="347" type="curve" smooth="yes"/>
      <point x="312" y="347"/>
      <point x="362" y="307"/>
      <point x="362" y="257" type="curve" smooth="yes"/>
      <point x="362" y="68" type="line" smooth="yes"/>
      <point x="362" y="41"/>
      <point x="343" y="31"/>
      <point x="323" y="24" type="curve" smooth="yes"/>
      <point x="308" y="19"/>
      <point x="300" y="17"/>
      <point x="300" y="8" type="curve" smooth="yes"/>
      <point x="300" y="0"/>
      <point x="306" y="-3"/>
      <point x="320" y="-3" type="curve" smooth="yes"/>
      <point x="360" y="-3"/>
      <point x="363" y="2"/>
      <point x="398" y="2" type="curve" smooth="yes"/>
      <point x="433" y="2"/>
      <point x="436" y="-3"/>
      <point x="476" y="-3" type="curve" smooth="yes"/>
      <point x="490" y="-3"/>
      <point x="496" y="0"/>
      <point x="496" y="8" type="curve" smooth="yes"/>
      <point x="496" y="16"/>
      <point x="487" y="20"/>
      <point x="473" y="24" type="curve" smooth="yes"/>
      <point x="453" y="30"/>
      <point x="432" y="41"/>
      <point x="432" y="68" type="curve" smooth="yes"/>
      <point x="432" y="263" type="line" smooth="yes"/>
      <point x="432" y="341"/>
      <point x="383" y="399"/>
      <point x="318" y="399" type="curve" smooth="yes"/>
      <point x="255" y="399"/>
      <point x="197" y="359"/>
      <point x="166" y="336" type="curve"/>
      <point x="161" y="345"/>
      <point x="159" y="352"/>
      <point x="159" y="373" type="curve" smooth="yes"/>
      <point x="159" y="562" type="line" smooth="yes"/>
      <point x="159" y="669"/>
      <point x="168" y="686"/>
      <point x="168" y="698" type="curve" smooth="yes"/>
      <point x="168" y="702"/>
      <point x="165" y="705"/>
      <point x="161" y="705" type="curve" smooth="yes"/>
      <point x="159" y="705"/>
      <point x="157" y="704"/>
      <point x="155" y="703" type="curve" smooth="yes"/>
      <point x="122" y="689"/>
      <point x="72" y="673"/>
      <point x="44" y="664" type="curve" smooth="yes"/>
      <point x="38" y="662"/>
      <point x="36" y="658"/>
      <point x="36" y="652" type="curve" smooth="yes"/>
      <point x="36" y="644"/>
      <point x="39" y="639"/>
      <point x="45" y="638" type="curve" smooth="yes"/>
      <point x="79" y="632"/>
      <point x="89" y="602"/>
      <point x="89" y="566" type="curve" smooth="yes"/>
      <point x="89" y="65" type="line" smooth="yes"/>
      <point x="88" y="38"/>
      <point x="66" y="30"/>
      <point x="46" y="24" type="curve" smooth="yes"/>
      <point x="29" y="19"/>
      <point x="23" y="16"/>
      <point x="23" y="8" type="curve" smooth="yes"/>
      <point x="23" y="0"/>
      <point x="31" y="-3"/>
    </contour>
    <contour>
      <point x="33" y="516" type="curve"/>
      <point x="279" y="516" type="line"/>
      <point x="294" y="516"/>
      <point x="303" y="524"/>
      <point x="310" y="537" type="curve"/>
      <point x="310" y="538"/>
      <point x="311" y="539"/>
      <point x="311" y="540" type="curve" smooth="yes"/>
      <point x="311" y="545"/>
      <point x="303" y="550"/>
      <point x="297" y="550" type="curve"/>
      <point x="43" y="550" type="line"/>
      <point x="31" y="550"/>
      <point x="19" y="542"/>
      <point x="19" y="533" type="curve" smooth="yes"/>
      <point x="19" y="527"/>
      <point x="24" y="516"/>
    </contour>
  </outline>
</glyph>
<glyph name="dotlessi" format="2">
  <advance width="245"/>
  <unicode hex="0131"/>
  <anchor x="116" y="-30" name="bottom"/>
  <anchor x="124" y="440" name="top"/>
  <note>
dotlessi
</note>
  <outline>
    <contour>
      <point x="44" y="-3" type="curve" smooth="yes"/>
      <point x="83" y="-3"/>
      <point x="90" y="2"/>
      <point x="125" y="2" type="curve" smooth="yes"/>
      <point x="160" y="2"/>
      <point x="168" y="-3"/>
      <point x="206" y="-3" type="curve" smooth="yes"/>
      <point x="219" y="-3"/>
      <point x="226" y="0"/>
      <point x="226" y="8" type="curve" smooth="yes"/>
      <point x="226" y="18"/>
      <point x="214" y="21"/>
      <point x="203" y="24" type="curve" smooth="yes"/>
      <point x="176" y="31"/>
      <point x="160" y="39"/>
      <point x="160" y="62" type="curve" smooth="yes"/>
      <point x="160" y="294" type="line" smooth="yes"/>
      <point x="160" y="339"/>
      <point x="169" y="413"/>
      <point x="169" y="429" type="curve" smooth="yes"/>
      <point x="169" y="432"/>
      <point x="167" y="434"/>
      <point x="163" y="434" type="curve" smooth="yes"/>
      <point x="159" y="434"/>
      <point x="154" y="431"/>
      <point x="149" y="427" type="curve" smooth="yes"/>
      <point x="132" y="413"/>
      <point x="97" y="389"/>
      <point x="44" y="377" type="curve" smooth="yes"/>
      <point x="38" y="376"/>
      <point x="35" y="372"/>
      <point x="35" y="365" type="curve" smooth="yes"/>
      <point x="35" y="357"/>
      <point x="38" y="353"/>
      <point x="45" y="352" type="curve" smooth="yes"/>
      <point x="79" y="347"/>
      <point x="90" y="315"/>
      <point x="90" y="279" type="curve" smooth="yes"/>
      <point x="90" y="62" type="line" smooth="yes"/>
      <point x="90" y="38"/>
      <point x="75" y="31"/>
      <point x="47" y="24" type="curve" smooth="yes"/>
      <point x="36" y="21"/>
      <point x="24" y="18"/>
      <point x="24" y="8" type="curve" smooth="yes"/>
      <point x="24" y="0"/>
      <point x="32" y="-3"/>
    </contour>
  </outline>
</glyph>
<glyph name="Lslash" format="2">
  <advance width="584"/>
  <unicode hex="0141"/>
  <anchor x="311" y="-30" name="bottom.cap"/>
  <anchor x="187" y="675" name="top.cap"/>
  <note>
Lslash
</note>
  <outline>
    <contour>
      <point x="60" y="257" type="curve" smooth="yes"/>
      <point x="151" y="290" type="line"/>
      <point x="181" y="297" type="line"/>
      <point x="375" y="368" type="line" smooth="yes"/>
      <point x="384" y="371"/>
      <point x="393" y="385"/>
      <point x="393" y="405" type="curve" smooth="yes"/>
      <point x="393" y="412"/>
      <point x="382" y="414"/>
      <point x="375" y="411" type="curve" smooth="yes"/>
      <point x="180" y="339" type="line"/>
      <point x="150" y="332" type="line"/>
      <point x="53" y="296" type="line" smooth="yes"/>
      <point x="42" y="292"/>
      <point x="39" y="277"/>
      <point x="39" y="263" type="curve" smooth="yes"/>
      <point x="39" y="255"/>
      <point x="52" y="254"/>
    </contour>
    <component base="L"/>
  </outline>
</glyph>
<glyph name="lslash" format="2">
  <advance width="280"/>
  <unicode hex="0142"/>
  <anchor x="140" y="-30" name="bottom"/>
  <note>
lslash
</note>
  <outline>
    <contour>
      <point x="50" y="293" type="curve" smooth="yes"/>
      <point x="133" y="337" type="line"/>
      <point x="149" y="341" type="line"/>
      <point x="232" y="385" type="line" smooth="yes"/>
      <point x="241" y="390"/>
      <point x="250" y="398"/>
      <point x="250" y="405" type="curve" smooth="yes"/>
      <point x="250" y="420"/>
      <point x="245" y="425"/>
      <point x="239" y="425" type="curve" smooth="yes"/>
      <point x="237" y="425"/>
      <point x="234" y="424"/>
      <point x="232" y="423" type="curve" smooth="yes"/>
      <point x="139" y="374" type="line"/>
      <point x="123" y="370" type="line"/>
      <point x="43" y="327" type="line"/>
      <point x="38" y="324"/>
      <point x="30" y="318"/>
      <point x="30" y="309" type="curve" smooth="yes"/>
      <point x="30" y="301"/>
      <point x="42" y="289"/>
    </contour>
    <component base="l" xOffset="19"/>
  </outline>
</glyph>
